{"glyphs":{"0":{"ha":781,"x_min":114,"x_max":667,"o":"m 389 -12 q 189 59 264 -12 q 114 250 114 131 l 114 722 q 189 913 114 842 q 389 985 264 985 q 590 913 514 985 q 667 722 667 840 l 667 250 q 590 60 667 132 q 389 -12 514 -12 m 389 36 q 551 94 490 36 q 613 247 613 151 l 613 725 q 551 878 613 819 q 389 936 490 936 q 229 878 290 936 q 168 725 168 819 l 168 247 q 229 94 168 151 q 389 36 290 36 z "},"1":{"ha":482,"x_min":90,"x_max":328,"o":"m 265 968 q 283 972 272 972 l 314 972 q 328 958 328 972 l 328 14 q 314 0 328 0 l 288 0 q 274 14 274 0 l 274 903 q 272 907 274 906 q 267 907 269 908 l 107 828 l 100 825 q 93 828 96 825 q 90 838 90 832 l 90 854 q 100 871 90 864 l 265 968 z "},"2":{"ha":729,"x_min":90,"x_max":639,"o":"m 106 0 q 92 14 92 0 l 92 38 q 97 54 92 47 l 236 236 q 415 469 328 353 q 549 749 549 646 q 492 883 549 832 q 343 935 436 935 q 198 883 253 935 q 144 747 143 832 l 144 701 q 131 688 144 688 l 104 688 q 90 701 90 688 l 90 753 q 162 919 92 856 q 343 983 232 983 q 531 918 460 983 q 603 749 603 853 q 467 450 603 629 q 229 140 375 328 l 164 56 q 167 49 160 49 l 625 49 q 639 35 639 49 l 639 14 q 625 0 639 0 l 106 0 z "},"3":{"ha":700,"x_min":81,"x_max":596,"o":"m 568 457 q 596 289 596 386 q 576 157 596 215 q 491 32 551 75 q 338 -11 431 -11 q 178 39 243 -11 q 92 174 114 89 q 81 272 81 218 q 94 286 81 286 l 121 286 q 135 272 135 286 q 142 194 138 213 q 208 81 157 124 q 338 38 260 38 q 456 71 408 38 q 524 168 503 104 q 540 290 540 218 q 517 440 540 378 q 336 556 468 556 q 299 551 315 556 q 292 550 296 550 q 281 556 285 550 l 268 569 q 264 578 264 574 q 268 589 264 583 l 521 917 q 522 922 524 919 q 518 924 521 924 l 97 924 q 83 938 83 924 l 83 958 q 97 972 83 972 l 578 972 q 592 958 592 972 l 592 933 q 586 915 592 922 l 347 601 q 346 597 344 599 q 351 594 347 594 q 568 457 513 593 z "},"4":{"ha":731,"x_min":78,"x_max":638,"o":"m 624 326 q 638 313 638 326 l 638 290 q 624 276 638 276 l 567 276 q 561 271 561 276 l 561 14 q 547 0 561 0 l 521 0 q 507 14 507 0 l 507 271 q 501 276 507 276 l 92 276 q 78 290 78 276 l 78 313 q 82 329 78 319 l 381 963 q 397 972 385 972 l 424 972 q 433 967 431 972 q 433 956 436 963 l 139 333 q 139 328 138 331 q 143 326 140 326 l 501 326 q 507 332 507 326 l 507 576 q 521 590 507 590 l 547 590 q 561 576 561 590 l 561 332 q 567 326 561 326 l 624 326 z "},"5":{"ha":699,"x_min":106,"x_max":618,"o":"m 610 417 q 618 294 618 360 q 610 185 618 228 q 523 42 590 94 q 360 -11 456 -11 q 201 39 267 -11 q 115 172 136 89 q 106 224 108 196 l 106 226 q 118 238 106 238 l 146 238 q 160 224 160 238 q 165 194 163 204 q 231 81 179 124 q 360 39 283 39 q 492 84 439 39 q 558 207 544 129 q 564 294 564 236 q 558 394 564 340 q 495 510 549 471 q 360 550 442 550 q 235 519 288 550 q 163 432 182 488 q 147 421 160 421 l 119 421 q 106 435 106 421 l 106 958 q 119 972 106 972 l 563 972 q 576 958 576 972 l 576 938 q 563 924 576 924 l 165 924 q 160 918 160 924 l 158 521 q 160 517 158 518 q 165 518 163 515 q 250 577 197 556 q 364 599 303 599 q 527 552 461 599 q 610 417 593 506 z "},"6":{"ha":700,"x_min":106,"x_max":621,"o":"m 604 426 q 621 293 621 383 q 607 168 621 208 q 521 36 581 83 q 367 -11 461 -11 q 204 38 269 -11 q 117 171 139 86 q 106 296 106 215 l 106 738 q 176 917 106 850 q 357 983 246 983 q 532 919 465 983 q 599 750 599 856 l 599 740 q 585 726 599 726 l 558 726 q 549 730 553 726 q 544 739 544 733 l 544 750 q 492 883 544 832 q 357 935 440 935 q 215 881 271 935 q 160 738 160 828 l 160 497 q 162 492 160 493 q 167 494 164 492 q 249 574 200 550 q 365 599 299 599 q 604 426 550 599 m 556 190 q 567 294 567 226 q 556 400 567 364 q 490 508 540 467 q 361 550 439 550 q 233 508 285 550 q 168 399 182 467 q 160 293 160 367 q 168 190 160 221 q 232 81 181 124 q 363 39 283 39 q 488 77 435 39 q 556 190 540 115 z "},"7":{"ha":643,"x_min":61,"x_max":607,"o":"m 231 0 q 219 15 215 0 l 547 917 q 547 922 549 919 q 543 924 546 924 l 115 924 q 110 918 110 924 l 110 857 q 96 843 110 843 l 75 843 q 61 857 61 843 l 61 958 q 75 972 61 972 l 593 972 q 607 958 607 972 l 607 932 q 604 915 607 926 l 276 11 q 260 0 272 0 l 231 0 z "},"8":{"ha":707,"x_min":93,"x_max":608,"o":"m 585 400 q 608 267 608 342 q 565 94 608 165 q 478 17 533 44 q 351 -11 424 -11 q 220 19 276 -11 q 132 106 164 49 q 93 268 93 175 q 121 406 93 346 q 232 519 157 485 q 232 526 239 522 q 140 600 175 554 q 93 742 93 663 q 129 868 93 811 q 219 953 161 922 q 351 985 278 985 q 488 953 431 985 q 576 864 544 922 q 607 742 607 807 q 563 600 607 663 q 472 528 526 553 q 472 521 465 524 q 585 400 551 483 m 182 625 q 253 566 210 588 q 347 543 296 544 l 353 543 q 451 567 408 544 q 522 629 494 589 q 554 739 554 676 q 528 839 554 794 q 458 910 503 885 q 349 936 413 936 q 244 910 290 936 q 172 838 199 883 q 147 738 147 790 q 182 625 147 676 m 517 119 q 554 269 554 179 q 536 379 554 329 q 469 467 515 436 q 354 500 422 499 l 350 500 q 237 470 282 500 q 169 386 192 440 q 147 268 147 338 q 182 124 147 182 q 351 38 233 38 q 517 119 465 38 z "},"9":{"ha":718,"x_min":97,"x_max":613,"o":"m 601 801 q 613 676 613 757 l 613 235 q 542 56 613 122 q 361 -11 472 -11 q 186 53 253 -11 q 119 222 119 117 l 119 232 q 133 246 119 246 l 160 246 q 174 235 174 246 l 174 222 q 226 89 174 140 q 361 38 278 38 q 503 91 447 38 q 558 235 558 144 l 558 475 q 556 480 558 479 q 551 478 554 481 q 469 398 518 422 q 353 374 419 374 q 114 546 168 374 q 97 679 97 589 q 111 804 97 764 q 197 936 138 889 q 351 983 257 983 q 514 935 449 983 q 601 801 579 886 m 357 422 q 485 464 433 422 q 550 574 536 506 q 558 679 558 606 q 550 782 558 751 q 486 891 538 849 q 356 933 435 933 q 231 895 283 933 q 163 782 178 857 q 151 678 151 746 q 163 572 151 608 q 228 464 178 506 q 357 422 279 422 z "},"\r":{"ha":278,"x_min":0,"x_max":0,"o":""}," ":{"ha":278,"x_min":0,"x_max":0,"o":""},"A":{"ha":803,"x_min":51,"x_max":749,"o":"m 708 0 q 692 11 696 0 l 629 203 q 624 207 628 207 l 176 207 q 171 203 172 207 l 110 11 q 93 0 106 0 l 67 0 q 56 15 51 0 l 365 961 q 382 972 369 972 l 418 972 q 435 961 431 972 l 747 15 l 749 10 q 736 0 749 0 l 708 0 m 189 260 q 190 255 188 257 q 194 253 192 253 l 607 253 q 612 255 610 253 q 613 260 614 257 l 404 896 q 400 899 403 899 q 396 896 397 899 l 189 260 z "},"Á":{"ha":803,"x_min":54,"x_max":749,"o":"m 708 0 q 692 11 696 0 l 629 203 q 624 207 628 207 l 176 207 q 171 203 172 207 l 110 11 q 93 0 106 0 l 67 0 q 56 15 51 0 l 365 961 q 382 972 369 972 l 418 972 q 435 961 431 972 l 747 15 l 749 10 q 736 0 749 0 l 708 0 m 189 260 q 190 255 188 257 q 194 253 192 253 l 607 253 q 612 255 610 253 q 613 260 614 257 l 404 896 q 400 899 403 899 q 396 896 397 899 l 189 260 m 369 1079 q 358 1084 361 1079 q 360 1096 356 1089 l 444 1250 q 461 1260 449 1260 l 488 1260 q 499 1255 496 1260 q 497 1243 501 1250 l 406 1089 q 389 1079 399 1079 l 369 1079 z "},"Ă":{"ha":803,"x_min":54,"x_max":749,"o":"m 708 0 q 692 11 696 0 l 629 203 q 624 207 628 207 l 176 207 q 171 203 172 207 l 110 11 q 93 0 106 0 l 67 0 q 56 15 51 0 l 365 961 q 382 972 369 972 l 418 972 q 435 961 431 972 l 747 15 l 749 10 q 736 0 749 0 l 708 0 m 189 260 q 190 255 188 257 q 194 253 192 253 l 607 253 q 612 255 610 253 q 613 260 614 257 l 404 896 q 400 899 403 899 q 396 896 397 899 l 189 260 m 400 1056 q 305 1092 344 1056 q 260 1181 265 1128 l 260 1183 q 272 1194 260 1194 l 285 1194 q 300 1181 299 1194 q 333 1118 304 1143 q 400 1093 361 1093 q 468 1118 439 1093 q 501 1181 497 1143 q 517 1194 503 1194 l 529 1194 q 540 1190 536 1194 q 542 1181 543 1186 q 496 1092 536 1128 q 400 1056 456 1056 z "},"Ǎ":{"ha":803,"x_min":54,"x_max":749,"o":"m 708 0 q 692 11 696 0 l 629 203 q 624 207 628 207 l 176 207 q 171 203 172 207 l 110 11 q 93 0 106 0 l 67 0 q 56 15 51 0 l 365 961 q 382 972 369 972 l 418 972 q 435 961 431 972 l 747 15 l 749 10 q 736 0 749 0 l 708 0 m 189 260 q 190 255 188 257 q 194 253 192 253 l 607 253 q 612 255 610 253 q 613 260 614 257 l 404 896 q 400 899 403 899 q 396 896 397 899 l 189 260 m 383 1050 q 365 1058 371 1050 l 251 1207 q 249 1215 249 1210 q 251 1221 249 1218 q 260 1224 254 1224 l 281 1224 q 299 1215 293 1224 l 396 1089 q 400 1086 397 1086 q 404 1089 403 1086 l 499 1215 q 517 1224 504 1224 l 538 1224 q 549 1218 546 1224 q 546 1207 551 1213 l 431 1058 q 413 1050 425 1050 l 383 1050 z "},"Â":{"ha":803,"x_min":54,"x_max":749,"o":"m 708 0 q 692 11 696 0 l 629 203 q 624 207 628 207 l 176 207 q 171 203 172 207 l 110 11 q 93 0 106 0 l 67 0 q 56 15 51 0 l 365 961 q 382 972 369 972 l 418 972 q 435 961 431 972 l 747 15 l 749 10 q 736 0 749 0 l 708 0 m 189 260 q 190 255 188 257 q 194 253 192 253 l 607 253 q 612 255 610 253 q 613 260 614 257 l 404 896 q 400 899 403 899 q 396 896 397 899 l 189 260 m 260 1067 q 249 1072 251 1067 q 251 1083 246 1078 l 367 1233 q 385 1242 372 1242 l 414 1242 q 432 1233 426 1242 l 547 1083 q 550 1075 550 1081 q 547 1069 550 1072 q 539 1067 544 1067 l 518 1067 q 500 1075 506 1067 l 404 1201 q 400 1204 403 1204 q 396 1201 397 1204 l 299 1075 q 281 1067 293 1067 l 260 1067 z "},"Ä":{"ha":803,"x_min":54,"x_max":749,"o":"m 708 0 q 692 11 696 0 l 629 203 q 624 207 628 207 l 176 207 q 171 203 172 207 l 110 11 q 93 0 106 0 l 67 0 q 56 15 51 0 l 365 961 q 382 972 369 972 l 418 972 q 435 961 431 972 l 747 15 l 749 10 q 736 0 749 0 l 708 0 m 189 260 q 190 255 188 257 q 194 253 192 253 l 607 253 q 612 255 610 253 q 613 260 614 257 l 404 896 q 400 899 403 899 q 396 896 397 899 l 189 260 m 293 1126 q 255 1140 269 1126 q 240 1176 240 1154 q 256 1210 240 1196 q 293 1225 271 1225 q 328 1210 314 1225 q 342 1176 342 1196 q 328 1140 342 1154 q 293 1126 314 1126 m 511 1126 q 474 1140 489 1126 q 460 1176 460 1154 q 474 1210 460 1196 q 511 1225 489 1225 q 547 1211 532 1225 q 561 1176 561 1197 q 547 1140 561 1154 q 511 1126 533 1126 z "},"À":{"ha":803,"x_min":54,"x_max":749,"o":"m 708 0 q 692 11 696 0 l 629 203 q 624 207 628 207 l 176 207 q 171 203 172 207 l 110 11 q 93 0 106 0 l 67 0 q 56 15 51 0 l 365 961 q 382 972 369 972 l 418 972 q 435 961 431 972 l 747 15 l 749 10 q 736 0 749 0 l 708 0 m 189 260 q 190 255 188 257 q 194 253 192 253 l 607 253 q 612 255 610 253 q 613 260 614 257 l 404 896 q 400 899 403 899 q 396 896 397 899 l 189 260 m 411 1096 q 414 1088 414 1090 q 401 1079 414 1079 l 382 1079 q 365 1089 372 1079 l 274 1243 q 271 1251 271 1249 q 283 1260 271 1260 l 310 1260 q 326 1250 322 1260 l 411 1096 z "},"Ā":{"ha":803,"x_min":54,"x_max":749,"o":"m 708 0 q 692 11 696 0 l 629 203 q 624 207 628 207 l 176 207 q 171 203 172 207 l 110 11 q 93 0 106 0 l 67 0 q 56 15 51 0 l 365 961 q 382 972 369 972 l 418 972 q 435 961 431 972 l 747 15 l 749 10 q 736 0 749 0 l 708 0 m 189 260 q 190 255 188 257 q 194 253 192 253 l 607 253 q 612 255 610 253 q 613 260 614 257 l 404 896 q 400 899 403 899 q 396 896 397 899 l 189 260 m 236 1110 q 222 1124 222 1110 l 222 1140 q 236 1154 222 1154 l 565 1154 q 579 1140 579 1154 l 579 1124 q 565 1110 579 1110 l 236 1110 z "},"Ą":{"ha":849,"x_min":54,"x_max":789,"o":"m 708 0 q 692 11 696 0 l 629 203 q 624 207 628 207 l 176 207 q 171 203 172 207 l 110 11 q 93 0 106 0 l 67 0 q 56 15 51 0 l 365 961 q 382 972 369 972 l 418 972 q 435 961 431 972 l 747 15 l 749 10 q 736 0 749 0 l 708 0 m 189 260 q 190 255 188 257 q 194 253 192 253 l 607 253 q 612 255 610 253 q 613 260 614 257 l 404 896 q 400 899 403 899 q 396 896 397 899 l 189 260 m 789 -237 q 778 -250 789 -249 q 733 -254 757 -254 q 659 -235 690 -254 q 618 -174 628 -217 q 615 -144 615 -154 q 699 -6 615 -69 q 717 0 706 0 l 725 0 q 737 -6 735 0 q 732 -17 739 -11 q 661 -140 661 -82 q 681 -197 661 -179 q 735 -215 701 -215 q 768 -211 751 -215 l 772 -211 q 786 -222 782 -211 l 789 -233 l 789 -237 z "},"Å":{"ha":803,"x_min":54,"x_max":749,"o":"m 708 0 q 692 11 696 0 l 629 203 q 624 207 628 207 l 176 207 q 171 203 172 207 l 110 11 q 93 0 106 0 l 67 0 q 56 15 51 0 l 365 961 q 382 972 369 972 l 418 972 q 435 961 431 972 l 747 15 l 749 10 q 736 0 749 0 l 708 0 m 189 260 q 190 255 188 257 q 194 253 192 253 l 607 253 q 612 255 610 253 q 613 260 614 257 l 404 896 q 400 899 403 899 q 396 896 397 899 l 189 260 m 400 1071 q 301 1111 342 1071 q 260 1208 260 1151 q 301 1306 260 1265 q 400 1346 342 1346 q 499 1306 458 1346 q 540 1208 540 1265 q 499 1111 540 1151 q 400 1071 458 1071 m 400 1108 q 472 1138 442 1108 q 501 1208 501 1167 q 472 1279 501 1250 q 400 1308 442 1308 q 328 1279 358 1308 q 299 1208 299 1250 q 328 1138 299 1167 q 400 1108 358 1108 z "},"Ã":{"ha":803,"x_min":54,"x_max":749,"o":"m 708 0 q 692 11 696 0 l 629 203 q 624 207 628 207 l 176 207 q 171 203 172 207 l 110 11 q 93 0 106 0 l 67 0 q 56 15 51 0 l 365 961 q 382 972 369 972 l 418 972 q 435 961 431 972 l 747 15 l 749 10 q 736 0 749 0 l 708 0 m 189 260 q 190 255 188 257 q 194 253 192 253 l 607 253 q 612 255 610 253 q 613 260 614 257 l 404 896 q 400 899 403 899 q 396 896 397 899 l 189 260 m 488 1108 q 445 1117 464 1108 q 406 1142 426 1126 q 370 1165 383 1158 q 339 1171 357 1171 q 299 1163 315 1171 q 265 1132 283 1156 q 246 1128 257 1121 l 236 1135 q 232 1154 226 1143 q 338 1215 272 1215 q 376 1208 360 1215 q 419 1183 392 1200 q 457 1160 442 1168 q 488 1153 472 1153 q 527 1162 510 1153 q 563 1196 544 1171 q 581 1200 569 1207 l 589 1196 q 596 1183 596 1192 q 590 1168 596 1175 q 542 1123 569 1138 q 488 1108 514 1108 z "},"Æ":{"ha":1254,"x_min":54,"x_max":1161,"o":"m 1161 938 q 1147 924 1161 924 l 661 924 q 656 918 656 924 l 656 518 q 661 513 656 513 l 996 513 q 1010 499 1010 513 l 1010 476 q 996 463 1010 463 l 661 463 q 656 457 656 463 l 656 54 q 661 49 656 49 l 1147 49 q 1161 35 1161 49 l 1161 14 q 1147 0 1161 0 l 615 0 q 601 14 601 0 l 601 201 q 596 207 601 207 l 225 207 q 218 203 221 207 l 117 10 q 100 0 113 0 l 69 0 q 58 5 61 0 q 58 17 54 10 l 565 963 q 582 972 569 972 l 1147 972 q 1161 958 1161 972 l 1161 938 m 250 260 q 253 253 247 253 l 596 253 q 601 258 601 253 l 601 907 q 599 911 601 911 q 594 908 597 911 l 250 260 z "},"B":{"ha":875,"x_min":151,"x_max":761,"o":"m 603 506 q 599 503 599 504 q 603 500 599 501 q 719 409 678 471 q 761 260 761 347 q 686 70 761 140 q 489 0 611 0 l 165 0 q 151 14 151 0 l 151 958 q 165 972 151 972 l 479 972 q 676 905 603 972 q 750 724 750 838 q 712 590 750 646 q 603 506 674 535 m 211 924 q 206 918 206 924 l 206 532 q 211 526 206 526 l 479 526 q 638 580 578 526 q 697 721 697 633 q 638 868 697 813 q 479 924 578 924 l 211 924 m 489 50 q 647 109 586 50 q 707 263 707 168 q 645 419 707 361 q 481 478 583 478 l 211 478 q 206 472 206 478 l 206 56 q 211 50 206 50 l 489 50 z "},"C":{"ha":842,"x_min":117,"x_max":738,"o":"m 428 -12 q 265 24 335 -12 q 156 128 194 61 q 117 282 117 194 l 117 692 q 156 844 117 778 q 265 947 194 911 q 428 983 335 983 q 590 947 519 983 q 699 845 660 911 q 738 693 738 779 l 738 692 q 724 678 738 678 l 697 676 q 683 685 683 676 l 683 693 q 613 868 683 801 q 428 935 542 935 q 241 868 311 935 q 171 693 171 801 l 171 279 q 241 103 171 171 q 428 36 311 36 q 613 103 542 36 q 683 279 683 171 l 683 282 q 697 294 683 294 l 724 293 q 738 288 738 293 l 738 281 q 699 128 738 194 q 590 24 660 61 q 428 -12 519 -12 z "},"Ć":{"ha":842,"x_min":117,"x_max":738,"o":"m 428 -12 q 265 24 335 -12 q 156 128 194 61 q 117 282 117 194 l 117 692 q 156 844 117 778 q 265 947 194 911 q 428 983 335 983 q 590 947 519 983 q 699 845 660 911 q 738 693 738 779 l 738 692 q 724 678 738 678 l 697 676 q 683 685 683 676 l 683 693 q 613 868 683 801 q 428 935 542 935 q 241 868 311 935 q 171 693 171 801 l 171 279 q 241 103 171 171 q 428 36 311 36 q 613 103 542 36 q 683 279 683 171 l 683 282 q 697 294 683 294 l 724 293 q 738 288 738 293 l 738 281 q 699 128 738 194 q 590 24 660 61 q 428 -12 519 -12 m 397 1090 q 386 1095 389 1090 q 388 1107 383 1100 l 472 1261 q 489 1271 476 1271 l 515 1271 q 526 1266 524 1271 q 525 1254 529 1261 l 433 1100 q 417 1090 426 1090 l 397 1090 z "},"Č":{"ha":842,"x_min":117,"x_max":738,"o":"m 428 -12 q 265 24 335 -12 q 156 128 194 61 q 117 282 117 194 l 117 692 q 156 844 117 778 q 265 947 194 911 q 428 983 335 983 q 590 947 519 983 q 699 845 660 911 q 738 693 738 779 l 738 692 q 724 678 738 678 l 697 676 q 683 685 683 676 l 683 693 q 613 868 683 801 q 428 935 542 935 q 241 868 311 935 q 171 693 171 801 l 171 279 q 241 103 171 171 q 428 36 311 36 q 613 103 542 36 q 683 279 683 171 l 683 282 q 697 294 683 294 l 724 293 q 738 288 738 293 l 738 281 q 699 128 738 194 q 590 24 660 61 q 428 -12 519 -12 m 411 1072 q 393 1081 399 1072 l 279 1231 q 276 1239 276 1233 q 279 1244 276 1242 q 288 1247 282 1247 l 308 1247 q 326 1239 321 1247 l 424 1113 q 428 1110 425 1110 q 432 1113 431 1110 l 526 1239 q 544 1247 532 1247 l 565 1247 q 576 1242 574 1247 q 574 1231 579 1238 l 458 1081 q 440 1072 453 1072 l 411 1072 z "},"Ç":{"ha":842,"x_min":117,"x_max":738,"o":"m 738 686 q 733 681 738 683 q 724 678 729 678 l 697 676 q 683 685 683 676 l 683 693 q 613 868 683 801 q 428 935 542 935 q 241 868 311 935 q 171 693 171 801 l 171 279 q 241 103 171 171 q 428 36 311 36 q 613 103 542 36 q 683 279 683 171 l 683 282 q 697 294 683 294 l 724 293 q 738 288 738 293 l 738 281 q 699 128 738 194 q 590 24 660 61 q 428 -12 519 -12 l 410 -12 q 406 -15 406 -12 q 408 -18 406 -17 q 482 -150 482 -81 q 479 -179 482 -160 q 438 -241 469 -222 q 364 -260 407 -260 q 319 -256 340 -260 q 308 -239 306 -254 l 311 -228 q 329 -217 315 -215 q 361 -221 346 -221 q 415 -203 394 -221 q 436 -146 436 -185 q 365 -22 436 -87 q 349 -6 346 -6 l 329 0 q 174 100 231 25 q 117 282 117 175 l 117 692 q 156 844 117 778 q 265 947 194 911 q 428 983 335 983 q 590 947 519 983 q 699 845 660 911 q 738 693 738 779 l 738 686 z "},"Ċ":{"ha":842,"x_min":117,"x_max":738,"o":"m 428 -12 q 265 24 335 -12 q 156 128 194 61 q 117 282 117 194 l 117 692 q 156 844 117 778 q 265 947 194 911 q 428 983 335 983 q 590 947 519 983 q 699 845 660 911 q 738 693 738 779 l 738 692 q 724 678 738 678 l 697 676 q 683 685 683 676 l 683 693 q 613 868 683 801 q 428 935 542 935 q 241 868 311 935 q 171 693 171 801 l 171 279 q 241 103 171 171 q 428 36 311 36 q 613 103 542 36 q 683 279 683 171 l 683 282 q 697 294 683 294 l 724 293 q 738 288 738 293 l 738 281 q 699 128 738 194 q 590 24 660 61 q 428 -12 519 -12 m 428 1113 q 391 1126 406 1113 q 376 1161 376 1140 q 391 1194 376 1181 q 428 1208 406 1208 q 463 1194 449 1208 q 476 1161 476 1181 q 463 1126 476 1140 q 428 1113 449 1113 z "},"D":{"ha":858,"x_min":151,"x_max":761,"o":"m 165 0 q 151 14 151 0 l 151 958 q 165 972 151 972 l 483 972 q 686 903 611 972 q 761 715 761 835 l 761 257 q 686 69 761 138 q 483 0 611 0 l 165 0 m 206 54 q 211 49 206 49 l 486 49 q 648 106 589 49 q 707 260 707 163 l 707 711 q 648 867 707 810 q 486 924 589 924 l 211 924 q 206 918 206 924 l 206 54 z "},"Ð":{"ha":958,"x_min":151,"x_max":861,"o":"m 583 972 q 786 903 711 972 q 861 715 861 835 l 861 257 q 786 69 861 138 q 583 0 711 0 l 265 0 q 251 14 251 0 l 251 481 q 246 486 251 486 l 165 486 q 151 500 151 486 l 151 517 q 165 531 151 531 l 246 531 q 251 536 251 531 l 251 958 q 265 972 251 972 l 583 972 m 807 711 q 748 867 807 810 q 586 924 689 924 l 311 924 q 306 918 306 924 l 306 536 q 311 531 306 531 l 499 531 q 513 517 513 531 l 513 500 q 499 486 513 486 l 311 486 q 306 481 306 486 l 306 54 q 311 49 306 49 l 586 49 q 748 106 689 49 q 807 260 807 163 l 807 711 z "},"Ď":{"ha":858,"x_min":151,"x_max":761,"o":"m 165 0 q 151 14 151 0 l 151 958 q 165 972 151 972 l 483 972 q 686 903 611 972 q 761 715 761 835 l 761 257 q 686 69 761 138 q 483 0 611 0 l 165 0 m 206 54 q 211 49 206 49 l 486 49 q 648 106 589 49 q 707 260 707 163 l 707 711 q 648 867 707 810 q 486 924 589 924 l 211 924 q 206 918 206 924 l 206 54 m 421 1057 q 403 1065 408 1057 l 289 1214 q 286 1222 286 1217 q 289 1228 286 1225 q 297 1231 292 1231 l 318 1231 q 336 1222 331 1231 l 433 1096 q 438 1093 435 1093 q 442 1096 440 1093 l 536 1222 q 554 1231 542 1231 l 575 1231 q 586 1225 583 1231 q 583 1214 589 1219 l 468 1065 q 450 1057 463 1057 l 421 1057 z "},"Đ":{"ha":958,"x_min":151,"x_max":861,"o":"m 583 972 q 786 903 711 972 q 861 715 861 835 l 861 257 q 786 69 861 138 q 583 0 711 0 l 265 0 q 251 14 251 0 l 251 481 q 246 486 251 486 l 165 486 q 151 500 151 486 l 151 517 q 165 531 151 531 l 246 531 q 251 536 251 531 l 251 958 q 265 972 251 972 l 583 972 m 807 711 q 748 867 807 810 q 586 924 689 924 l 311 924 q 306 918 306 924 l 306 536 q 311 531 306 531 l 499 531 q 513 517 513 531 l 513 500 q 499 486 513 486 l 311 486 q 306 481 306 486 l 306 54 q 311 49 306 49 l 586 49 q 748 106 689 49 q 807 260 807 163 l 807 711 z "},"E":{"ha":854,"x_min":151,"x_max":761,"o":"m 761 938 q 747 924 761 924 l 211 924 q 206 918 206 924 l 206 518 q 211 513 206 513 l 594 513 q 608 499 608 513 l 608 476 q 594 463 608 463 l 211 463 q 206 457 206 463 l 206 54 q 211 49 206 49 l 747 49 q 761 35 761 49 l 761 14 q 747 0 761 0 l 165 0 q 151 14 151 0 l 151 958 q 165 972 151 972 l 747 972 q 761 958 761 972 l 761 938 z "},"É":{"ha":854,"x_min":151,"x_max":761,"o":"m 761 938 q 747 924 761 924 l 211 924 q 206 918 206 924 l 206 518 q 211 513 206 513 l 594 513 q 608 499 608 513 l 608 476 q 594 463 608 463 l 211 463 q 206 457 206 463 l 206 54 q 211 49 206 49 l 747 49 q 761 35 761 49 l 761 14 q 747 0 761 0 l 165 0 q 151 14 151 0 l 151 958 q 165 972 151 972 l 747 972 q 761 958 761 972 l 761 938 m 418 1093 q 407 1098 410 1093 q 408 1110 404 1103 l 493 1264 q 510 1274 497 1274 l 536 1274 q 547 1269 544 1274 q 546 1257 550 1264 l 454 1103 q 438 1093 447 1093 l 418 1093 z "},"Ě":{"ha":854,"x_min":151,"x_max":761,"o":"m 761 938 q 747 924 761 924 l 211 924 q 206 918 206 924 l 206 518 q 211 513 206 513 l 594 513 q 608 499 608 513 l 608 476 q 594 463 608 463 l 211 463 q 206 457 206 463 l 206 54 q 211 49 206 49 l 747 49 q 761 35 761 49 l 761 14 q 747 0 761 0 l 165 0 q 151 14 151 0 l 151 958 q 165 972 151 972 l 747 972 q 761 958 761 972 l 761 938 m 432 1075 q 414 1083 419 1075 l 300 1233 q 297 1242 297 1236 q 300 1247 297 1244 q 308 1250 303 1250 l 329 1250 q 347 1242 342 1250 l 444 1115 q 449 1113 446 1113 q 453 1115 451 1113 l 547 1242 q 565 1250 553 1250 l 586 1250 q 597 1245 594 1250 q 594 1233 600 1240 l 479 1083 q 461 1075 474 1075 l 432 1075 z "},"Ȩ":{"ha":854,"x_min":151,"x_max":761,"o":"m 761 938 q 747 924 761 924 l 211 924 q 206 918 206 924 l 206 518 q 211 513 206 513 l 594 513 q 608 499 608 513 l 608 476 q 594 463 608 463 l 211 463 q 206 457 206 463 l 206 54 q 211 49 206 49 l 747 49 q 761 35 761 49 l 761 14 q 747 0 761 0 l 486 0 q 482 -3 483 0 q 483 -7 481 -6 q 557 -137 557 -67 q 554 -167 557 -147 q 513 -228 544 -210 q 439 -247 482 -247 q 394 -243 415 -247 q 383 -226 381 -242 l 386 -215 q 404 -204 390 -203 q 436 -208 421 -208 q 490 -190 469 -208 q 511 -133 511 -171 q 432 -3 511 -72 q 425 0 431 0 l 165 0 q 151 14 151 0 l 151 958 q 165 972 151 972 l 747 972 q 761 958 761 972 l 761 938 z "},"Ê":{"ha":854,"x_min":151,"x_max":761,"o":"m 761 938 q 747 924 761 924 l 211 924 q 206 918 206 924 l 206 518 q 211 513 206 513 l 594 513 q 608 499 608 513 l 608 476 q 594 463 608 463 l 211 463 q 206 457 206 463 l 206 54 q 211 49 206 49 l 747 49 q 761 35 761 49 l 761 14 q 747 0 761 0 l 165 0 q 151 14 151 0 l 151 958 q 165 972 151 972 l 747 972 q 761 958 761 972 l 761 938 m 308 1081 q 297 1086 300 1081 q 300 1097 294 1092 l 415 1247 q 433 1256 421 1256 l 463 1256 q 481 1247 475 1256 l 596 1097 q 599 1089 599 1094 q 596 1083 599 1086 q 588 1081 593 1081 l 567 1081 q 549 1089 554 1081 l 453 1215 q 449 1218 451 1218 q 444 1215 446 1218 l 347 1089 q 329 1081 342 1081 l 308 1081 z "},"Ë":{"ha":854,"x_min":151,"x_max":761,"o":"m 761 938 q 747 924 761 924 l 211 924 q 206 918 206 924 l 206 518 q 211 513 206 513 l 594 513 q 608 499 608 513 l 608 476 q 594 463 608 463 l 211 463 q 206 457 206 463 l 206 54 q 211 49 206 49 l 747 49 q 761 35 761 49 l 761 14 q 747 0 761 0 l 165 0 q 151 14 151 0 l 151 958 q 165 972 151 972 l 747 972 q 761 958 761 972 l 761 938 m 342 1140 q 303 1154 318 1140 q 289 1190 289 1168 q 304 1224 289 1210 q 342 1239 319 1239 q 376 1224 363 1239 q 390 1190 390 1210 q 376 1154 390 1168 q 342 1140 363 1140 m 560 1140 q 523 1154 538 1140 q 508 1190 508 1168 q 523 1224 508 1210 q 560 1239 538 1239 q 595 1225 581 1239 q 610 1190 610 1211 q 596 1154 610 1168 q 560 1140 582 1140 z "},"Ė":{"ha":854,"x_min":151,"x_max":761,"o":"m 761 938 q 747 924 761 924 l 211 924 q 206 918 206 924 l 206 518 q 211 513 206 513 l 594 513 q 608 499 608 513 l 608 476 q 594 463 608 463 l 211 463 q 206 457 206 463 l 206 54 q 211 49 206 49 l 747 49 q 761 35 761 49 l 761 14 q 747 0 761 0 l 165 0 q 151 14 151 0 l 151 958 q 165 972 151 972 l 747 972 q 761 958 761 972 l 761 938 m 449 1115 q 412 1129 426 1115 q 397 1164 397 1143 q 412 1197 397 1183 q 449 1211 426 1211 q 483 1197 469 1211 q 497 1164 497 1183 q 483 1129 497 1143 q 449 1115 469 1115 z "},"È":{"ha":854,"x_min":151,"x_max":761,"o":"m 761 938 q 747 924 761 924 l 211 924 q 206 918 206 924 l 206 518 q 211 513 206 513 l 594 513 q 608 499 608 513 l 608 476 q 594 463 608 463 l 211 463 q 206 457 206 463 l 206 54 q 211 49 206 49 l 747 49 q 761 35 761 49 l 761 14 q 747 0 761 0 l 165 0 q 151 14 151 0 l 151 958 q 165 972 151 972 l 747 972 q 761 958 761 972 l 761 938 m 460 1110 q 463 1101 463 1104 q 450 1093 463 1093 l 431 1093 q 414 1103 421 1093 l 322 1257 q 319 1265 319 1263 q 332 1274 319 1274 l 358 1274 q 375 1264 371 1274 l 460 1110 z "},"Ē":{"ha":854,"x_min":151,"x_max":761,"o":"m 761 938 q 747 924 761 924 l 211 924 q 206 918 206 924 l 206 518 q 211 513 206 513 l 594 513 q 608 499 608 513 l 608 476 q 594 463 608 463 l 211 463 q 206 457 206 463 l 206 54 q 211 49 206 49 l 747 49 q 761 35 761 49 l 761 14 q 747 0 761 0 l 165 0 q 151 14 151 0 l 151 958 q 165 972 151 972 l 747 972 q 761 958 761 972 l 761 938 m 285 1124 q 271 1138 271 1124 l 271 1154 q 285 1168 271 1168 l 614 1168 q 628 1154 628 1168 l 628 1138 q 614 1124 628 1124 l 285 1124 z "},"Ę":{"ha":854,"x_min":151,"x_max":761,"o":"m 761 938 q 747 924 761 924 l 211 924 q 206 918 206 924 l 206 518 q 211 513 206 513 l 594 513 q 608 499 608 513 l 608 476 q 594 463 608 463 l 211 463 q 206 457 206 463 l 206 54 q 211 49 206 49 l 747 49 q 761 35 761 49 l 761 14 q 747 0 761 0 l 483 0 q 476 -3 479 0 q 397 -133 397 -72 q 418 -190 397 -171 q 472 -208 439 -208 q 504 -204 488 -208 l 508 -204 q 521 -215 518 -204 l 524 -226 l 525 -233 q 514 -243 525 -240 q 469 -247 493 -247 q 395 -228 426 -247 q 354 -167 364 -210 q 351 -137 351 -147 q 425 -7 351 -67 q 426 -3 428 -6 q 422 0 425 0 l 165 0 q 151 14 151 0 l 151 958 q 165 972 151 972 l 747 972 q 761 958 761 972 l 761 938 z "},"F":{"ha":794,"x_min":151,"x_max":760,"o":"m 760 938 q 746 924 760 924 l 211 924 q 206 918 206 924 l 206 518 q 211 513 206 513 l 593 513 q 607 499 607 513 l 607 476 q 593 463 607 463 l 211 463 q 206 457 206 463 l 206 14 q 192 0 206 0 l 165 0 q 151 14 151 0 l 151 958 q 165 972 151 972 l 746 972 q 760 958 760 972 l 760 938 z "},"G":{"ha":840,"x_min":117,"x_max":736,"o":"m 428 -11 q 265 25 335 -11 q 156 127 194 61 q 117 278 117 193 l 117 694 q 156 846 117 781 q 265 947 194 911 q 428 983 335 983 q 589 947 519 983 q 697 847 658 911 q 736 699 736 782 l 736 678 q 722 664 736 664 l 696 664 q 682 678 682 664 l 682 699 q 612 869 682 804 q 428 935 542 935 q 242 869 313 935 q 171 696 171 803 l 171 276 q 242 103 171 169 q 429 38 313 38 q 613 102 543 38 q 682 272 682 167 l 682 424 q 676 429 682 429 l 450 429 q 436 443 436 429 l 436 464 q 450 478 436 478 l 722 478 q 736 464 736 478 l 736 282 q 651 68 736 147 q 428 -11 567 -11 z "},"Ğ":{"ha":840,"x_min":117,"x_max":736,"o":"m 428 -11 q 265 25 335 -11 q 156 127 194 61 q 117 278 117 193 l 117 694 q 156 846 117 781 q 265 947 194 911 q 428 983 335 983 q 589 947 519 983 q 697 847 658 911 q 736 699 736 782 l 736 678 q 722 664 736 664 l 696 664 q 682 678 682 664 l 682 699 q 612 869 682 804 q 428 935 542 935 q 242 869 313 935 q 171 696 171 803 l 171 276 q 242 103 171 169 q 429 38 313 38 q 613 102 543 38 q 682 272 682 167 l 682 424 q 676 429 682 429 l 450 429 q 436 443 436 429 l 436 464 q 450 478 436 478 l 722 478 q 736 464 736 478 l 736 282 q 651 68 736 147 q 428 -11 567 -11 m 425 1067 q 330 1103 369 1067 q 285 1192 290 1139 l 285 1194 q 297 1206 285 1206 l 310 1206 q 325 1192 324 1206 q 358 1129 329 1154 q 425 1104 386 1104 q 493 1129 464 1104 q 526 1192 522 1154 q 542 1206 528 1206 l 554 1206 q 565 1201 561 1206 q 567 1192 568 1197 q 521 1103 561 1139 q 425 1067 481 1067 z "},"Ġ":{"ha":840,"x_min":117,"x_max":736,"o":"m 428 -11 q 265 25 335 -11 q 156 127 194 61 q 117 278 117 193 l 117 694 q 156 846 117 781 q 265 947 194 911 q 428 983 335 983 q 589 947 519 983 q 697 847 658 911 q 736 699 736 782 l 736 678 q 722 664 736 664 l 696 664 q 682 678 682 664 l 682 699 q 612 869 682 804 q 428 935 542 935 q 242 869 313 935 q 171 696 171 803 l 171 276 q 242 103 171 169 q 429 38 313 38 q 613 102 543 38 q 682 272 682 167 l 682 424 q 676 429 682 429 l 450 429 q 436 443 436 429 l 436 464 q 450 478 436 478 l 722 478 q 736 464 736 478 l 736 282 q 651 68 736 147 q 428 -11 567 -11 m 425 1113 q 388 1126 403 1113 q 374 1161 374 1140 q 388 1194 374 1181 q 425 1208 403 1208 q 460 1194 446 1208 q 474 1161 474 1181 q 460 1126 474 1140 q 425 1113 446 1113 z "},"H":{"ha":925,"x_min":151,"x_max":775,"o":"m 721 958 q 735 972 721 972 l 761 972 q 775 958 775 972 l 775 14 q 761 0 775 0 l 735 0 q 721 14 721 0 l 721 457 q 715 463 721 463 l 211 463 q 206 457 206 463 l 206 14 q 192 0 206 0 l 165 0 q 151 14 151 0 l 151 958 q 165 972 151 972 l 192 972 q 206 958 206 972 l 206 518 q 211 513 206 513 l 715 513 q 721 518 721 513 l 721 958 z "},"Ħ":{"ha":925,"x_min":64,"x_max":860,"o":"m 846 751 q 860 738 860 751 l 860 721 q 846 707 860 707 l 781 707 q 775 701 775 707 l 775 14 q 761 0 775 0 l 735 0 q 721 14 721 0 l 721 457 q 715 463 721 463 l 211 463 q 206 457 206 463 l 206 14 q 192 0 206 0 l 165 0 q 151 14 151 0 l 151 701 q 146 707 151 707 l 78 707 q 64 721 64 707 l 64 738 q 78 751 64 751 l 146 751 q 151 757 151 751 l 151 958 q 165 972 151 972 l 192 972 q 206 958 206 972 l 206 757 q 211 751 206 751 l 715 751 q 721 757 721 751 l 721 958 q 735 972 721 972 l 761 972 q 775 958 775 972 l 775 757 q 781 751 775 751 l 846 751 m 715 513 q 721 518 721 513 l 721 701 q 715 707 721 707 l 211 707 q 206 701 206 707 l 206 518 q 211 513 206 513 l 715 513 z "},"I":{"ha":357,"x_min":151,"x_max":206,"o":"m 165 0 q 151 14 151 0 l 151 958 q 165 972 151 972 l 192 972 q 206 958 206 972 l 206 14 q 192 0 206 0 l 165 0 z "},"Í":{"ha":357,"x_min":136,"x_max":279,"o":"m 165 0 q 151 14 151 0 l 151 958 q 165 972 151 972 l 192 972 q 206 958 206 972 l 206 14 q 192 0 206 0 l 165 0 m 149 1093 q 138 1098 140 1093 q 139 1110 135 1103 l 224 1264 q 240 1274 228 1274 l 267 1274 q 278 1269 275 1274 q 276 1257 281 1264 l 185 1103 q 168 1093 178 1093 l 149 1093 z "},"Î":{"ha":357,"x_min":28,"x_max":329,"o":"m 165 0 q 151 14 151 0 l 151 958 q 165 972 151 972 l 192 972 q 206 958 206 972 l 206 14 q 192 0 206 0 l 165 0 m 39 1081 q 28 1086 31 1081 q 31 1097 25 1092 l 146 1247 q 164 1256 151 1256 l 193 1256 q 211 1247 206 1256 l 326 1097 q 329 1089 329 1094 q 326 1083 329 1086 q 318 1081 324 1081 l 297 1081 q 279 1089 285 1081 l 183 1215 q 179 1218 182 1218 q 175 1215 176 1218 l 78 1089 q 60 1081 72 1081 l 39 1081 z "},"Ï":{"ha":357,"x_min":19,"x_max":340,"o":"m 165 0 q 151 14 151 0 l 151 958 q 165 972 151 972 l 192 972 q 206 958 206 972 l 206 14 q 192 0 206 0 l 165 0 m 72 1140 q 34 1154 49 1140 q 19 1190 19 1168 q 35 1224 19 1210 q 72 1239 50 1239 q 107 1224 93 1239 q 121 1190 121 1210 q 107 1154 121 1168 q 72 1140 93 1140 m 290 1140 q 253 1154 268 1140 q 239 1190 239 1168 q 253 1224 239 1210 q 290 1239 268 1239 q 326 1225 311 1239 q 340 1190 340 1211 q 326 1154 340 1168 q 290 1140 313 1140 z "},"İ":{"ha":357,"x_min":128,"x_max":228,"o":"m 165 0 q 151 14 151 0 l 151 958 q 165 972 151 972 l 192 972 q 206 958 206 972 l 206 14 q 192 0 206 0 l 165 0 m 179 1115 q 142 1129 157 1115 q 128 1164 128 1143 q 142 1197 128 1183 q 179 1211 157 1211 q 214 1197 200 1211 q 228 1164 228 1183 q 214 1129 228 1143 q 179 1115 200 1115 z "},"Ì":{"ha":357,"x_min":50,"x_max":206,"o":"m 165 0 q 151 14 151 0 l 151 958 q 165 972 151 972 l 192 972 q 206 958 206 972 l 206 14 q 192 0 206 0 l 165 0 m 190 1110 q 193 1101 193 1104 q 181 1093 193 1093 l 161 1093 q 144 1103 151 1093 l 53 1257 q 50 1265 50 1263 q 63 1274 50 1274 l 89 1274 q 106 1264 101 1274 l 190 1110 z "},"Ī":{"ha":357,"x_min":1,"x_max":358,"o":"m 165 0 q 151 14 151 0 l 151 958 q 165 972 151 972 l 192 972 q 206 958 206 972 l 206 14 q 192 0 206 0 l 165 0 m 15 1124 q 1 1138 1 1124 l 1 1154 q 15 1168 1 1168 l 344 1168 q 358 1154 358 1168 l 358 1138 q 344 1124 358 1124 l 15 1124 z "},"Į":{"ha":479,"x_min":151,"x_max":325,"o":"m 250 0 q 236 14 236 0 l 236 958 q 250 972 236 972 l 276 972 q 290 958 290 972 l 290 14 q 276 0 290 0 l 250 0 m 325 -237 q 314 -250 325 -249 q 269 -254 293 -254 q 195 -235 226 -254 q 154 -174 164 -217 q 151 -144 151 -154 q 235 -6 151 -69 q 253 0 242 0 l 261 0 q 273 -6 271 0 q 268 -17 275 -11 q 197 -140 197 -82 q 217 -197 197 -179 q 271 -215 238 -215 q 304 -211 288 -215 l 308 -211 q 322 -222 318 -211 l 325 -233 l 325 -237 z "},"J":{"ha":799,"x_min":47,"x_max":647,"o":"m 347 -11 q 190 24 258 -11 q 85 122 122 58 q 47 268 47 185 l 47 339 q 61 353 47 353 l 88 353 q 101 339 101 353 l 101 267 q 169 101 101 164 q 347 38 236 38 q 526 101 458 38 q 594 267 594 164 l 594 958 q 608 972 594 972 l 633 972 q 647 958 647 972 l 647 268 q 610 122 647 185 q 504 24 572 58 q 347 -11 436 -11 z "},"K":{"ha":839,"x_min":151,"x_max":794,"o":"m 165 0 q 151 14 151 0 l 151 958 q 165 972 151 972 l 192 972 q 206 958 206 972 l 206 453 q 208 449 206 450 q 213 450 210 447 l 704 965 q 721 972 711 972 l 750 972 q 761 967 758 972 q 758 956 764 963 l 406 576 q 406 568 403 574 l 792 17 q 794 8 794 14 q 792 3 794 6 q 783 0 789 0 l 750 0 q 733 8 739 0 l 368 528 q 364 531 367 531 q 360 529 361 531 l 208 376 q 206 369 206 374 l 206 14 q 192 0 206 0 l 165 0 z "},"L":{"ha":788,"x_min":151,"x_max":729,"o":"m 165 0 q 151 14 151 0 l 151 958 q 165 972 151 972 l 192 972 q 206 958 206 972 l 206 54 q 211 49 206 49 l 715 49 q 729 35 729 49 l 729 14 q 715 0 729 0 l 165 0 z "},"Ĺ":{"ha":788,"x_min":135,"x_max":729,"o":"m 165 0 q 151 14 151 0 l 151 958 q 165 972 151 972 l 192 972 q 206 958 206 972 l 206 54 q 211 49 206 49 l 715 49 q 729 35 729 49 l 729 14 q 715 0 729 0 l 165 0 m 147 1079 q 136 1084 139 1079 q 138 1096 133 1089 l 222 1250 q 239 1260 226 1260 l 265 1260 q 276 1255 274 1260 q 275 1243 279 1250 l 183 1089 q 167 1079 176 1079 l 147 1079 z "},"Ľ":{"ha":788,"x_min":26,"x_max":729,"o":"m 165 0 q 151 14 151 0 l 151 958 q 165 972 151 972 l 192 972 q 206 958 206 972 l 206 54 q 211 49 206 49 l 715 49 q 729 35 729 49 l 729 14 q 715 0 729 0 l 165 0 m 161 1050 q 143 1058 149 1050 l 29 1207 q 26 1215 26 1210 q 29 1221 26 1218 q 38 1224 32 1224 l 58 1224 q 76 1215 71 1224 l 174 1089 q 178 1086 175 1086 q 182 1089 181 1086 l 276 1215 q 294 1224 282 1224 l 315 1224 q 326 1218 324 1224 q 324 1207 329 1213 l 208 1058 q 190 1050 203 1050 l 161 1050 z "},"Ļ":{"ha":788,"x_min":151,"x_max":729,"o":"m 165 0 q 151 14 151 0 l 151 958 q 165 972 151 972 l 192 972 q 206 958 206 972 l 206 54 q 211 49 206 49 l 715 49 q 729 35 729 49 l 729 14 q 715 0 729 0 l 165 0 z "},"Ł":{"ha":788,"x_min":-46,"x_max":729,"o":"m 206 54 q 211 49 206 49 l 715 49 q 729 35 729 49 l 729 14 q 715 0 729 0 l 165 0 q 151 14 151 0 l 151 369 q 149 374 151 372 q 144 374 146 375 l -12 263 q -22 258 -17 258 q -32 265 -28 258 l -43 281 q -46 290 -46 285 q -40 300 -46 296 l 147 433 q 151 440 151 438 l 151 958 q 165 972 151 972 l 192 972 q 206 958 206 972 l 206 483 q 208 479 206 481 q 213 479 211 478 l 549 719 q 557 722 551 722 q 568 717 564 722 l 581 700 q 583 690 583 696 q 578 681 583 685 l 210 419 q 206 413 206 415 l 206 54 z "},"M":{"ha":992,"x_min":151,"x_max":840,"o":"m 165 0 q 151 14 151 0 l 151 958 q 165 972 151 972 l 194 972 q 211 963 204 972 l 490 524 q 494 522 492 522 q 499 524 497 522 l 782 963 q 799 972 789 972 l 826 972 q 840 958 840 972 l 840 14 q 826 0 840 0 l 800 0 q 786 14 786 0 l 786 863 q 783 867 786 867 q 779 864 781 868 l 521 460 q 504 450 514 450 l 490 450 q 474 460 481 450 l 213 864 q 208 867 211 868 q 206 863 206 867 l 206 14 q 192 0 206 0 l 165 0 z "},"N":{"ha":944,"x_min":151,"x_max":794,"o":"m 165 0 q 151 14 151 0 l 151 958 q 165 972 151 972 l 193 972 q 210 963 203 972 l 733 115 q 738 112 735 111 q 740 117 740 113 l 740 958 q 754 972 740 972 l 781 972 q 794 958 794 972 l 794 14 q 781 0 794 0 l 751 0 q 735 10 742 0 l 213 858 q 208 862 211 863 q 206 857 206 861 l 206 14 q 192 0 206 0 l 165 0 z "},"Ń":{"ha":944,"x_min":151,"x_max":794,"o":"m 165 0 q 151 14 151 0 l 151 958 q 165 972 151 972 l 193 972 q 210 963 203 972 l 733 115 q 738 112 735 111 q 740 117 740 113 l 740 958 q 754 972 740 972 l 781 972 q 794 958 794 972 l 794 14 q 781 0 794 0 l 751 0 q 735 10 742 0 l 213 858 q 208 862 211 863 q 206 857 206 861 l 206 14 q 192 0 206 0 l 165 0 m 443 1093 q 432 1098 435 1093 q 433 1110 429 1103 l 518 1264 q 535 1274 522 1274 l 561 1274 q 572 1269 569 1274 q 571 1257 575 1264 l 479 1103 q 463 1093 472 1093 l 443 1093 z "},"Ň":{"ha":944,"x_min":151,"x_max":794,"o":"m 165 0 q 151 14 151 0 l 151 958 q 165 972 151 972 l 193 972 q 210 963 203 972 l 733 115 q 738 112 735 111 q 740 117 740 113 l 740 958 q 754 972 740 972 l 781 972 q 794 958 794 972 l 794 14 q 781 0 794 0 l 751 0 q 735 10 742 0 l 213 858 q 208 862 211 863 q 206 857 206 861 l 206 14 q 192 0 206 0 l 165 0 m 457 1075 q 439 1083 444 1075 l 325 1233 q 322 1242 322 1236 q 325 1247 322 1244 q 333 1250 328 1250 l 354 1250 q 372 1242 367 1250 l 469 1115 q 474 1113 471 1113 q 478 1115 476 1113 l 572 1242 q 590 1250 578 1250 l 611 1250 q 622 1245 619 1250 q 619 1233 625 1240 l 504 1083 q 486 1075 499 1075 l 457 1075 z "},"Ŋ":{"ha":946,"x_min":151,"x_max":794,"o":"m 740 958 q 754 972 740 972 l 781 972 q 794 958 794 972 l 794 0 q 753 -149 794 -99 q 617 -201 713 -199 q 603 -187 603 -201 l 603 -167 q 617 -153 603 -153 q 711 -112 683 -150 q 740 -4 739 -75 q 739 3 740 1 l 213 858 q 208 862 211 863 q 206 857 206 861 l 206 14 q 192 0 206 0 l 165 0 q 151 14 151 0 l 151 958 q 165 972 151 972 l 193 972 q 210 963 203 972 l 733 115 q 738 112 735 111 q 740 117 740 113 l 740 958 z "},"Ñ":{"ha":944,"x_min":151,"x_max":794,"o":"m 165 0 q 151 14 151 0 l 151 958 q 165 972 151 972 l 193 972 q 210 963 203 972 l 733 115 q 738 112 735 111 q 740 117 740 113 l 740 958 q 754 972 740 972 l 781 972 q 794 958 794 972 l 794 14 q 781 0 794 0 l 751 0 q 735 10 742 0 l 213 858 q 208 862 211 863 q 206 857 206 861 l 206 14 q 192 0 206 0 l 165 0 m 561 1122 q 519 1131 538 1122 q 479 1156 500 1140 q 444 1178 457 1172 q 413 1185 431 1185 q 373 1177 389 1185 q 339 1146 357 1169 q 319 1142 331 1135 l 310 1149 q 306 1168 300 1157 q 411 1229 346 1229 q 449 1222 433 1229 q 493 1197 465 1214 q 531 1174 515 1182 q 561 1167 546 1167 q 601 1176 583 1167 q 636 1210 618 1185 q 654 1214 643 1221 l 663 1210 q 669 1197 669 1206 q 664 1182 669 1189 q 615 1137 643 1151 q 561 1122 588 1122 z "},"O":{"ha":864,"x_min":117,"x_max":747,"o":"m 431 -11 q 266 28 338 -11 q 156 137 194 67 q 117 299 117 207 l 117 672 q 156 835 117 764 q 266 944 194 906 q 431 983 338 983 q 597 944 525 983 q 708 835 668 906 q 747 672 747 764 l 747 299 q 708 137 747 207 q 597 28 668 67 q 431 -11 525 -11 m 431 38 q 621 108 549 38 q 693 296 693 179 l 693 674 q 621 863 693 792 q 431 935 549 935 q 242 863 314 935 q 171 674 171 792 l 171 296 q 242 108 171 179 q 431 38 314 38 z "},"Ó":{"ha":864,"x_min":117,"x_max":747,"o":"m 431 -11 q 266 28 338 -11 q 156 137 194 67 q 117 299 117 207 l 117 672 q 156 835 117 764 q 266 944 194 906 q 431 983 338 983 q 597 944 525 983 q 708 835 668 906 q 747 672 747 764 l 747 299 q 708 137 747 207 q 597 28 668 67 q 431 -11 525 -11 m 431 38 q 621 108 549 38 q 693 296 693 179 l 693 674 q 621 863 693 792 q 431 935 549 935 q 242 863 314 935 q 171 674 171 792 l 171 296 q 242 108 171 179 q 431 38 314 38 m 400 1090 q 389 1095 392 1090 q 390 1107 386 1100 l 475 1261 q 492 1271 479 1271 l 518 1271 q 529 1266 526 1271 q 528 1254 532 1261 l 436 1100 q 419 1090 429 1090 l 400 1090 z "},"Ô":{"ha":864,"x_min":117,"x_max":747,"o":"m 431 -11 q 266 28 338 -11 q 156 137 194 67 q 117 299 117 207 l 117 672 q 156 835 117 764 q 266 944 194 906 q 431 983 338 983 q 597 944 525 983 q 708 835 668 906 q 747 672 747 764 l 747 299 q 708 137 747 207 q 597 28 668 67 q 431 -11 525 -11 m 431 38 q 621 108 549 38 q 693 296 693 179 l 693 674 q 621 863 693 792 q 431 935 549 935 q 242 863 314 935 q 171 674 171 792 l 171 296 q 242 108 171 179 q 431 38 314 38 m 290 1078 q 279 1083 282 1078 q 282 1094 276 1089 l 397 1244 q 415 1253 403 1253 l 444 1253 q 463 1244 457 1253 l 578 1094 q 581 1086 581 1092 q 578 1081 581 1083 q 569 1078 575 1078 l 549 1078 q 531 1086 536 1078 l 435 1213 q 431 1215 433 1215 q 426 1213 428 1215 l 329 1086 q 311 1078 324 1078 l 290 1078 z "},"Ö":{"ha":864,"x_min":117,"x_max":747,"o":"m 431 -11 q 266 28 338 -11 q 156 137 194 67 q 117 299 117 207 l 117 672 q 156 835 117 764 q 266 944 194 906 q 431 983 338 983 q 597 944 525 983 q 708 835 668 906 q 747 672 747 764 l 747 299 q 708 137 747 207 q 597 28 668 67 q 431 -11 525 -11 m 431 38 q 621 108 549 38 q 693 296 693 179 l 693 674 q 621 863 693 792 q 431 935 549 935 q 242 863 314 935 q 171 674 171 792 l 171 296 q 242 108 171 179 q 431 38 314 38 m 324 1138 q 285 1151 300 1138 q 271 1188 271 1165 q 286 1222 271 1207 q 324 1236 301 1236 q 358 1222 344 1236 q 372 1188 372 1207 q 358 1151 372 1165 q 324 1138 344 1138 m 542 1138 q 505 1151 519 1138 q 490 1188 490 1165 q 505 1222 490 1207 q 542 1236 519 1236 q 577 1222 563 1236 q 592 1188 592 1208 q 578 1151 592 1165 q 542 1138 564 1138 z "},"Ò":{"ha":864,"x_min":117,"x_max":747,"o":"m 431 -11 q 266 28 338 -11 q 156 137 194 67 q 117 299 117 207 l 117 672 q 156 835 117 764 q 266 944 194 906 q 431 983 338 983 q 597 944 525 983 q 708 835 668 906 q 747 672 747 764 l 747 299 q 708 137 747 207 q 597 28 668 67 q 431 -11 525 -11 m 431 38 q 621 108 549 38 q 693 296 693 179 l 693 674 q 621 863 693 792 q 431 935 549 935 q 242 863 314 935 q 171 674 171 792 l 171 296 q 242 108 171 179 q 431 38 314 38 m 442 1107 q 444 1099 444 1101 q 432 1090 444 1090 l 413 1090 q 396 1100 403 1090 l 304 1254 q 301 1263 301 1260 q 314 1271 301 1271 l 340 1271 q 357 1261 353 1271 l 442 1107 z "},"Ő":{"ha":864,"x_min":117,"x_max":747,"o":"m 431 -11 q 266 28 338 -11 q 156 137 194 67 q 117 299 117 207 l 117 672 q 156 835 117 764 q 266 944 194 906 q 431 983 338 983 q 597 944 525 983 q 708 835 668 906 q 747 672 747 764 l 747 299 q 708 137 747 207 q 597 28 668 67 q 431 -11 525 -11 m 431 38 q 621 108 549 38 q 693 296 693 179 l 693 674 q 621 863 693 792 q 431 935 549 935 q 242 863 314 935 q 171 674 171 792 l 171 296 q 242 108 171 179 q 431 38 314 38 m 306 1088 q 294 1092 297 1088 q 294 1104 290 1097 l 378 1258 q 394 1268 382 1268 l 418 1268 q 429 1263 426 1268 q 428 1251 432 1258 l 342 1097 q 325 1088 335 1088 l 306 1088 m 521 1088 q 510 1092 513 1088 q 511 1104 507 1097 l 596 1258 q 613 1268 600 1268 l 635 1268 q 646 1263 643 1268 q 644 1251 649 1258 l 557 1097 q 540 1088 550 1088 l 521 1088 z "},"Ō":{"ha":864,"x_min":117,"x_max":747,"o":"m 431 -11 q 266 28 338 -11 q 156 137 194 67 q 117 299 117 207 l 117 672 q 156 835 117 764 q 266 944 194 906 q 431 983 338 983 q 597 944 525 983 q 708 835 668 906 q 747 672 747 764 l 747 299 q 708 137 747 207 q 597 28 668 67 q 431 -11 525 -11 m 431 38 q 621 108 549 38 q 693 296 693 179 l 693 674 q 621 863 693 792 q 431 935 549 935 q 242 863 314 935 q 171 674 171 792 l 171 296 q 242 108 171 179 q 431 38 314 38 m 267 1121 q 253 1135 253 1121 l 253 1151 q 267 1165 253 1165 l 596 1165 q 610 1151 610 1165 l 610 1135 q 596 1121 610 1121 l 267 1121 z "},"Ø":{"ha":867,"x_min":119,"x_max":750,"o":"m 629 932 q 631 925 628 926 q 719 819 688 883 q 750 672 750 754 l 750 299 q 710 137 750 207 q 599 28 671 67 q 433 -11 528 -11 q 240 44 322 -11 q 232 43 235 49 l 197 -35 q 182 -46 193 -46 l 161 -46 q 151 -41 154 -46 q 150 -29 147 -36 l 199 76 q 197 83 200 81 q 119 299 119 168 l 119 672 q 158 835 119 764 q 269 944 197 906 q 433 983 340 983 q 582 953 519 983 q 590 956 589 950 l 618 1018 q 633 1029 622 1029 l 654 1029 q 665 1024 661 1029 q 665 1013 668 1019 l 629 932 m 174 296 q 219 140 174 206 q 226 140 224 133 l 564 899 q 563 907 567 906 q 433 935 504 935 q 245 863 317 935 q 174 674 174 792 l 174 296 m 696 674 q 674 789 696 738 q 611 875 651 840 q 603 874 606 879 l 258 101 q 261 94 257 97 q 433 38 329 38 q 624 108 551 38 q 696 296 696 179 l 696 674 z "},"Õ":{"ha":864,"x_min":117,"x_max":747,"o":"m 431 -11 q 266 28 338 -11 q 156 137 194 67 q 117 299 117 207 l 117 672 q 156 835 117 764 q 266 944 194 906 q 431 983 338 983 q 597 944 525 983 q 708 835 668 906 q 747 672 747 764 l 747 299 q 708 137 747 207 q 597 28 668 67 q 431 -11 525 -11 m 431 38 q 621 108 549 38 q 693 296 693 179 l 693 674 q 621 863 693 792 q 431 935 549 935 q 242 863 314 935 q 171 674 171 792 l 171 296 q 242 108 171 179 q 431 38 314 38 m 518 1119 q 476 1128 494 1119 q 436 1153 457 1138 q 401 1176 414 1169 q 369 1182 388 1182 q 330 1174 346 1182 q 296 1143 314 1167 q 276 1139 288 1132 l 267 1146 q 263 1165 257 1154 q 368 1226 303 1226 q 406 1219 390 1226 q 450 1194 422 1211 q 488 1172 472 1179 q 518 1164 503 1164 q 558 1173 540 1164 q 593 1207 575 1182 q 611 1211 600 1218 l 619 1207 q 626 1194 626 1203 q 621 1179 626 1186 q 572 1134 600 1149 q 518 1119 544 1119 z "},"Œ":{"ha":1271,"x_min":117,"x_max":1178,"o":"m 1178 938 q 1164 924 1178 924 l 703 924 q 697 918 697 924 l 697 518 q 703 513 697 513 l 1013 513 q 1026 499 1026 513 l 1026 476 q 1013 463 1026 463 l 703 463 q 697 457 697 463 l 697 54 q 703 49 697 49 l 1164 49 q 1178 35 1178 49 l 1178 14 q 1164 0 1178 0 l 657 0 q 643 14 643 0 l 643 104 q 640 108 643 107 q 636 107 638 110 q 536 20 597 51 q 399 -11 475 -11 q 252 26 317 -11 q 152 127 188 63 q 117 274 117 192 l 117 697 q 152 844 117 779 q 251 947 188 910 q 399 983 315 983 q 536 952 475 983 q 636 865 597 921 q 640 864 638 863 q 643 868 643 865 l 643 958 q 657 972 643 972 l 1164 972 q 1178 958 1178 972 l 1178 938 m 406 38 q 530 68 476 38 q 613 151 583 99 q 643 271 643 204 l 643 699 q 613 819 643 765 q 529 903 583 872 q 406 935 475 935 q 283 903 336 935 q 200 819 229 872 q 171 699 171 765 l 171 271 q 200 151 171 204 q 283 68 229 99 q 406 38 336 38 z "},"P":{"ha":818,"x_min":140,"x_max":761,"o":"m 506 975 q 691 903 621 975 q 761 715 761 832 q 690 528 761 599 q 504 458 619 458 l 200 458 q 194 453 194 458 l 194 14 q 181 0 194 0 l 154 0 q 140 14 140 0 l 140 961 q 154 975 140 975 l 506 975 m 503 506 q 651 563 594 506 q 707 714 707 621 q 651 867 707 810 q 503 925 594 925 l 200 925 q 194 919 194 925 l 194 511 q 200 506 194 506 l 503 506 z "},"Þ":{"ha":779,"x_min":140,"x_max":722,"o":"m 467 743 q 651 672 581 743 q 722 485 722 600 q 651 299 722 368 q 465 229 581 229 l 200 229 q 194 224 194 229 l 194 14 q 181 0 194 0 l 154 0 q 140 14 140 0 l 140 958 q 154 972 140 972 l 181 972 q 194 958 194 972 l 194 749 q 200 743 194 743 l 467 743 m 464 276 q 612 333 556 276 q 668 483 668 390 q 612 637 668 579 q 464 694 556 694 l 200 694 q 194 689 194 694 l 194 282 q 200 276 194 276 l 464 276 z "},"Q":{"ha":789,"x_min":92,"x_max":697,"o":"m 394 983 q 553 946 485 983 q 660 841 622 908 q 697 685 697 774 l 697 286 q 624 81 697 161 q 428 -10 551 1 q 422 -15 422 -10 l 422 -157 q 408 -171 422 -171 l 382 -171 q 368 -157 368 -171 l 368 -15 q 363 -10 368 -10 q 165 81 239 1 q 92 286 92 161 l 92 685 q 129 841 92 774 q 235 946 167 908 q 394 983 304 983 m 643 688 q 575 867 643 799 q 394 935 507 935 q 215 867 283 935 q 146 688 146 799 l 146 285 q 215 106 146 174 q 394 38 283 38 q 575 106 507 38 q 643 285 643 174 l 643 688 z "},"R":{"ha":849,"x_min":151,"x_max":771,"o":"m 735 0 q 718 10 722 0 l 499 463 q 493 467 497 467 l 211 467 q 206 461 206 467 l 206 14 q 192 0 206 0 l 165 0 q 151 14 151 0 l 151 961 q 165 975 151 975 l 506 975 q 690 904 619 975 q 760 718 760 833 q 705 553 760 619 q 557 471 650 486 q 553 464 550 468 l 769 17 q 771 10 771 14 q 760 0 771 0 l 735 0 m 211 925 q 206 919 206 925 l 206 519 q 211 514 206 514 l 504 514 q 650 571 594 514 q 706 718 706 628 q 650 868 706 811 q 504 925 594 925 l 211 925 z "},"Ŕ":{"ha":849,"x_min":151,"x_max":771,"o":"m 735 0 q 718 10 722 0 l 499 463 q 493 467 497 467 l 211 467 q 206 461 206 467 l 206 14 q 192 0 206 0 l 165 0 q 151 14 151 0 l 151 961 q 165 975 151 975 l 506 975 q 690 904 619 975 q 760 718 760 833 q 705 553 760 619 q 557 471 650 486 q 553 464 550 468 l 769 17 q 771 10 771 14 q 760 0 771 0 l 735 0 m 211 925 q 206 919 206 925 l 206 519 q 211 514 206 514 l 504 514 q 650 571 594 514 q 706 718 706 628 q 650 868 706 811 q 504 925 594 925 l 211 925 m 392 1079 q 381 1084 383 1079 q 382 1096 378 1089 l 467 1250 q 483 1260 471 1260 l 510 1260 q 521 1255 518 1260 q 519 1243 524 1250 l 428 1089 q 411 1079 421 1079 l 392 1079 z "},"Ř":{"ha":849,"x_min":151,"x_max":771,"o":"m 735 0 q 718 10 722 0 l 499 463 q 493 467 497 467 l 211 467 q 206 461 206 467 l 206 14 q 192 0 206 0 l 165 0 q 151 14 151 0 l 151 961 q 165 975 151 975 l 506 975 q 690 904 619 975 q 760 718 760 833 q 705 553 760 619 q 557 471 650 486 q 553 464 550 468 l 769 17 q 771 10 771 14 q 760 0 771 0 l 735 0 m 211 925 q 206 919 206 925 l 206 519 q 211 514 206 514 l 504 514 q 650 571 594 514 q 706 718 706 628 q 650 868 706 811 q 504 925 594 925 l 211 925 m 406 1061 q 388 1069 393 1061 l 274 1219 q 271 1228 271 1222 q 274 1233 271 1231 q 282 1236 276 1236 l 303 1236 q 321 1228 315 1236 l 418 1101 q 422 1099 419 1099 q 426 1101 425 1099 l 521 1228 q 539 1236 526 1236 l 560 1236 q 571 1231 568 1236 q 568 1219 574 1226 l 453 1069 q 435 1061 447 1061 l 406 1061 z "},"S":{"ha":810,"x_min":90,"x_max":724,"o":"m 413 -11 q 177 56 264 -11 q 90 235 90 122 l 90 283 q 104 297 90 297 l 128 297 q 142 283 142 297 l 142 239 q 216 93 142 149 q 417 38 290 38 q 604 89 539 38 q 669 229 669 140 q 642 325 669 285 q 556 401 614 365 q 390 482 497 436 q 227 558 282 528 q 140 635 172 589 q 108 751 108 681 q 184 924 108 864 q 397 983 260 983 q 631 916 547 983 q 714 735 714 849 l 714 701 q 700 688 714 688 l 674 688 q 660 701 660 688 l 660 731 q 590 879 660 824 q 394 935 521 935 q 222 888 282 935 q 161 754 161 842 q 188 660 161 696 q 266 597 215 624 q 422 526 317 569 q 590 444 526 483 q 689 353 654 404 q 724 233 724 303 q 642 56 724 122 q 413 -11 561 -11 z "},"Ś":{"ha":810,"x_min":90,"x_max":724,"o":"m 413 -11 q 177 56 264 -11 q 90 235 90 122 l 90 283 q 104 297 90 297 l 128 297 q 142 283 142 297 l 142 239 q 216 93 142 149 q 417 38 290 38 q 604 89 539 38 q 669 229 669 140 q 642 325 669 285 q 556 401 614 365 q 390 482 497 436 q 227 558 282 528 q 140 635 172 589 q 108 751 108 681 q 184 924 108 864 q 397 983 260 983 q 631 916 547 983 q 714 735 714 849 l 714 701 q 700 688 714 688 l 674 688 q 660 701 660 688 l 660 731 q 590 879 660 824 q 394 935 521 935 q 222 888 282 935 q 161 754 161 842 q 188 660 161 696 q 266 597 215 624 q 422 526 317 569 q 590 444 526 483 q 689 353 654 404 q 724 233 724 303 q 642 56 724 122 q 413 -11 561 -11 m 367 1090 q 356 1095 358 1090 q 357 1107 353 1100 l 442 1261 q 458 1271 446 1271 l 485 1271 q 496 1266 493 1271 q 494 1254 499 1261 l 403 1100 q 386 1090 396 1090 l 367 1090 z "},"Š":{"ha":810,"x_min":90,"x_max":724,"o":"m 413 -11 q 177 56 264 -11 q 90 235 90 122 l 90 283 q 104 297 90 297 l 128 297 q 142 283 142 297 l 142 239 q 216 93 142 149 q 417 38 290 38 q 604 89 539 38 q 669 229 669 140 q 642 325 669 285 q 556 401 614 365 q 390 482 497 436 q 227 558 282 528 q 140 635 172 589 q 108 751 108 681 q 184 924 108 864 q 397 983 260 983 q 631 916 547 983 q 714 735 714 849 l 714 701 q 700 688 714 688 l 674 688 q 660 701 660 688 l 660 731 q 590 879 660 824 q 394 935 521 935 q 222 888 282 935 q 161 754 161 842 q 188 660 161 696 q 266 597 215 624 q 422 526 317 569 q 590 444 526 483 q 689 353 654 404 q 724 233 724 303 q 642 56 724 122 q 413 -11 561 -11 m 381 1072 q 363 1081 368 1072 l 249 1231 q 246 1239 246 1233 q 249 1244 246 1242 q 257 1247 251 1247 l 278 1247 q 296 1239 290 1247 l 393 1113 q 397 1110 394 1110 q 401 1113 400 1110 l 496 1239 q 514 1247 501 1247 l 535 1247 q 546 1242 543 1247 q 543 1231 549 1238 l 428 1081 q 410 1072 422 1072 l 381 1072 z "},"Ş":{"ha":810,"x_min":90,"x_max":724,"o":"m 724 233 q 649 60 724 126 q 435 -11 574 -6 q 431 -13 432 -11 q 433 -18 431 -15 q 507 -149 507 -78 q 504 -178 507 -158 q 463 -240 494 -221 q 389 -258 432 -258 q 344 -254 365 -258 q 333 -237 331 -253 l 336 -226 q 354 -215 340 -214 q 386 -219 371 -219 q 440 -201 419 -219 q 461 -144 461 -182 q 381 -12 461 -83 q 374 -10 379 -10 q 167 65 243 -1 q 90 235 90 131 l 90 283 q 104 297 90 297 l 128 297 q 142 283 142 297 l 142 239 q 216 93 142 149 q 417 38 290 38 q 604 89 539 38 q 669 229 669 140 q 642 325 669 285 q 556 401 614 365 q 390 482 497 436 q 227 558 282 528 q 140 635 172 589 q 108 751 108 681 q 184 924 108 864 q 397 983 260 983 q 631 916 547 983 q 714 735 714 849 l 714 701 q 700 688 714 688 l 674 688 q 660 701 660 688 l 660 731 q 590 879 660 824 q 394 935 521 935 q 222 888 282 935 q 161 754 161 842 q 188 660 161 696 q 266 597 215 624 q 422 526 317 569 q 590 444 526 483 q 689 353 654 404 q 724 233 724 303 z "},"T":{"ha":781,"x_min":69,"x_max":710,"o":"m 696 972 q 710 958 710 972 l 710 938 q 696 924 710 924 l 417 924 q 411 918 411 924 l 411 14 q 397 0 411 0 l 371 0 q 357 14 357 0 l 357 918 q 351 924 357 924 l 83 924 q 69 938 69 924 l 69 958 q 83 972 69 972 l 696 972 z "},"Ŧ":{"ha":833,"x_min":69,"x_max":710,"o":"m 710 938 q 696 924 710 924 l 417 924 q 411 918 411 924 l 411 593 q 417 588 411 588 l 578 588 q 592 574 592 588 l 592 558 q 578 544 592 544 l 417 544 q 411 539 411 544 l 411 14 q 397 0 411 0 l 371 0 q 357 14 357 0 l 357 539 q 351 544 357 544 l 188 544 q 174 558 174 544 l 174 574 q 188 588 174 588 l 351 588 q 357 593 357 588 l 357 918 q 351 924 357 924 l 83 924 q 69 938 69 924 l 69 958 q 83 972 69 972 l 696 972 q 710 958 710 972 l 710 938 z "},"Ť":{"ha":781,"x_min":69,"x_max":710,"o":"m 696 972 q 710 958 710 972 l 710 938 q 696 924 710 924 l 417 924 q 411 918 411 924 l 411 14 q 397 0 411 0 l 371 0 q 357 14 357 0 l 357 918 q 351 924 357 924 l 83 924 q 69 938 69 924 l 69 958 q 83 972 69 972 l 696 972 m 367 1050 q 349 1058 354 1050 l 235 1207 q 232 1215 232 1210 q 235 1221 232 1218 q 243 1224 238 1224 l 264 1224 q 282 1215 276 1224 l 379 1089 q 383 1086 381 1086 q 388 1089 386 1086 l 482 1215 q 500 1224 488 1224 l 521 1224 q 532 1218 529 1224 q 529 1207 535 1213 l 414 1058 q 396 1050 408 1050 l 367 1050 z "},"U":{"ha":911,"x_min":140,"x_max":772,"o":"m 456 -11 q 291 26 363 -11 q 180 133 219 64 q 140 290 140 201 l 140 958 q 154 972 140 972 l 181 972 q 194 958 194 972 l 194 286 q 266 106 194 175 q 456 38 338 38 q 646 106 574 38 q 718 286 718 175 l 718 958 q 732 972 718 972 l 758 972 q 772 958 772 972 l 772 290 q 733 133 772 201 q 622 26 693 64 q 456 -11 550 -11 z "},"Ú":{"ha":911,"x_min":140,"x_max":772,"o":"m 456 -11 q 291 26 363 -11 q 180 133 219 64 q 140 290 140 201 l 140 958 q 154 972 140 972 l 181 972 q 194 958 194 972 l 194 286 q 266 106 194 175 q 456 38 338 38 q 646 106 574 38 q 718 286 718 175 l 718 958 q 732 972 718 972 l 758 972 q 772 958 772 972 l 772 290 q 733 133 772 201 q 622 26 693 64 q 456 -11 550 -11 m 425 1096 q 414 1101 417 1096 q 415 1113 411 1106 l 500 1267 q 517 1276 504 1276 l 543 1276 q 554 1272 551 1276 q 553 1260 557 1267 l 461 1106 q 444 1096 454 1096 l 425 1096 z "},"Û":{"ha":911,"x_min":140,"x_max":772,"o":"m 456 -11 q 291 26 363 -11 q 180 133 219 64 q 140 290 140 201 l 140 958 q 154 972 140 972 l 181 972 q 194 958 194 972 l 194 286 q 266 106 194 175 q 456 38 338 38 q 646 106 574 38 q 718 286 718 175 l 718 958 q 732 972 718 972 l 758 972 q 772 958 772 972 l 772 290 q 733 133 772 201 q 622 26 693 64 q 456 -11 550 -11 m 315 1083 q 304 1089 307 1083 q 307 1100 301 1094 l 422 1250 q 440 1258 428 1258 l 469 1258 q 488 1250 482 1258 l 603 1100 q 606 1092 606 1097 q 603 1086 606 1089 q 594 1083 600 1083 l 574 1083 q 556 1092 561 1083 l 460 1218 q 456 1221 458 1221 q 451 1218 453 1221 l 354 1092 q 336 1083 349 1083 l 315 1083 z "},"Ü":{"ha":911,"x_min":140,"x_max":772,"o":"m 456 -11 q 291 26 363 -11 q 180 133 219 64 q 140 290 140 201 l 140 958 q 154 972 140 972 l 181 972 q 194 958 194 972 l 194 286 q 266 106 194 175 q 456 38 338 38 q 646 106 574 38 q 718 286 718 175 l 718 958 q 732 972 718 972 l 758 972 q 772 958 772 972 l 772 290 q 733 133 772 201 q 622 26 693 64 q 456 -11 550 -11 m 349 1143 q 310 1157 325 1143 q 296 1193 296 1171 q 311 1227 296 1213 q 349 1242 326 1242 q 383 1227 369 1242 q 397 1193 397 1213 q 383 1157 397 1171 q 349 1143 369 1143 m 567 1143 q 530 1157 544 1143 q 515 1193 515 1171 q 530 1227 515 1213 q 567 1242 544 1242 q 602 1228 588 1242 q 617 1193 617 1214 q 603 1157 617 1171 q 567 1143 589 1143 z "},"Ù":{"ha":911,"x_min":140,"x_max":772,"o":"m 456 -11 q 291 26 363 -11 q 180 133 219 64 q 140 290 140 201 l 140 958 q 154 972 140 972 l 181 972 q 194 958 194 972 l 194 286 q 266 106 194 175 q 456 38 338 38 q 646 106 574 38 q 718 286 718 175 l 718 958 q 732 972 718 972 l 758 972 q 772 958 772 972 l 772 290 q 733 133 772 201 q 622 26 693 64 q 456 -11 550 -11 m 467 1113 q 469 1104 469 1107 q 457 1096 469 1096 l 438 1096 q 421 1106 428 1096 l 329 1260 q 326 1268 326 1265 q 339 1276 326 1276 l 365 1276 q 382 1267 378 1276 l 467 1113 z "},"Ű":{"ha":911,"x_min":140,"x_max":772,"o":"m 456 -11 q 291 26 363 -11 q 180 133 219 64 q 140 290 140 201 l 140 958 q 154 972 140 972 l 181 972 q 194 958 194 972 l 194 286 q 266 106 194 175 q 456 38 338 38 q 646 106 574 38 q 718 286 718 175 l 718 958 q 732 972 718 972 l 758 972 q 772 958 772 972 l 772 290 q 733 133 772 201 q 622 26 693 64 q 456 -11 550 -11 m 331 1093 q 319 1098 322 1093 q 319 1110 315 1103 l 403 1264 q 419 1274 407 1274 l 443 1274 q 454 1269 451 1274 q 453 1257 457 1264 l 367 1103 q 350 1093 360 1093 l 331 1093 m 546 1093 q 535 1098 538 1093 q 536 1110 532 1103 l 621 1264 q 638 1274 625 1274 l 660 1274 q 671 1269 668 1274 q 669 1257 674 1264 l 582 1103 q 565 1093 575 1093 l 546 1093 z "},"Ū":{"ha":911,"x_min":140,"x_max":772,"o":"m 456 -11 q 291 26 363 -11 q 180 133 219 64 q 140 290 140 201 l 140 958 q 154 972 140 972 l 181 972 q 194 958 194 972 l 194 286 q 266 106 194 175 q 456 38 338 38 q 646 106 574 38 q 718 286 718 175 l 718 958 q 732 972 718 972 l 758 972 q 772 958 772 972 l 772 290 q 733 133 772 201 q 622 26 693 64 q 456 -11 550 -11 m 292 1126 q 278 1140 278 1126 l 278 1157 q 292 1171 278 1171 l 621 1171 q 635 1157 635 1171 l 635 1140 q 621 1126 635 1126 l 292 1126 z "},"Ų":{"ha":911,"x_min":140,"x_max":772,"o":"m 718 958 q 732 972 718 972 l 758 972 q 772 958 772 972 l 772 290 q 691 78 772 160 q 475 -11 610 -4 q 468 -14 471 -11 q 401 -135 401 -78 q 422 -190 401 -172 q 476 -208 443 -208 q 508 -204 492 -208 l 513 -204 q 525 -215 522 -204 l 528 -226 l 529 -233 q 518 -243 529 -240 q 474 -247 497 -247 q 399 -228 431 -247 q 358 -167 368 -210 q 356 -137 356 -147 q 418 -15 356 -72 q 415 -8 425 -11 q 215 84 290 3 q 140 290 140 165 l 140 958 q 154 972 140 972 l 181 972 q 194 958 194 972 l 194 286 q 266 106 194 175 q 456 38 338 38 q 646 106 574 38 q 718 286 718 175 l 718 958 z "},"Ů":{"ha":911,"x_min":140,"x_max":772,"o":"m 456 -11 q 291 26 363 -11 q 180 133 219 64 q 140 290 140 201 l 140 958 q 154 972 140 972 l 181 972 q 194 958 194 972 l 194 286 q 266 106 194 175 q 456 38 338 38 q 646 106 574 38 q 718 286 718 175 l 718 958 q 732 972 718 972 l 758 972 q 772 958 772 972 l 772 290 q 733 133 772 201 q 622 26 693 64 q 456 -11 550 -11 m 456 1088 q 356 1128 397 1088 q 315 1225 315 1168 q 356 1322 315 1282 q 456 1363 397 1363 q 555 1322 514 1363 q 596 1225 596 1282 q 555 1128 596 1168 q 456 1088 514 1088 m 456 1125 q 527 1154 497 1125 q 557 1225 557 1183 q 527 1296 557 1267 q 456 1325 497 1325 q 384 1296 414 1325 q 354 1225 354 1267 q 384 1154 354 1183 q 456 1125 414 1125 z "},"V":{"ha":796,"x_min":54,"x_max":744,"o":"m 382 0 q 365 11 369 0 l 56 957 l 54 963 q 67 972 54 972 l 93 972 q 110 961 106 972 l 394 88 q 399 85 396 85 q 403 88 401 85 l 688 961 q 704 972 692 972 l 729 972 q 740 957 744 972 l 429 11 q 413 0 425 0 l 382 0 z "},"W":{"ha":1218,"x_min":39,"x_max":1179,"o":"m 331 0 q 315 11 319 0 l 40 957 l 39 961 q 53 972 39 972 l 79 972 q 94 961 90 972 l 342 114 q 345 111 343 111 q 349 114 347 111 l 575 960 q 590 972 578 972 l 619 972 q 635 960 632 972 l 868 114 q 872 111 869 111 q 875 114 874 111 l 1124 961 q 1139 972 1128 972 l 1165 972 q 1176 968 1172 972 q 1178 957 1179 964 l 900 11 q 885 0 896 0 l 856 0 q 840 13 843 0 l 610 871 q 606 874 608 874 q 603 871 604 874 l 374 13 q 358 0 371 0 l 331 0 z "},"Ẃ":{"ha":1218,"x_min":39,"x_max":1179,"o":"m 331 0 q 315 11 319 0 l 40 957 l 39 961 q 53 972 39 972 l 79 972 q 94 961 90 972 l 342 114 q 345 111 343 111 q 349 114 347 111 l 575 960 q 590 972 578 972 l 619 972 q 635 960 632 972 l 868 114 q 872 111 869 111 q 875 114 874 111 l 1124 961 q 1139 972 1128 972 l 1165 972 q 1176 968 1172 972 q 1178 957 1179 964 l 900 11 q 885 0 896 0 l 856 0 q 840 13 843 0 l 610 871 q 606 874 608 874 q 603 871 604 874 l 374 13 q 358 0 371 0 l 331 0 m 576 1079 q 565 1084 568 1079 q 567 1096 563 1089 l 651 1250 q 668 1260 656 1260 l 694 1260 q 706 1255 703 1260 q 704 1243 708 1250 l 613 1089 q 596 1079 606 1079 l 576 1079 z "},"Ŵ":{"ha":1218,"x_min":39,"x_max":1179,"o":"m 331 0 q 315 11 319 0 l 40 957 l 39 961 q 53 972 39 972 l 79 972 q 94 961 90 972 l 342 114 q 345 111 343 111 q 349 114 347 111 l 575 960 q 590 972 578 972 l 619 972 q 635 960 632 972 l 868 114 q 872 111 869 111 q 875 114 874 111 l 1124 961 q 1139 972 1128 972 l 1165 972 q 1176 968 1172 972 q 1178 957 1179 964 l 900 11 q 885 0 896 0 l 856 0 q 840 13 843 0 l 610 871 q 606 874 608 874 q 603 871 604 874 l 374 13 q 358 0 371 0 l 331 0 m 467 1067 q 456 1072 458 1067 q 458 1083 453 1078 l 574 1233 q 592 1242 579 1242 l 621 1242 q 639 1233 633 1242 l 754 1083 q 757 1075 757 1081 q 754 1069 757 1072 q 746 1067 751 1067 l 725 1067 q 707 1075 713 1067 l 611 1201 q 607 1204 610 1204 q 603 1201 604 1204 l 506 1075 q 488 1067 500 1067 l 467 1067 z "},"Ẅ":{"ha":1218,"x_min":39,"x_max":1179,"o":"m 331 0 q 315 11 319 0 l 40 957 l 39 961 q 53 972 39 972 l 79 972 q 94 961 90 972 l 342 114 q 345 111 343 111 q 349 114 347 111 l 575 960 q 590 972 578 972 l 619 972 q 635 960 632 972 l 868 114 q 872 111 869 111 q 875 114 874 111 l 1124 961 q 1139 972 1128 972 l 1165 972 q 1176 968 1172 972 q 1178 957 1179 964 l 900 11 q 885 0 896 0 l 856 0 q 840 13 843 0 l 610 871 q 606 874 608 874 q 603 871 604 874 l 374 13 q 358 0 371 0 l 331 0 m 500 1126 q 462 1140 476 1126 q 447 1176 447 1154 q 463 1210 447 1196 q 500 1225 478 1225 q 535 1210 521 1225 q 549 1176 549 1196 q 535 1140 549 1154 q 500 1126 521 1126 m 718 1126 q 681 1140 696 1126 q 667 1176 667 1154 q 681 1210 667 1196 q 718 1225 696 1225 q 753 1211 739 1225 q 768 1176 768 1197 q 754 1140 768 1154 q 718 1126 740 1126 z "},"Ẁ":{"ha":1218,"x_min":39,"x_max":1179,"o":"m 331 0 q 315 11 319 0 l 40 957 l 39 961 q 53 972 39 972 l 79 972 q 94 961 90 972 l 342 114 q 345 111 343 111 q 349 114 347 111 l 575 960 q 590 972 578 972 l 619 972 q 635 960 632 972 l 868 114 q 872 111 869 111 q 875 114 874 111 l 1124 961 q 1139 972 1128 972 l 1165 972 q 1176 968 1172 972 q 1178 957 1179 964 l 900 11 q 885 0 896 0 l 856 0 q 840 13 843 0 l 610 871 q 606 874 608 874 q 603 871 604 874 l 374 13 q 358 0 371 0 l 331 0 m 618 1096 q 621 1088 621 1090 q 608 1079 621 1079 l 589 1079 q 572 1089 579 1079 l 481 1243 q 478 1251 478 1249 q 490 1260 478 1260 l 517 1260 q 533 1250 529 1260 l 618 1096 z "},"X":{"ha":790,"x_min":57,"x_max":733,"o":"m 69 0 q 59 5 61 0 q 61 17 57 10 l 363 482 q 363 490 365 486 l 61 956 q 58 964 58 961 q 69 972 58 972 l 99 972 q 115 963 108 972 l 392 533 q 396 532 393 532 q 400 533 399 532 l 675 963 q 692 972 682 972 l 721 972 q 731 967 729 972 q 729 956 733 963 l 428 489 q 428 481 426 485 l 729 17 q 732 8 732 11 q 721 0 732 0 l 692 0 q 675 10 682 0 l 400 438 q 396 440 399 440 q 392 438 393 440 l 115 10 q 99 0 108 0 l 69 0 z "},"Y":{"ha":756,"x_min":57,"x_max":700,"o":"m 365 0 q 351 14 351 0 l 351 453 q 350 460 351 458 l 60 956 q 57 964 57 961 q 69 972 57 972 l 96 972 q 113 963 106 972 l 374 517 q 378 515 375 515 q 382 517 381 515 l 643 963 q 660 972 650 972 l 686 972 q 697 967 694 972 q 696 956 700 963 l 406 460 q 404 453 404 458 l 404 14 q 390 0 404 0 l 365 0 z "},"Ý":{"ha":756,"x_min":57,"x_max":699,"o":"m 365 0 q 351 14 351 0 l 351 453 q 350 460 351 458 l 60 956 q 57 964 57 961 q 69 972 57 972 l 96 972 q 113 963 106 972 l 374 517 q 378 515 375 515 q 382 517 381 515 l 643 963 q 660 972 650 972 l 686 972 q 697 967 694 972 q 696 956 700 963 l 406 460 q 404 453 404 458 l 404 14 q 390 0 404 0 l 365 0 m 347 1078 q 336 1083 339 1078 q 338 1094 333 1088 l 422 1249 q 439 1258 426 1258 l 465 1258 q 476 1253 474 1258 q 475 1242 479 1249 l 383 1088 q 367 1078 376 1078 l 347 1078 z "},"Ŷ":{"ha":756,"x_min":57,"x_max":699,"o":"m 365 0 q 351 14 351 0 l 351 453 q 350 460 351 458 l 60 956 q 57 964 57 961 q 69 972 57 972 l 96 972 q 113 963 106 972 l 374 517 q 378 515 375 515 q 382 517 381 515 l 643 963 q 660 972 650 972 l 686 972 q 697 967 694 972 q 696 956 700 963 l 406 460 q 404 453 404 458 l 404 14 q 390 0 404 0 l 365 0 m 238 1065 q 226 1071 229 1065 q 229 1082 224 1076 l 344 1232 q 363 1240 350 1240 l 392 1240 q 410 1232 404 1240 l 525 1082 q 528 1074 528 1079 q 525 1068 528 1071 q 517 1065 522 1065 l 496 1065 q 478 1074 483 1065 l 382 1200 q 378 1203 381 1203 q 374 1200 375 1203 l 276 1074 q 258 1065 271 1065 l 238 1065 z "},"Ÿ":{"ha":756,"x_min":57,"x_max":699,"o":"m 365 0 q 351 14 351 0 l 351 453 q 350 460 351 458 l 60 956 q 57 964 57 961 q 69 972 57 972 l 96 972 q 113 963 106 972 l 374 517 q 378 515 375 515 q 382 517 381 515 l 643 963 q 660 972 650 972 l 686 972 q 697 967 694 972 q 696 956 700 963 l 406 460 q 404 453 404 458 l 404 14 q 390 0 404 0 l 365 0 m 271 1125 q 233 1139 247 1125 q 218 1175 218 1153 q 233 1209 218 1194 q 271 1224 249 1224 q 306 1209 292 1224 q 319 1175 319 1194 q 306 1139 319 1153 q 271 1125 292 1125 m 489 1125 q 452 1139 467 1125 q 438 1175 438 1153 q 452 1209 438 1194 q 489 1224 467 1224 q 524 1210 510 1224 q 539 1175 539 1196 q 525 1139 539 1153 q 489 1125 511 1125 z "},"Ỳ":{"ha":756,"x_min":57,"x_max":699,"o":"m 365 0 q 351 14 351 0 l 351 453 q 350 460 351 458 l 60 956 q 57 964 57 961 q 69 972 57 972 l 96 972 q 113 963 106 972 l 374 517 q 378 515 375 515 q 382 517 381 515 l 643 963 q 660 972 650 972 l 686 972 q 697 967 694 972 q 696 956 700 963 l 406 460 q 404 453 404 458 l 404 14 q 390 0 404 0 l 365 0 m 389 1094 q 392 1086 392 1089 q 379 1078 392 1078 l 360 1078 q 343 1088 350 1078 l 251 1242 q 249 1250 249 1247 q 261 1258 249 1258 l 288 1258 q 304 1249 300 1258 l 389 1094 z "},"Z":{"ha":757,"x_min":71,"x_max":675,"o":"m 85 0 q 71 14 71 0 l 71 40 q 76 58 71 47 l 611 917 q 611 922 613 919 q 607 924 610 924 l 85 924 q 71 938 71 924 l 71 958 q 85 972 71 972 l 661 972 q 675 958 675 972 l 675 932 q 669 914 675 925 l 135 56 q 135 51 133 53 q 139 49 136 49 l 661 49 q 675 35 675 49 l 675 14 q 661 0 675 0 l 85 0 z "},"Ź":{"ha":757,"x_min":71,"x_max":675,"o":"m 85 0 q 71 14 71 0 l 71 40 q 76 58 71 47 l 611 917 q 611 922 613 919 q 607 924 610 924 l 85 924 q 71 938 71 924 l 71 958 q 85 972 71 972 l 661 972 q 675 958 675 972 l 675 932 q 669 914 675 925 l 135 56 q 135 51 133 53 q 139 49 136 49 l 661 49 q 675 35 675 49 l 675 14 q 661 0 675 0 l 85 0 m 335 1097 q 324 1102 326 1097 q 325 1114 321 1107 l 410 1268 q 426 1278 414 1278 l 453 1278 q 464 1273 461 1278 q 463 1261 467 1268 l 371 1107 q 354 1097 364 1097 l 335 1097 z "},"Ž":{"ha":757,"x_min":71,"x_max":675,"o":"m 85 0 q 71 14 71 0 l 71 40 q 76 58 71 47 l 611 917 q 611 922 613 919 q 607 924 610 924 l 85 924 q 71 938 71 924 l 71 958 q 85 972 71 972 l 661 972 q 675 958 675 972 l 675 932 q 669 914 675 925 l 135 56 q 135 51 133 53 q 139 49 136 49 l 661 49 q 675 35 675 49 l 675 14 q 661 0 675 0 l 85 0 m 349 1079 q 331 1088 336 1079 l 217 1238 q 214 1246 214 1240 q 217 1251 214 1249 q 225 1254 219 1254 l 246 1254 q 264 1246 258 1254 l 361 1119 q 365 1117 363 1117 q 369 1119 368 1117 l 464 1246 q 482 1254 469 1254 l 503 1254 q 514 1249 511 1254 q 511 1238 517 1244 l 396 1088 q 378 1079 390 1079 l 349 1079 z "},"Ż":{"ha":757,"x_min":71,"x_max":675,"o":"m 85 0 q 71 14 71 0 l 71 40 q 76 58 71 47 l 611 917 q 611 922 613 919 q 607 924 610 924 l 85 924 q 71 938 71 924 l 71 958 q 85 972 71 972 l 661 972 q 675 958 675 972 l 675 932 q 669 914 675 925 l 135 56 q 135 51 133 53 q 139 49 136 49 l 661 49 q 675 35 675 49 l 675 14 q 661 0 675 0 l 85 0 m 365 1119 q 328 1133 343 1119 q 314 1168 314 1147 q 328 1201 314 1188 q 365 1215 343 1215 q 400 1201 386 1215 q 414 1168 414 1188 q 400 1133 414 1147 q 365 1119 386 1119 z "},"Ģ":{"ha":840,"x_min":117,"x_max":736,"o":"m 428 -11 q 265 25 335 -11 q 156 127 194 61 q 117 278 117 193 l 117 694 q 156 846 117 781 q 265 947 194 911 q 428 983 335 983 q 589 947 519 983 q 697 847 658 911 q 736 699 736 782 l 736 678 q 722 664 736 664 l 696 664 q 682 678 682 664 l 682 699 q 612 869 682 804 q 428 935 542 935 q 242 869 313 935 q 171 696 171 803 l 171 276 q 242 103 171 169 q 429 38 313 38 q 613 102 543 38 q 682 272 682 167 l 682 424 q 676 429 682 429 l 450 429 q 436 443 436 429 l 436 464 q 450 478 436 478 l 722 478 q 736 464 736 478 l 736 282 q 651 68 736 147 q 428 -11 567 -11 z "},"Ķ":{"ha":839,"x_min":151,"x_max":794,"o":"m 165 0 q 151 14 151 0 l 151 958 q 165 972 151 972 l 192 972 q 206 958 206 972 l 206 453 q 208 449 206 450 q 213 450 210 447 l 704 965 q 721 972 711 972 l 750 972 q 761 967 758 972 q 758 956 764 963 l 406 576 q 406 568 403 574 l 792 17 q 794 8 794 14 q 792 3 794 6 q 783 0 789 0 l 750 0 q 733 8 739 0 l 368 528 q 364 531 367 531 q 360 529 361 531 l 208 376 q 206 369 206 374 l 206 14 q 192 0 206 0 l 165 0 z "},"Ņ":{"ha":944,"x_min":151,"x_max":794,"o":"m 165 0 q 151 14 151 0 l 151 958 q 165 972 151 972 l 193 972 q 210 963 203 972 l 733 115 q 738 112 735 111 q 740 117 740 113 l 740 958 q 754 972 740 972 l 781 972 q 794 958 794 972 l 794 14 q 781 0 794 0 l 751 0 q 735 10 742 0 l 213 858 q 208 862 211 863 q 206 857 206 861 l 206 14 q 192 0 206 0 l 165 0 z "},"Ŗ":{"ha":849,"x_min":151,"x_max":771,"o":"m 735 0 q 718 10 722 0 l 499 463 q 493 467 497 467 l 211 467 q 206 461 206 467 l 206 14 q 192 0 206 0 l 165 0 q 151 14 151 0 l 151 961 q 165 975 151 975 l 506 975 q 690 904 619 975 q 760 718 760 833 q 705 553 760 619 q 557 471 650 486 q 553 464 550 468 l 769 17 q 771 10 771 14 q 760 0 771 0 l 735 0 m 211 925 q 206 919 206 925 l 206 519 q 211 514 206 514 l 504 514 q 650 571 594 514 q 706 718 706 628 q 650 868 706 811 q 504 925 594 925 l 211 925 z "},"Ţ":{"ha":781,"x_min":69,"x_max":710,"o":"m 417 924 q 411 918 411 924 l 411 4 q 414 -3 411 0 q 493 -139 493 -64 q 490 -167 493 -147 q 449 -228 481 -210 q 375 -247 418 -247 q 331 -243 351 -247 q 319 -226 317 -242 l 322 -215 q 340 -204 326 -203 q 372 -208 357 -208 q 426 -190 406 -208 q 447 -133 447 -171 q 368 -3 447 -72 q 361 1 368 -1 q 357 14 357 4 l 357 918 q 351 924 357 924 l 83 924 q 69 938 69 924 l 69 958 q 83 972 69 972 l 696 972 q 710 958 710 972 l 710 938 q 696 924 710 924 l 417 924 z "},"Ș":{"ha":810,"x_min":90,"x_max":724,"o":"m 413 -11 q 177 56 264 -11 q 90 235 90 122 l 90 283 q 104 297 90 297 l 128 297 q 142 283 142 297 l 142 239 q 216 93 142 149 q 417 38 290 38 q 604 89 539 38 q 669 229 669 140 q 642 325 669 285 q 556 401 614 365 q 390 482 497 436 q 227 558 282 528 q 140 635 172 589 q 108 751 108 681 q 184 924 108 864 q 397 983 260 983 q 631 916 547 983 q 714 735 714 849 l 714 701 q 700 688 714 688 l 674 688 q 660 701 660 688 l 660 731 q 590 879 660 824 q 394 935 521 935 q 222 888 282 935 q 161 754 161 842 q 188 660 161 696 q 266 597 215 624 q 422 526 317 569 q 590 444 526 483 q 689 353 654 404 q 724 233 724 303 q 642 56 724 122 q 413 -11 561 -11 z "},"Ț":{"ha":783,"x_min":69,"x_max":710,"o":"m 696 972 q 710 958 710 972 l 710 938 q 696 924 710 924 l 417 924 q 411 918 411 924 l 411 14 q 397 0 411 0 l 371 0 q 357 14 357 0 l 357 918 q 351 924 357 924 l 83 924 q 69 938 69 924 l 69 958 q 83 972 69 972 l 696 972 z "},"a":{"ha":697,"x_min":76,"x_max":592,"o":"m 351 708 q 531 647 471 708 q 592 476 592 585 l 592 14 q 578 0 592 0 l 551 0 q 538 14 538 0 l 538 81 q 535 85 538 83 q 531 83 533 86 q 434 13 494 38 q 303 -11 374 -11 q 142 36 208 -11 q 76 182 76 83 q 153 342 76 283 q 363 400 229 400 l 532 400 q 538 406 538 400 l 538 478 q 492 610 538 561 q 349 660 446 660 q 225 628 274 660 q 165 544 176 597 q 149 532 161 531 l 119 536 q 109 541 113 538 q 107 550 106 544 q 188 665 122 622 q 351 708 253 708 m 310 38 q 470 82 403 38 q 538 207 538 126 l 538 349 q 532 354 538 354 l 364 354 q 195 309 260 354 q 131 185 131 264 q 181 75 131 113 q 310 38 231 38 z "},"á":{"ha":697,"x_min":76,"x_max":592,"o":"m 351 708 q 531 647 471 708 q 592 476 592 585 l 592 14 q 578 0 592 0 l 551 0 q 538 14 538 0 l 538 81 q 535 85 538 83 q 531 83 533 86 q 434 13 494 38 q 303 -11 374 -11 q 142 36 208 -11 q 76 182 76 83 q 153 342 76 283 q 363 400 229 400 l 532 400 q 538 406 538 400 l 538 478 q 492 610 538 561 q 349 660 446 660 q 225 628 274 660 q 165 544 176 597 q 149 532 161 531 l 119 536 q 109 541 113 538 q 107 550 106 544 q 188 665 122 622 q 351 708 253 708 m 310 38 q 470 82 403 38 q 538 207 538 126 l 538 349 q 532 354 538 354 l 364 354 q 195 309 260 354 q 131 185 131 264 q 181 75 131 113 q 310 38 231 38 m 324 815 q 313 820 315 815 q 314 832 310 825 l 399 986 q 415 996 403 996 l 442 996 q 453 991 450 996 q 451 979 456 986 l 360 825 q 343 815 353 815 l 324 815 z "},"ă":{"ha":697,"x_min":76,"x_max":592,"o":"m 351 708 q 531 647 471 708 q 592 476 592 585 l 592 14 q 578 0 592 0 l 551 0 q 538 14 538 0 l 538 81 q 535 85 538 83 q 531 83 533 86 q 434 13 494 38 q 303 -11 374 -11 q 142 36 208 -11 q 76 182 76 83 q 153 342 76 283 q 363 400 229 400 l 532 400 q 538 406 538 400 l 538 478 q 492 610 538 561 q 349 660 446 660 q 225 628 274 660 q 165 544 176 597 q 149 532 161 531 l 119 536 q 109 541 113 538 q 107 550 106 544 q 188 665 122 622 q 351 708 253 708 m 310 38 q 470 82 403 38 q 538 207 538 126 l 538 349 q 532 354 538 354 l 364 354 q 195 309 260 354 q 131 185 131 264 q 181 75 131 113 q 310 38 231 38 m 354 792 q 259 828 299 792 q 214 917 219 864 l 214 919 q 226 931 214 931 l 239 931 q 254 917 253 931 q 287 854 258 879 q 354 829 315 829 q 422 854 393 829 q 456 917 451 879 q 471 931 457 931 l 483 931 q 494 926 490 931 q 496 917 497 922 q 450 828 490 864 q 354 792 410 792 z "},"ǎ":{"ha":697,"x_min":76,"x_max":592,"o":"m 351 708 q 531 647 471 708 q 592 476 592 585 l 592 14 q 578 0 592 0 l 551 0 q 538 14 538 0 l 538 81 q 535 85 538 83 q 531 83 533 86 q 434 13 494 38 q 303 -11 374 -11 q 142 36 208 -11 q 76 182 76 83 q 153 342 76 283 q 363 400 229 400 l 532 400 q 538 406 538 400 l 538 478 q 492 610 538 561 q 349 660 446 660 q 225 628 274 660 q 165 544 176 597 q 149 532 161 531 l 119 536 q 109 541 113 538 q 107 550 106 544 q 188 665 122 622 q 351 708 253 708 m 310 38 q 470 82 403 38 q 538 207 538 126 l 538 349 q 532 354 538 354 l 364 354 q 195 309 260 354 q 131 185 131 264 q 181 75 131 113 q 310 38 231 38 m 338 786 q 319 794 325 786 l 206 943 q 203 951 203 946 q 206 957 203 954 q 214 960 208 960 l 235 960 q 253 951 247 960 l 350 825 q 354 822 351 822 q 358 825 357 822 l 453 951 q 471 960 458 960 l 492 960 q 503 954 500 960 q 500 943 506 949 l 385 794 q 367 786 379 786 l 338 786 z "},"â":{"ha":697,"x_min":76,"x_max":592,"o":"m 351 708 q 531 647 471 708 q 592 476 592 585 l 592 14 q 578 0 592 0 l 551 0 q 538 14 538 0 l 538 81 q 535 85 538 83 q 531 83 533 86 q 434 13 494 38 q 303 -11 374 -11 q 142 36 208 -11 q 76 182 76 83 q 153 342 76 283 q 363 400 229 400 l 532 400 q 538 406 538 400 l 538 478 q 492 610 538 561 q 349 660 446 660 q 225 628 274 660 q 165 544 176 597 q 149 532 161 531 l 119 536 q 109 541 113 538 q 107 550 106 544 q 188 665 122 622 q 351 708 253 708 m 310 38 q 470 82 403 38 q 538 207 538 126 l 538 349 q 532 354 538 354 l 364 354 q 195 309 260 354 q 131 185 131 264 q 181 75 131 113 q 310 38 231 38 m 214 803 q 203 808 206 803 q 206 819 200 814 l 321 969 q 339 978 326 978 l 368 978 q 386 969 381 978 l 501 819 q 504 811 504 817 q 501 806 504 808 q 493 803 499 803 l 472 803 q 454 811 460 803 l 358 938 q 354 940 357 940 q 350 938 351 940 l 253 811 q 235 803 247 803 l 214 803 z "},"ä":{"ha":697,"x_min":76,"x_max":592,"o":"m 351 708 q 531 647 471 708 q 592 476 592 585 l 592 14 q 578 0 592 0 l 551 0 q 538 14 538 0 l 538 81 q 535 85 538 83 q 531 83 533 86 q 434 13 494 38 q 303 -11 374 -11 q 142 36 208 -11 q 76 182 76 83 q 153 342 76 283 q 363 400 229 400 l 532 400 q 538 406 538 400 l 538 478 q 492 610 538 561 q 349 660 446 660 q 225 628 274 660 q 165 544 176 597 q 149 532 161 531 l 119 536 q 109 541 113 538 q 107 550 106 544 q 188 665 122 622 q 351 708 253 708 m 310 38 q 470 82 403 38 q 538 207 538 126 l 538 349 q 532 354 538 354 l 364 354 q 195 309 260 354 q 131 185 131 264 q 181 75 131 113 q 310 38 231 38 m 247 863 q 209 876 224 863 q 194 913 194 890 q 210 947 194 932 q 247 961 225 961 q 282 947 268 961 q 296 913 296 932 q 282 876 296 890 q 247 863 268 863 m 465 863 q 428 876 443 863 q 414 913 414 890 q 428 947 414 932 q 465 961 443 961 q 501 947 486 961 q 515 913 515 933 q 501 876 515 890 q 465 863 488 863 z "},"à":{"ha":697,"x_min":76,"x_max":592,"o":"m 351 708 q 531 647 471 708 q 592 476 592 585 l 592 14 q 578 0 592 0 l 551 0 q 538 14 538 0 l 538 81 q 535 85 538 83 q 531 83 533 86 q 434 13 494 38 q 303 -11 374 -11 q 142 36 208 -11 q 76 182 76 83 q 153 342 76 283 q 363 400 229 400 l 532 400 q 538 406 538 400 l 538 478 q 492 610 538 561 q 349 660 446 660 q 225 628 274 660 q 165 544 176 597 q 149 532 161 531 l 119 536 q 109 541 113 538 q 107 550 106 544 q 188 665 122 622 q 351 708 253 708 m 310 38 q 470 82 403 38 q 538 207 538 126 l 538 349 q 532 354 538 354 l 364 354 q 195 309 260 354 q 131 185 131 264 q 181 75 131 113 q 310 38 231 38 m 365 832 q 368 824 368 826 q 356 815 368 815 l 336 815 q 319 825 326 815 l 228 979 q 225 988 225 985 q 238 996 225 996 l 264 996 q 281 986 276 996 l 365 832 z "},"ā":{"ha":697,"x_min":76,"x_max":592,"o":"m 351 708 q 531 647 471 708 q 592 476 592 585 l 592 14 q 578 0 592 0 l 551 0 q 538 14 538 0 l 538 81 q 535 85 538 83 q 531 83 533 86 q 434 13 494 38 q 303 -11 374 -11 q 142 36 208 -11 q 76 182 76 83 q 153 342 76 283 q 363 400 229 400 l 532 400 q 538 406 538 400 l 538 478 q 492 610 538 561 q 349 660 446 660 q 225 628 274 660 q 165 544 176 597 q 149 532 161 531 l 119 536 q 109 541 113 538 q 107 550 106 544 q 188 665 122 622 q 351 708 253 708 m 310 38 q 470 82 403 38 q 538 207 538 126 l 538 349 q 532 354 538 354 l 364 354 q 195 309 260 354 q 131 185 131 264 q 181 75 131 113 q 310 38 231 38 m 190 846 q 176 860 176 846 l 176 876 q 190 890 176 890 l 519 890 q 533 876 533 890 l 533 860 q 519 846 533 846 l 190 846 z "},"ą":{"ha":833,"x_min":76,"x_max":631,"o":"m 614 -211 q 626 -222 624 -211 l 629 -233 l 631 -240 q 619 -250 631 -247 q 575 -254 599 -254 q 501 -235 532 -254 q 460 -174 469 -217 q 457 -144 457 -154 q 544 -4 457 -69 q 543 1 547 -1 q 538 14 538 6 l 538 81 q 535 85 538 83 q 531 83 533 86 q 434 13 494 38 q 303 -11 374 -11 q 142 36 208 -11 q 76 182 76 83 q 153 342 76 283 q 363 400 229 400 l 532 400 q 538 406 538 400 l 538 478 q 492 610 538 561 q 349 660 446 660 q 225 628 274 660 q 165 544 176 597 q 149 532 161 531 l 119 536 q 108 553 104 539 q 189 666 124 624 q 351 708 254 708 q 531 647 471 708 q 592 476 592 585 l 592 0 l 585 -7 q 526 -72 549 -37 q 503 -140 503 -107 q 524 -197 503 -178 q 578 -215 544 -215 q 610 -211 593 -215 l 614 -211 m 310 38 q 470 82 403 38 q 538 207 538 126 l 538 349 q 532 354 538 354 l 364 354 q 195 309 260 354 q 131 185 131 264 q 181 75 131 113 q 310 38 231 38 z "},"å":{"ha":697,"x_min":76,"x_max":592,"o":"m 351 708 q 531 647 471 708 q 592 476 592 585 l 592 14 q 578 0 592 0 l 551 0 q 538 14 538 0 l 538 81 q 535 85 538 83 q 531 83 533 86 q 434 13 494 38 q 303 -11 374 -11 q 142 36 208 -11 q 76 182 76 83 q 153 342 76 283 q 363 400 229 400 l 532 400 q 538 406 538 400 l 538 478 q 492 610 538 561 q 349 660 446 660 q 225 628 274 660 q 165 544 176 597 q 149 532 161 531 l 119 536 q 109 541 113 538 q 107 550 106 544 q 188 665 122 622 q 351 708 253 708 m 310 38 q 470 82 403 38 q 538 207 538 126 l 538 349 q 532 354 538 354 l 364 354 q 195 309 260 354 q 131 185 131 264 q 181 75 131 113 q 310 38 231 38 m 354 807 q 255 847 296 807 q 214 944 214 888 q 255 1042 214 1001 q 354 1082 296 1082 q 453 1042 413 1082 q 494 944 494 1001 q 453 847 494 888 q 354 807 413 807 m 354 844 q 426 874 396 844 q 456 944 456 903 q 426 1015 456 986 q 354 1044 396 1044 q 283 1015 313 1044 q 253 944 253 986 q 283 874 253 903 q 354 844 313 844 z "},"ã":{"ha":697,"x_min":76,"x_max":592,"o":"m 351 708 q 531 647 471 708 q 592 476 592 585 l 592 14 q 578 0 592 0 l 551 0 q 538 14 538 0 l 538 81 q 535 85 538 83 q 531 83 533 86 q 434 13 494 38 q 303 -11 374 -11 q 142 36 208 -11 q 76 182 76 83 q 153 342 76 283 q 363 400 229 400 l 532 400 q 538 406 538 400 l 538 478 q 492 610 538 561 q 349 660 446 660 q 225 628 274 660 q 165 544 176 597 q 149 532 161 531 l 119 536 q 109 541 113 538 q 107 550 106 544 q 188 665 122 622 q 351 708 253 708 m 310 38 q 470 82 403 38 q 538 207 538 126 l 538 349 q 532 354 538 354 l 364 354 q 195 309 260 354 q 131 185 131 264 q 181 75 131 113 q 310 38 231 38 m 442 844 q 399 853 418 844 q 360 878 381 863 q 324 901 338 894 q 293 907 311 907 q 253 899 269 907 q 219 868 238 892 q 200 864 211 857 l 190 871 q 186 890 181 879 q 292 951 226 951 q 330 944 314 951 q 374 919 346 936 q 411 897 396 904 q 442 889 426 889 q 481 898 464 889 q 517 932 499 907 q 535 936 524 943 l 543 932 q 550 919 550 928 q 544 904 550 911 q 496 859 524 874 q 442 844 468 844 z "},"æ":{"ha":1153,"x_min":76,"x_max":1053,"o":"m 308 -11 q 143 35 210 -11 q 76 181 76 81 q 152 335 76 281 q 363 390 228 390 l 532 390 q 538 396 538 390 l 538 475 q 491 609 538 558 q 347 660 444 660 q 223 628 272 660 q 163 544 174 597 q 146 533 158 531 l 119 538 q 110 543 113 539 q 108 553 107 547 q 189 666 124 624 q 350 708 254 708 q 492 674 436 708 q 569 576 547 639 q 576 576 572 569 q 660 672 601 635 q 796 708 719 708 q 956 658 889 708 q 1043 524 1024 607 q 1051 470 1050 497 q 1053 357 1053 443 q 1039 342 1053 342 l 599 342 q 593 336 593 342 l 593 207 q 653 84 594 128 q 800 40 713 40 q 921 73 871 40 q 993 163 971 106 q 1010 171 997 175 l 1029 165 q 1039 147 1043 161 q 949 33 1013 76 q 796 -11 885 -11 q 653 22 714 -11 q 569 117 593 56 q 567 120 568 119 q 564 118 565 121 q 467 23 539 57 q 308 -11 396 -11 m 593 396 q 599 390 593 390 l 994 390 q 1000 396 1000 390 q 993 501 997 479 q 927 616 981 572 q 794 660 874 660 q 664 616 717 660 q 599 501 611 572 q 593 396 593 472 m 311 36 q 470 80 403 36 q 538 206 538 124 l 538 336 q 532 342 538 342 l 364 342 q 194 301 258 342 q 131 183 131 261 q 181 74 131 111 q 311 36 231 36 z "},"b":{"ha":743,"x_min":129,"x_max":640,"o":"m 629 524 q 638 456 636 493 q 640 347 640 418 q 638 240 640 276 q 628 172 636 203 q 542 39 607 89 q 383 -11 478 -11 q 270 15 319 -11 q 190 90 221 42 q 185 93 188 93 q 183 89 183 93 l 183 14 q 169 0 183 0 l 143 0 q 129 14 129 0 l 129 958 q 143 972 129 972 l 169 972 q 183 958 183 972 l 183 608 q 185 604 183 604 q 190 607 188 604 q 269 681 219 654 q 383 708 319 708 q 544 658 479 708 q 629 524 608 607 m 574 186 q 583 244 581 214 q 586 350 586 274 q 583 458 586 428 q 572 514 581 489 q 504 619 557 578 q 378 660 451 660 q 257 618 306 660 q 196 513 208 576 q 185 458 188 488 q 183 347 183 428 q 185 239 183 268 q 194 186 188 210 q 256 80 208 122 q 379 38 304 38 q 508 79 454 38 q 574 186 561 121 z "},"c":{"ha":711,"x_min":104,"x_max":635,"o":"m 374 -11 q 210 40 276 -11 q 121 175 143 90 q 104 350 104 236 q 121 524 104 457 q 209 658 142 607 q 374 708 276 708 q 539 659 469 708 q 628 536 608 610 q 635 500 632 525 l 635 497 q 622 485 635 488 l 597 482 l 594 482 q 582 494 585 482 l 578 514 q 509 618 565 576 q 372 660 453 660 q 238 617 292 660 q 171 503 183 574 q 158 349 158 447 q 169 196 158 254 q 238 81 185 125 q 372 38 292 38 q 510 80 453 38 q 578 185 567 122 l 579 192 q 596 203 581 206 l 619 199 q 632 183 633 196 q 631 175 631 181 q 628 161 631 169 q 541 38 611 86 q 374 -11 471 -11 z "},"ć":{"ha":711,"x_min":104,"x_max":635,"o":"m 374 -11 q 210 40 276 -11 q 121 175 143 90 q 104 350 104 236 q 121 524 104 457 q 209 658 142 607 q 374 708 276 708 q 539 659 469 708 q 628 536 608 610 q 635 500 632 525 l 635 497 q 622 485 635 488 l 597 482 l 594 482 q 582 494 585 482 l 578 514 q 509 618 565 576 q 372 660 453 660 q 238 617 292 660 q 171 503 183 574 q 158 349 158 447 q 169 196 158 254 q 238 81 185 125 q 372 38 292 38 q 510 80 453 38 q 578 185 567 122 l 579 192 q 596 203 581 206 l 619 199 q 632 183 633 196 q 631 175 631 181 q 628 161 631 169 q 541 38 611 86 q 374 -11 471 -11 m 342 815 q 331 820 333 815 q 332 832 328 825 l 417 986 q 433 996 421 996 l 460 996 q 471 991 468 996 q 469 979 474 986 l 378 825 q 361 815 371 815 l 342 815 z "},"č":{"ha":711,"x_min":104,"x_max":635,"o":"m 374 -11 q 210 40 276 -11 q 121 175 143 90 q 104 350 104 236 q 121 524 104 457 q 209 658 142 607 q 374 708 276 708 q 539 659 469 708 q 628 536 608 610 q 635 500 632 525 l 635 497 q 622 485 635 488 l 597 482 l 594 482 q 582 494 585 482 l 578 514 q 509 618 565 576 q 372 660 453 660 q 238 617 292 660 q 171 503 183 574 q 158 349 158 447 q 169 196 158 254 q 238 81 185 125 q 372 38 292 38 q 510 80 453 38 q 578 185 567 122 l 579 192 q 596 203 581 206 l 619 199 q 632 183 633 196 q 631 175 631 181 q 628 161 631 169 q 541 38 611 86 q 374 -11 471 -11 m 356 797 q 338 806 343 797 l 224 956 q 221 964 221 958 q 224 969 221 967 q 232 972 226 972 l 253 972 q 271 964 265 972 l 368 838 q 372 835 369 835 q 376 838 375 835 l 471 964 q 489 972 476 972 l 510 972 q 521 967 518 972 q 518 956 524 963 l 403 806 q 385 797 397 797 l 356 797 z "},"ç":{"ha":711,"x_min":104,"x_max":635,"o":"m 579 192 q 596 203 581 206 l 619 199 q 632 183 633 196 q 631 175 631 181 q 628 161 631 169 q 545 41 611 89 q 388 -11 479 -7 q 384 -13 385 -11 q 386 -18 383 -15 q 460 -149 460 -78 q 457 -178 460 -158 q 416 -240 447 -221 q 342 -258 385 -258 q 297 -254 318 -258 q 286 -237 283 -253 l 289 -226 q 307 -215 293 -214 q 339 -219 324 -219 q 393 -201 372 -219 q 414 -144 414 -182 q 331 -11 414 -82 q 324 -8 329 -8 q 194 53 247 4 q 121 175 142 101 q 104 350 104 236 q 121 524 104 457 q 209 658 142 607 q 374 708 276 708 q 539 659 469 708 q 628 536 608 610 q 635 500 632 525 l 635 497 q 622 485 635 488 l 597 482 l 594 482 q 582 494 585 482 l 578 514 q 509 618 565 576 q 372 660 453 660 q 238 617 292 660 q 171 503 183 574 q 158 349 158 447 q 169 196 158 254 q 238 81 185 125 q 372 38 292 38 q 510 80 453 38 q 578 185 567 122 l 579 192 z "},"ċ":{"ha":711,"x_min":104,"x_max":635,"o":"m 374 -11 q 210 40 276 -11 q 121 175 143 90 q 104 350 104 236 q 121 524 104 457 q 209 658 142 607 q 374 708 276 708 q 539 659 469 708 q 628 536 608 610 q 635 500 632 525 l 635 497 q 622 485 635 488 l 597 482 l 594 482 q 582 494 585 482 l 578 514 q 509 618 565 576 q 372 660 453 660 q 238 617 292 660 q 171 503 183 574 q 158 349 158 447 q 169 196 158 254 q 238 81 185 125 q 372 38 292 38 q 510 80 453 38 q 578 185 567 122 l 579 192 q 596 203 581 206 l 619 199 q 632 183 633 196 q 631 175 631 181 q 628 161 631 169 q 541 38 611 86 q 374 -11 471 -11 m 372 838 q 335 851 350 838 q 321 886 321 865 q 335 919 321 906 q 372 933 350 933 q 407 919 393 933 q 421 886 421 906 q 407 851 421 865 q 372 838 393 838 z "},"d":{"ha":743,"x_min":103,"x_max":614,"o":"m 560 958 q 574 972 560 972 l 600 972 q 614 958 614 972 l 614 14 q 600 0 614 0 l 574 0 q 560 14 560 0 l 560 89 q 558 93 560 93 q 553 90 556 93 q 473 15 522 42 q 360 -11 424 -11 q 201 39 265 -11 q 115 172 136 89 q 105 240 107 203 q 103 347 103 276 q 105 456 103 418 q 114 524 107 493 q 199 658 135 607 q 360 708 264 708 q 474 681 424 708 q 553 607 524 654 q 558 604 556 604 q 560 608 560 604 l 560 958 m 549 186 q 558 239 556 210 q 560 347 560 268 q 558 458 560 428 q 547 513 556 488 q 486 618 535 576 q 365 660 438 660 q 239 619 292 660 q 171 514 186 578 q 160 458 163 489 q 157 350 157 428 q 160 244 157 274 q 169 186 163 214 q 235 79 182 121 q 364 38 289 38 q 487 80 439 38 q 549 186 535 122 z "},"ð":{"ha":722,"x_min":101,"x_max":617,"o":"m 613 488 q 617 344 617 447 q 615 237 617 272 q 607 172 614 201 q 520 40 588 90 q 358 -11 453 -11 q 199 39 264 -11 q 113 172 133 89 q 103 240 106 203 q 101 346 101 276 q 103 451 101 417 q 113 517 106 486 q 190 642 131 594 q 336 692 250 690 q 445 678 393 696 q 531 626 497 661 q 534 624 532 624 q 535 628 536 625 q 422 818 507 722 q 415 821 419 824 l 300 782 l 294 781 q 282 792 286 781 l 279 803 l 278 810 q 288 819 278 817 l 383 850 q 386 854 386 851 q 385 858 386 857 q 278 956 328 915 q 272 964 272 960 q 285 972 272 972 l 317 972 q 333 965 326 972 q 439 874 406 906 q 446 872 442 871 l 543 904 l 549 906 q 561 894 557 906 l 564 883 q 565 876 565 881 q 556 867 565 871 l 478 842 q 474 836 471 839 q 568 685 532 769 q 613 488 604 600 m 556 192 q 561 289 561 214 l 561 343 l 561 400 q 556 494 561 474 q 489 608 542 565 q 358 651 436 651 q 228 608 281 651 q 163 494 176 565 q 157 433 158 474 q 156 343 156 392 q 163 192 156 228 q 228 78 176 121 q 358 35 281 35 q 489 78 436 35 q 556 192 542 121 z "},"ď":{"ha":840,"x_min":103,"x_max":836,"o":"m 560 958 q 574 972 560 972 l 600 972 q 614 958 614 972 l 614 14 q 600 0 614 0 l 574 0 q 560 14 560 0 l 560 89 q 558 93 560 93 q 553 90 556 93 q 473 15 522 42 q 360 -11 424 -11 q 201 39 265 -11 q 115 172 136 89 q 105 240 107 203 q 103 347 103 276 q 105 456 103 418 q 114 524 107 493 q 199 658 135 607 q 360 708 264 708 q 474 681 424 708 q 553 607 524 654 q 558 604 556 604 q 560 608 560 604 l 560 958 m 549 186 q 558 239 556 210 q 560 347 560 268 q 558 458 560 428 q 547 513 556 488 q 486 618 535 576 q 365 660 438 660 q 239 619 292 660 q 171 514 186 578 q 160 458 163 489 q 157 350 157 428 q 160 244 157 274 q 169 186 163 214 q 235 79 182 121 q 364 38 289 38 q 487 80 439 38 q 549 186 535 122 z "},"đ":{"ha":833,"x_min":103,"x_max":733,"o":"m 719 847 q 733 833 733 847 l 733 818 q 719 804 733 804 l 619 804 q 614 799 614 804 l 614 14 q 600 0 614 0 l 574 0 q 560 14 560 0 l 560 89 q 558 93 560 93 q 553 90 556 93 q 473 15 522 42 q 360 -11 424 -11 q 201 39 265 -11 q 115 172 136 89 q 105 240 107 203 q 103 347 103 276 q 105 456 103 418 q 114 524 107 493 q 199 658 135 607 q 360 708 264 708 q 474 681 424 708 q 553 607 524 654 q 558 604 556 604 q 560 608 560 604 l 560 799 q 554 804 560 804 l 329 804 q 315 818 315 804 l 315 833 q 329 847 315 847 l 554 847 q 560 853 560 847 l 560 958 q 574 972 560 972 l 600 972 q 614 958 614 972 l 614 853 q 619 847 614 847 l 719 847 m 549 186 q 558 239 556 210 q 560 347 560 268 q 558 458 560 428 q 547 513 556 488 q 486 618 535 576 q 365 660 438 660 q 239 619 292 660 q 171 514 186 578 q 160 458 163 489 q 157 350 157 428 q 160 244 157 274 q 169 186 163 214 q 235 79 182 121 q 364 38 289 38 q 487 80 439 38 q 549 186 535 122 z "},"e":{"ha":733,"x_min":104,"x_max":633,"o":"m 372 38 q 496 71 444 38 q 572 161 547 104 q 589 169 576 174 l 607 164 q 617 146 621 160 q 524 32 589 75 q 369 -11 458 -11 q 210 38 275 -11 q 119 168 144 86 q 104 350 104 226 q 106 452 104 414 q 115 521 108 490 q 203 657 136 606 q 368 708 271 708 q 539 653 471 708 q 625 507 607 599 q 632 444 631 481 q 633 350 633 408 q 619 335 633 335 l 164 335 q 158 329 158 335 q 160 249 158 285 q 165 196 161 213 q 234 81 179 124 q 372 38 289 38 m 368 660 q 233 617 286 660 q 165 504 179 574 q 158 385 158 460 q 164 379 158 379 l 574 379 q 579 385 579 379 q 572 501 579 474 q 503 616 557 572 q 368 660 449 660 z "},"é":{"ha":733,"x_min":104,"x_max":633,"o":"m 372 38 q 496 71 444 38 q 572 161 547 104 q 589 169 576 174 l 607 164 q 617 146 621 160 q 524 32 589 75 q 369 -11 458 -11 q 210 38 275 -11 q 119 168 144 86 q 104 350 104 226 q 106 452 104 414 q 115 521 108 490 q 203 657 136 606 q 368 708 271 708 q 539 653 471 708 q 625 507 607 599 q 632 444 631 481 q 633 350 633 408 q 619 335 633 335 l 164 335 q 158 329 158 335 q 160 249 158 285 q 165 196 161 213 q 234 81 179 124 q 372 38 289 38 m 368 660 q 233 617 286 660 q 165 504 179 574 q 158 385 158 460 q 164 379 158 379 l 574 379 q 579 385 579 379 q 572 501 579 474 q 503 616 557 572 q 368 660 449 660 m 336 815 q 325 820 328 815 q 326 832 322 825 l 411 986 q 428 996 415 996 l 454 996 q 465 991 463 996 q 464 979 468 986 l 372 825 q 356 815 365 815 l 336 815 z "},"ě":{"ha":733,"x_min":104,"x_max":633,"o":"m 372 38 q 496 71 444 38 q 572 161 547 104 q 589 169 576 174 l 607 164 q 617 146 621 160 q 524 32 589 75 q 369 -11 458 -11 q 210 38 275 -11 q 119 168 144 86 q 104 350 104 226 q 106 452 104 414 q 115 521 108 490 q 203 657 136 606 q 368 708 271 708 q 539 653 471 708 q 625 507 607 599 q 632 444 631 481 q 633 350 633 408 q 619 335 633 335 l 164 335 q 158 329 158 335 q 160 249 158 285 q 165 196 161 213 q 234 81 179 124 q 372 38 289 38 m 368 660 q 233 617 286 660 q 165 504 179 574 q 158 385 158 460 q 164 379 158 379 l 574 379 q 579 385 579 379 q 572 501 579 474 q 503 616 557 572 q 368 660 449 660 m 350 786 q 332 794 338 786 l 218 943 q 215 951 215 946 q 218 957 215 954 q 226 960 221 960 l 247 960 q 265 951 260 960 l 363 825 q 367 822 364 822 q 371 825 369 822 l 465 951 q 483 960 471 960 l 504 960 q 515 954 513 960 q 513 943 518 949 l 397 794 q 379 786 392 786 l 350 786 z "},"ȩ":{"ha":733,"x_min":104,"x_max":633,"o":"m 372 38 q 496 71 444 38 q 572 161 547 104 q 589 169 576 174 l 607 164 q 617 146 621 160 q 533 38 592 81 q 394 -11 475 -4 q 390 -13 390 -11 q 393 -17 390 -15 q 468 -149 468 -78 q 465 -178 468 -158 q 424 -240 456 -221 q 350 -258 393 -258 q 306 -254 326 -258 q 294 -237 292 -253 l 297 -226 q 315 -215 301 -214 q 347 -219 332 -219 q 401 -201 381 -219 q 422 -144 422 -182 q 342 -12 422 -83 q 335 -10 340 -10 q 198 47 254 0 q 119 168 142 94 q 104 350 104 226 q 106 452 104 414 q 115 521 108 490 q 203 657 136 606 q 368 708 271 708 q 539 653 471 708 q 625 507 607 599 q 632 444 631 481 q 633 350 633 408 q 619 335 633 335 l 164 335 q 158 329 158 335 q 160 249 158 285 q 165 196 161 213 q 234 81 179 124 q 372 38 289 38 m 368 660 q 233 617 286 660 q 165 504 179 574 q 158 385 158 460 q 164 379 158 379 l 574 379 q 579 385 579 379 q 572 501 579 474 q 503 616 557 572 q 368 660 449 660 z "},"ê":{"ha":733,"x_min":104,"x_max":633,"o":"m 372 38 q 496 71 444 38 q 572 161 547 104 q 589 169 576 174 l 607 164 q 617 146 621 160 q 524 32 589 75 q 369 -11 458 -11 q 210 38 275 -11 q 119 168 144 86 q 104 350 104 226 q 106 452 104 414 q 115 521 108 490 q 203 657 136 606 q 368 708 271 708 q 539 653 471 708 q 625 507 607 599 q 632 444 631 481 q 633 350 633 408 q 619 335 633 335 l 164 335 q 158 329 158 335 q 160 249 158 285 q 165 196 161 213 q 234 81 179 124 q 372 38 289 38 m 368 660 q 233 617 286 660 q 165 504 179 574 q 158 385 158 460 q 164 379 158 379 l 574 379 q 579 385 579 379 q 572 501 579 474 q 503 616 557 572 q 368 660 449 660 m 226 803 q 215 808 218 803 q 218 819 213 814 l 333 969 q 351 978 339 978 l 381 978 q 399 969 393 978 l 514 819 q 517 811 517 817 q 514 806 517 808 q 506 803 511 803 l 485 803 q 467 811 472 803 l 371 938 q 367 940 369 940 q 363 938 364 940 l 265 811 q 247 803 260 803 l 226 803 z "},"ë":{"ha":733,"x_min":104,"x_max":633,"o":"m 372 38 q 496 71 444 38 q 572 161 547 104 q 589 169 576 174 l 607 164 q 617 146 621 160 q 524 32 589 75 q 369 -11 458 -11 q 210 38 275 -11 q 119 168 144 86 q 104 350 104 226 q 106 452 104 414 q 115 521 108 490 q 203 657 136 606 q 368 708 271 708 q 539 653 471 708 q 625 507 607 599 q 632 444 631 481 q 633 350 633 408 q 619 335 633 335 l 164 335 q 158 329 158 335 q 160 249 158 285 q 165 196 161 213 q 234 81 179 124 q 372 38 289 38 m 368 660 q 233 617 286 660 q 165 504 179 574 q 158 385 158 460 q 164 379 158 379 l 574 379 q 579 385 579 379 q 572 501 579 474 q 503 616 557 572 q 368 660 449 660 m 260 863 q 222 876 236 863 q 207 913 207 890 q 222 947 207 932 q 260 961 238 961 q 294 947 281 961 q 308 913 308 932 q 294 876 308 890 q 260 863 281 863 m 478 863 q 441 876 456 863 q 426 913 426 890 q 441 947 426 932 q 478 961 456 961 q 513 947 499 961 q 528 913 528 933 q 514 876 528 890 q 478 863 500 863 z "},"ė":{"ha":733,"x_min":104,"x_max":633,"o":"m 372 38 q 496 71 444 38 q 572 161 547 104 q 589 169 576 174 l 607 164 q 617 146 621 160 q 524 32 589 75 q 369 -11 458 -11 q 210 38 275 -11 q 119 168 144 86 q 104 350 104 226 q 106 452 104 414 q 115 521 108 490 q 203 657 136 606 q 368 708 271 708 q 539 653 471 708 q 625 507 607 599 q 632 444 631 481 q 633 350 633 408 q 619 335 633 335 l 164 335 q 158 329 158 335 q 160 249 158 285 q 165 196 161 213 q 234 81 179 124 q 372 38 289 38 m 368 660 q 233 617 286 660 q 165 504 179 574 q 158 385 158 460 q 164 379 158 379 l 574 379 q 579 385 579 379 q 572 501 579 474 q 503 616 557 572 q 368 660 449 660 m 367 838 q 330 851 344 838 q 315 886 315 865 q 330 919 315 906 q 367 933 344 933 q 401 919 388 933 q 415 886 415 906 q 401 851 415 865 q 367 838 388 838 z "},"è":{"ha":733,"x_min":104,"x_max":633,"o":"m 372 38 q 496 71 444 38 q 572 161 547 104 q 589 169 576 174 l 607 164 q 617 146 621 160 q 524 32 589 75 q 369 -11 458 -11 q 210 38 275 -11 q 119 168 144 86 q 104 350 104 226 q 106 452 104 414 q 115 521 108 490 q 203 657 136 606 q 368 708 271 708 q 539 653 471 708 q 625 507 607 599 q 632 444 631 481 q 633 350 633 408 q 619 335 633 335 l 164 335 q 158 329 158 335 q 160 249 158 285 q 165 196 161 213 q 234 81 179 124 q 372 38 289 38 m 368 660 q 233 617 286 660 q 165 504 179 574 q 158 385 158 460 q 164 379 158 379 l 574 379 q 579 385 579 379 q 572 501 579 474 q 503 616 557 572 q 368 660 449 660 m 378 832 q 381 824 381 826 q 368 815 381 815 l 349 815 q 332 825 339 815 l 240 979 q 238 988 238 985 q 250 996 238 996 l 276 996 q 293 986 289 996 l 378 832 z "},"ē":{"ha":733,"x_min":104,"x_max":633,"o":"m 372 38 q 496 71 444 38 q 572 161 547 104 q 589 169 576 174 l 607 164 q 617 146 621 160 q 524 32 589 75 q 369 -11 458 -11 q 210 38 275 -11 q 119 168 144 86 q 104 350 104 226 q 106 452 104 414 q 115 521 108 490 q 203 657 136 606 q 368 708 271 708 q 539 653 471 708 q 625 507 607 599 q 632 444 631 481 q 633 350 633 408 q 619 335 633 335 l 164 335 q 158 329 158 335 q 160 249 158 285 q 165 196 161 213 q 234 81 179 124 q 372 38 289 38 m 368 660 q 233 617 286 660 q 165 504 179 574 q 158 385 158 460 q 164 379 158 379 l 574 379 q 579 385 579 379 q 572 501 579 474 q 503 616 557 572 q 368 660 449 660 m 203 846 q 189 860 189 846 l 189 876 q 203 890 189 890 l 532 890 q 546 876 546 890 l 546 860 q 532 846 546 846 l 203 846 z "},"ę":{"ha":733,"x_min":104,"x_max":633,"o":"m 372 38 q 496 71 444 38 q 572 161 547 104 q 589 169 576 174 l 607 164 q 617 146 621 160 q 532 38 590 81 q 394 -11 474 -4 q 388 -14 390 -11 q 308 -144 308 -82 q 329 -201 308 -182 q 383 -219 350 -219 q 415 -215 399 -219 l 419 -215 q 432 -226 429 -215 l 435 -237 l 436 -244 q 425 -254 436 -251 q 381 -258 404 -258 q 297 -233 331 -258 q 263 -149 263 -207 q 339 -15 263 -78 q 336 -8 344 -10 q 198 47 254 0 q 119 168 142 93 q 104 350 104 226 q 106 452 104 414 q 115 521 108 490 q 203 657 136 606 q 368 708 271 708 q 539 653 471 708 q 625 507 607 599 q 632 444 631 481 q 633 350 633 408 q 619 335 633 335 l 164 335 q 158 329 158 335 q 160 249 158 285 q 165 196 161 213 q 234 81 179 124 q 372 38 289 38 m 368 660 q 233 617 286 660 q 165 504 179 574 q 158 385 158 460 q 164 379 158 379 l 574 379 q 579 385 579 379 q 572 501 579 474 q 503 616 557 572 q 368 660 449 660 z "},"f":{"ha":475,"x_min":53,"x_max":410,"o":"m 365 924 q 247 881 278 924 q 217 746 217 839 l 217 703 q 222 697 217 697 l 390 697 q 404 683 404 697 l 404 661 q 390 647 404 647 l 222 647 q 217 642 217 647 l 217 14 q 203 0 217 0 l 176 0 q 163 14 163 0 l 163 642 q 157 647 163 647 l 67 647 q 53 661 53 647 l 53 683 q 67 697 53 697 l 157 697 q 163 703 163 697 l 163 747 q 206 919 163 865 q 363 972 249 972 l 396 972 q 410 958 410 972 l 410 938 q 396 924 410 924 l 365 924 z "},"g":{"ha":731,"x_min":99,"x_max":615,"o":"m 561 683 q 575 697 561 697 l 601 697 q 615 683 615 697 l 615 8 q 528 -211 615 -140 q 272 -276 440 -282 q 258 -262 258 -276 l 260 -239 q 274 -225 260 -225 q 492 -171 422 -229 q 561 10 561 -112 l 561 93 q 559 97 561 97 q 554 94 557 97 q 476 19 525 46 q 358 -8 426 -8 q 201 41 267 -8 q 114 175 136 90 q 99 347 99 231 q 114 526 99 464 q 201 658 136 608 q 357 708 265 708 q 474 681 424 708 q 554 607 524 654 q 558 603 556 603 q 561 608 561 604 l 561 683 m 556 196 q 560 249 558 218 q 561 349 561 281 q 560 448 561 417 q 556 503 558 479 q 494 615 544 571 q 365 660 443 660 q 237 615 289 660 q 165 503 185 571 q 154 350 154 458 q 165 197 154 236 q 235 83 182 128 q 365 39 289 39 q 494 84 444 39 q 556 196 544 129 z "},"ğ":{"ha":731,"x_min":99,"x_max":615,"o":"m 561 683 q 575 697 561 697 l 601 697 q 615 683 615 697 l 615 8 q 528 -211 615 -140 q 272 -276 440 -282 q 258 -262 258 -276 l 260 -239 q 274 -225 260 -225 q 492 -171 422 -229 q 561 10 561 -112 l 561 93 q 559 97 561 97 q 554 94 557 97 q 476 19 525 46 q 358 -8 426 -8 q 201 41 267 -8 q 114 175 136 90 q 99 347 99 231 q 114 526 99 464 q 201 658 136 608 q 357 708 265 708 q 474 681 424 708 q 554 607 524 654 q 558 603 556 603 q 561 608 561 604 l 561 683 m 556 196 q 560 249 558 218 q 561 349 561 281 q 560 448 561 417 q 556 503 558 479 q 494 615 544 571 q 365 660 443 660 q 237 615 289 660 q 165 503 185 571 q 154 350 154 458 q 165 197 154 236 q 235 83 182 128 q 365 39 289 39 q 494 84 444 39 q 556 196 544 129 m 374 793 q 278 829 318 793 q 233 918 239 865 l 233 921 q 246 932 233 932 l 258 932 q 274 918 272 932 q 306 856 278 881 q 374 831 335 831 q 442 856 413 831 q 475 918 471 881 q 490 932 476 932 l 503 932 q 513 928 510 932 q 515 918 517 924 q 469 829 510 865 q 374 793 429 793 z "},"ġ":{"ha":731,"x_min":99,"x_max":615,"o":"m 561 683 q 575 697 561 697 l 601 697 q 615 683 615 697 l 615 8 q 528 -211 615 -140 q 272 -276 440 -282 q 258 -262 258 -276 l 260 -239 q 274 -225 260 -225 q 492 -171 422 -229 q 561 10 561 -112 l 561 93 q 559 97 561 97 q 554 94 557 97 q 476 19 525 46 q 358 -8 426 -8 q 201 41 267 -8 q 114 175 136 90 q 99 347 99 231 q 114 526 99 464 q 201 658 136 608 q 357 708 265 708 q 474 681 424 708 q 554 607 524 654 q 558 603 556 603 q 561 608 561 604 l 561 683 m 556 196 q 560 249 558 218 q 561 349 561 281 q 560 448 561 417 q 556 503 558 479 q 494 615 544 571 q 365 660 443 660 q 237 615 289 660 q 165 503 185 571 q 154 350 154 458 q 165 197 154 236 q 235 83 182 128 q 365 39 289 39 q 494 84 444 39 q 556 196 544 129 m 374 839 q 337 853 351 839 q 322 888 322 867 q 337 921 322 907 q 374 935 351 935 q 408 921 394 935 q 422 888 422 907 q 408 853 422 867 q 374 839 394 839 z "},"h":{"ha":744,"x_min":128,"x_max":626,"o":"m 392 707 q 561 642 496 707 q 626 472 626 578 l 626 14 q 613 0 626 0 l 586 0 q 572 14 572 0 l 572 463 q 519 603 572 549 q 382 658 465 658 q 237 605 292 658 q 182 465 182 551 l 182 14 q 168 0 182 0 l 142 0 q 128 14 128 0 l 128 958 q 142 972 128 972 l 168 972 q 182 958 182 972 l 182 608 q 184 603 182 604 q 188 606 186 603 q 270 681 218 654 q 392 707 322 707 z "},"ħ":{"ha":744,"x_min":22,"x_max":626,"o":"m 392 707 q 561 642 496 707 q 626 472 626 578 l 626 14 q 613 0 626 0 l 586 0 q 572 14 572 0 l 572 463 q 519 603 572 549 q 382 658 465 658 q 237 605 292 658 q 182 465 182 551 l 182 14 q 168 0 182 0 l 142 0 q 128 14 128 0 l 128 774 q 122 779 128 779 l 36 779 q 22 793 22 779 l 22 808 q 36 822 22 822 l 122 822 q 128 828 128 822 l 128 958 q 142 972 128 972 l 168 972 q 182 958 182 972 l 182 828 q 188 822 182 822 l 426 822 q 440 808 440 822 l 440 793 q 426 779 440 779 l 188 779 q 182 774 182 779 l 182 608 q 184 603 182 604 q 188 606 186 603 q 270 681 218 654 q 392 707 322 707 z "},"i":{"ha":332,"x_min":111,"x_max":221,"o":"m 167 850 q 127 865 143 850 q 111 903 111 881 q 127 938 111 924 q 167 953 143 953 q 206 938 190 953 q 221 903 221 924 q 206 865 221 879 q 167 850 190 850 m 153 0 q 139 14 139 0 l 139 683 q 153 697 139 697 l 179 697 q 193 683 193 697 l 193 14 q 179 0 193 0 l 153 0 z "},"ı":{"ha":294,"x_min":118,"x_max":172,"o":"m 132 0 q 118 14 118 0 l 118 683 q 132 697 118 697 l 158 697 q 172 683 172 697 l 172 14 q 158 0 172 0 l 132 0 z "},"í":{"ha":294,"x_min":101,"x_max":244,"o":"m 132 0 q 118 14 118 0 l 118 683 q 132 697 118 697 l 158 697 q 172 683 172 697 l 172 14 q 158 0 172 0 l 132 0 m 114 817 q 103 822 106 817 q 104 833 100 826 l 189 988 q 206 997 193 997 l 232 997 q 243 992 240 997 q 242 981 246 988 l 150 826 q 133 817 143 817 l 114 817 z "},"î":{"ha":294,"x_min":-7,"x_max":294,"o":"m 132 0 q 118 14 118 0 l 118 683 q 132 697 118 697 l 158 697 q 172 683 172 697 l 172 14 q 158 0 172 0 l 132 0 m 4 804 q -7 810 -4 804 q -4 821 -10 815 l 111 971 q 129 979 117 979 l 158 979 q 176 971 171 979 l 292 821 q 294 813 294 818 q 292 807 294 810 q 283 804 289 804 l 263 804 q 244 813 250 804 l 149 939 q 144 942 147 942 q 140 939 142 942 l 43 813 q 25 804 38 804 l 4 804 z "},"ï":{"ha":410,"x_min":44,"x_max":365,"o":"m 196 0 q 182 14 182 0 l 182 683 q 196 697 182 697 l 222 697 q 236 683 236 697 l 236 14 q 222 0 236 0 l 196 0 m 97 864 q 59 878 74 864 q 44 914 44 892 q 60 948 44 933 q 97 963 75 963 q 132 948 118 963 q 146 914 146 933 q 132 878 146 892 q 97 864 118 864 m 315 864 q 278 878 293 864 q 264 914 264 892 q 278 948 264 933 q 315 963 293 963 q 351 949 336 963 q 365 914 365 935 q 351 878 365 892 q 315 864 338 864 z "},"ì":{"ha":294,"x_min":15,"x_max":172,"o":"m 132 0 q 118 14 118 0 l 118 683 q 132 697 118 697 l 158 697 q 172 683 172 697 l 172 14 q 158 0 172 0 l 132 0 m 156 833 q 158 825 158 828 q 146 817 158 817 l 126 817 q 110 826 117 817 l 18 981 q 15 989 15 986 q 28 997 15 997 l 54 997 q 71 988 67 997 l 156 833 z "},"ĳ":{"ha":642,"x_min":111,"x_max":542,"o":"m 167 850 q 127 865 143 850 q 111 903 111 881 q 127 938 111 924 q 167 953 143 953 q 206 938 190 953 q 221 903 221 924 q 206 865 221 879 q 167 850 190 850 m 153 0 q 139 14 139 0 l 139 683 q 153 697 139 697 l 179 697 q 193 683 193 697 l 193 14 q 179 0 193 0 l 153 0 m 486 849 q 447 863 463 849 q 432 901 432 878 q 447 939 432 925 q 486 953 463 953 q 526 939 511 953 q 542 901 542 925 q 527 863 542 878 q 486 849 513 849 m 310 -292 q 296 -278 296 -292 l 296 -257 q 310 -243 296 -243 q 420 -200 382 -240 q 458 -89 458 -160 l 458 683 q 472 697 458 697 l 499 697 q 513 683 513 697 l 513 -87 q 461 -237 513 -185 q 310 -292 410 -289 z "},"ī":{"ha":294,"x_min":-33,"x_max":324,"o":"m 132 0 q 118 14 118 0 l 118 683 q 132 697 118 697 l 158 697 q 172 683 172 697 l 172 14 q 158 0 172 0 l 132 0 m -19 847 q -33 861 -33 847 l -33 878 q -19 892 -33 892 l 310 892 q 324 878 324 892 l 324 861 q 310 847 324 847 l -19 847 z "},"į":{"ha":399,"x_min":111,"x_max":285,"o":"m 208 0 q 194 14 194 0 l 194 683 q 208 697 194 697 l 235 697 q 249 683 249 697 l 249 14 q 235 0 249 0 l 208 0 m 222 839 q 185 853 200 839 q 171 888 171 867 q 185 921 171 907 q 222 935 200 935 q 257 921 243 935 q 271 888 271 907 q 257 853 271 867 q 222 839 243 839 m 285 -237 q 274 -250 285 -249 q 229 -254 253 -254 q 155 -235 186 -254 q 114 -174 124 -217 q 111 -144 111 -154 q 194 -6 111 -69 q 213 0 201 0 l 221 0 q 233 -6 231 0 q 228 -17 235 -11 q 157 -140 157 -82 q 177 -197 157 -179 q 231 -215 197 -215 q 264 -211 247 -215 l 268 -211 q 282 -222 278 -211 l 285 -233 l 285 -237 z "},"j":{"ha":313,"x_min":-33,"x_max":213,"o":"m 157 849 q 118 863 133 849 q 103 901 103 878 q 118 939 103 925 q 157 953 133 953 q 197 939 182 953 q 213 901 213 925 q 198 863 213 878 q 157 849 183 849 m -19 -292 q -33 -278 -33 -292 l -33 -257 q -19 -243 -33 -243 q 91 -200 53 -240 q 129 -89 129 -160 l 129 683 q 143 697 129 697 l 169 697 q 183 683 183 697 l 183 -87 q 132 -237 183 -185 q -19 -292 81 -289 z "},"k":{"ha":675,"x_min":128,"x_max":626,"o":"m 142 0 q 128 14 128 0 l 128 958 q 142 972 128 972 l 168 972 q 182 958 182 972 l 182 347 q 184 343 182 344 q 189 344 186 342 l 531 690 q 547 697 538 697 l 582 697 q 592 692 590 697 q 589 681 594 688 l 414 499 q 413 492 411 496 l 625 17 l 626 11 q 614 0 626 0 l 586 0 q 571 11 575 0 l 375 453 q 368 454 372 458 l 185 271 q 182 264 182 268 l 182 14 q 168 0 182 0 l 142 0 z "},"l":{"ha":311,"x_min":129,"x_max":183,"o":"m 143 0 q 129 14 129 0 l 129 958 q 143 972 129 972 l 169 972 q 183 958 183 972 l 183 14 q 169 0 183 0 l 143 0 z "},"ĺ":{"ha":311,"x_min":114,"x_max":257,"o":"m 143 0 q 129 14 129 0 l 129 958 q 143 972 129 972 l 169 972 q 183 958 183 972 l 183 14 q 169 0 183 0 l 143 0 m 126 1079 q 115 1084 118 1079 q 117 1096 113 1089 l 201 1250 q 218 1260 206 1260 l 244 1260 q 256 1255 253 1260 q 254 1243 258 1250 l 163 1089 q 146 1079 156 1079 l 126 1079 z "},"ľ":{"ha":311,"x_min":6,"x_max":306,"o":"m 143 0 q 129 14 129 0 l 129 958 q 143 972 129 972 l 169 972 q 183 958 183 972 l 183 14 q 169 0 183 0 l 143 0 m 140 1050 q 122 1058 128 1050 l 8 1207 q 6 1215 6 1210 q 8 1221 6 1218 q 17 1224 11 1224 l 38 1224 q 56 1215 50 1224 l 153 1089 q 157 1086 154 1086 q 161 1089 160 1086 l 256 1215 q 274 1224 261 1224 l 294 1224 q 306 1218 303 1224 q 303 1207 308 1213 l 188 1058 q 169 1050 182 1050 l 140 1050 z "},"ļ":{"ha":311,"x_min":33,"x_max":183,"o":"m 143 0 q 129 14 129 0 l 129 958 q 143 972 129 972 l 169 972 q 183 958 183 972 l 183 14 q 169 0 183 0 l 143 0 z "},"ł":{"ha":311,"x_min":7,"x_max":346,"o":"m 343 578 q 346 569 346 572 q 339 560 346 564 l 188 465 q 183 458 183 464 l 183 14 q 169 0 183 0 l 143 0 q 129 14 129 0 l 129 421 q 126 425 129 424 q 122 425 124 426 l 39 372 q 31 369 33 369 q 19 378 24 369 l 10 394 q 7 403 7 400 q 14 413 7 410 l 125 482 q 129 489 129 485 l 129 958 q 143 972 129 972 l 169 972 q 183 958 183 972 l 183 528 q 186 524 183 525 q 190 524 189 522 l 313 601 q 321 604 318 604 q 332 596 328 604 l 343 578 z "},"m":{"ha":1150,"x_min":128,"x_max":1033,"o":"m 810 707 q 972 647 911 707 q 1033 481 1033 586 l 1033 14 q 1019 0 1033 0 l 993 0 q 979 14 979 0 l 979 471 q 929 608 979 557 q 797 658 879 658 q 658 609 710 658 q 607 474 607 560 l 607 14 q 593 0 607 0 l 567 0 q 553 14 553 0 l 553 471 q 503 608 553 557 q 372 658 453 658 q 233 609 285 658 q 182 474 182 560 l 182 14 q 168 0 182 0 l 142 0 q 128 14 128 0 l 128 683 q 142 697 128 697 l 168 697 q 182 683 182 697 l 182 614 q 184 610 182 610 q 189 613 186 610 q 269 683 218 658 q 385 707 319 707 q 510 674 457 707 q 589 582 564 642 q 592 579 590 579 q 594 582 593 579 q 677 675 621 643 q 810 707 733 707 z "},"n":{"ha":744,"x_min":128,"x_max":626,"o":"m 392 707 q 561 642 496 707 q 626 472 626 578 l 626 14 q 613 0 626 0 l 586 0 q 572 14 572 0 l 572 463 q 519 603 572 549 q 382 658 465 658 q 237 605 292 658 q 182 465 182 551 l 182 14 q 168 0 182 0 l 142 0 q 128 14 128 0 l 128 683 q 142 697 128 697 l 168 697 q 182 683 182 697 l 182 608 q 184 603 182 604 q 188 606 186 603 q 270 681 218 654 q 392 707 322 707 z "},"ń":{"ha":744,"x_min":128,"x_max":626,"o":"m 392 707 q 561 642 496 707 q 626 472 626 578 l 626 14 q 613 0 626 0 l 586 0 q 572 14 572 0 l 572 463 q 519 603 572 549 q 382 658 465 658 q 237 605 292 658 q 182 465 182 551 l 182 14 q 168 0 182 0 l 142 0 q 128 14 128 0 l 128 683 q 142 697 128 697 l 168 697 q 182 683 182 697 l 182 608 q 184 603 182 604 q 188 606 186 603 q 270 681 218 654 q 392 707 322 707 m 342 804 q 331 809 333 804 q 332 821 328 814 l 417 975 q 433 985 421 985 l 460 985 q 471 980 468 985 q 469 968 474 975 l 378 814 q 361 804 371 804 l 342 804 z "},"ň":{"ha":744,"x_min":128,"x_max":626,"o":"m 392 707 q 561 642 496 707 q 626 472 626 578 l 626 14 q 613 0 626 0 l 586 0 q 572 14 572 0 l 572 463 q 519 603 572 549 q 382 658 465 658 q 237 605 292 658 q 182 465 182 551 l 182 14 q 168 0 182 0 l 142 0 q 128 14 128 0 l 128 683 q 142 697 128 697 l 168 697 q 182 683 182 697 l 182 608 q 184 603 182 604 q 188 606 186 603 q 270 681 218 654 q 392 707 322 707 m 356 786 q 338 794 343 786 l 224 944 q 221 953 221 947 q 224 958 221 956 q 232 961 226 961 l 253 961 q 271 953 265 961 l 368 826 q 372 824 369 824 q 376 826 375 824 l 471 953 q 489 961 476 961 l 510 961 q 521 956 518 961 q 518 944 524 951 l 403 794 q 385 786 397 786 l 356 786 z "},"ŋ":{"ha":744,"x_min":128,"x_max":628,"o":"m 628 281 l 628 281 l 628 -26 q 585 -172 628 -119 q 454 -229 542 -225 q 440 -215 440 -229 l 440 -196 q 454 -182 440 -182 q 543 -135 513 -176 q 574 -26 574 -93 l 574 -3 l 574 0 l 572 0 l 572 463 q 519 603 572 549 q 382 658 465 658 q 237 605 292 658 q 182 465 182 551 l 182 14 q 168 0 182 0 l 142 0 q 128 14 128 0 l 128 683 q 142 697 128 697 l 168 697 q 182 683 182 697 l 182 608 q 184 604 182 604 q 189 607 186 604 q 272 681 219 656 q 392 707 324 707 q 561 642 496 707 q 626 472 626 578 l 626 283 l 628 281 z "},"ñ":{"ha":744,"x_min":128,"x_max":626,"o":"m 392 707 q 561 642 496 707 q 626 472 626 578 l 626 14 q 613 0 626 0 l 586 0 q 572 14 572 0 l 572 463 q 519 603 572 549 q 382 658 465 658 q 237 605 292 658 q 182 465 182 551 l 182 14 q 168 0 182 0 l 142 0 q 128 14 128 0 l 128 683 q 142 697 128 697 l 168 697 q 182 683 182 697 l 182 608 q 184 603 182 604 q 188 606 186 603 q 270 681 218 654 q 392 707 322 707 m 460 833 q 417 842 436 833 q 378 867 399 851 q 342 890 356 883 q 311 896 329 896 q 272 888 288 896 q 238 857 256 881 q 218 853 229 846 l 208 860 q 204 879 199 868 q 310 940 244 940 q 348 933 332 940 q 392 908 364 925 q 429 885 414 893 q 460 878 444 878 q 499 887 482 878 q 535 921 517 896 q 553 925 542 932 l 561 921 q 568 908 568 917 q 563 893 568 900 q 514 848 542 863 q 460 833 486 833 z "},"o":{"ha":742,"x_min":104,"x_max":636,"o":"m 371 -11 q 207 40 274 -11 q 118 175 140 90 q 107 247 110 207 q 104 350 104 286 q 106 454 104 415 q 117 524 108 493 q 207 658 139 607 q 371 708 275 708 q 537 658 468 708 q 625 524 606 607 q 634 456 632 493 q 636 350 636 418 q 634 242 636 279 q 625 175 632 206 q 536 40 604 90 q 371 -11 468 -11 m 371 38 q 506 81 451 38 q 575 196 560 125 q 581 259 579 217 q 582 349 582 301 q 581 441 582 400 q 575 501 579 482 q 506 616 561 572 q 369 660 450 660 q 236 616 290 660 q 167 501 182 572 q 158 349 158 465 q 167 196 158 231 q 236 81 182 124 q 371 38 290 38 z "},"ó":{"ha":742,"x_min":104,"x_max":636,"o":"m 371 -11 q 207 40 274 -11 q 118 175 140 90 q 107 247 110 207 q 104 350 104 286 q 106 454 104 415 q 117 524 108 493 q 207 658 139 607 q 371 708 275 708 q 537 658 468 708 q 625 524 606 607 q 634 456 632 493 q 636 350 636 418 q 634 242 636 279 q 625 175 632 206 q 536 40 604 90 q 371 -11 468 -11 m 371 38 q 506 81 451 38 q 575 196 560 125 q 581 259 579 217 q 582 349 582 301 q 581 441 582 400 q 575 501 579 482 q 506 616 561 572 q 369 660 450 660 q 236 616 290 660 q 167 501 182 572 q 158 349 158 465 q 167 196 158 231 q 236 81 182 124 q 371 38 290 38 m 339 815 q 328 820 331 815 q 329 832 325 825 l 414 986 q 431 996 418 996 l 457 996 q 468 991 465 996 q 467 979 471 986 l 375 825 q 358 815 368 815 l 339 815 z "},"ô":{"ha":742,"x_min":104,"x_max":636,"o":"m 371 -11 q 207 40 274 -11 q 118 175 140 90 q 107 247 110 207 q 104 350 104 286 q 106 454 104 415 q 117 524 108 493 q 207 658 139 607 q 371 708 275 708 q 537 658 468 708 q 625 524 606 607 q 634 456 632 493 q 636 350 636 418 q 634 242 636 279 q 625 175 632 206 q 536 40 604 90 q 371 -11 468 -11 m 371 38 q 506 81 451 38 q 575 196 560 125 q 581 259 579 217 q 582 349 582 301 q 581 441 582 400 q 575 501 579 482 q 506 616 561 572 q 369 660 450 660 q 236 616 290 660 q 167 501 182 572 q 158 349 158 465 q 167 196 158 231 q 236 81 182 124 q 371 38 290 38 m 229 803 q 218 808 221 803 q 221 819 215 814 l 336 969 q 354 978 342 978 l 383 978 q 401 969 396 978 l 517 819 q 519 811 519 817 q 517 806 519 808 q 508 803 514 803 l 488 803 q 469 811 475 803 l 374 938 q 369 940 372 940 q 365 938 367 940 l 268 811 q 250 803 263 803 l 229 803 z "},"ö":{"ha":742,"x_min":104,"x_max":636,"o":"m 371 -11 q 207 40 274 -11 q 118 175 140 90 q 107 247 110 207 q 104 350 104 286 q 106 454 104 415 q 117 524 108 493 q 207 658 139 607 q 371 708 275 708 q 537 658 468 708 q 625 524 606 607 q 634 456 632 493 q 636 350 636 418 q 634 242 636 279 q 625 175 632 206 q 536 40 604 90 q 371 -11 468 -11 m 371 38 q 506 81 451 38 q 575 196 560 125 q 581 259 579 217 q 582 349 582 301 q 581 441 582 400 q 575 501 579 482 q 506 616 561 572 q 369 660 450 660 q 236 616 290 660 q 167 501 182 572 q 158 349 158 465 q 167 196 158 231 q 236 81 182 124 q 371 38 290 38 m 263 863 q 224 876 239 863 q 210 913 210 890 q 225 947 210 932 q 263 961 240 961 q 297 947 283 961 q 311 913 311 932 q 297 876 311 890 q 263 863 283 863 m 481 863 q 444 876 458 863 q 429 913 429 890 q 444 947 429 932 q 481 961 458 961 q 516 947 501 961 q 531 913 531 933 q 517 876 531 890 q 481 863 503 863 z "},"ò":{"ha":742,"x_min":104,"x_max":636,"o":"m 371 -11 q 207 40 274 -11 q 118 175 140 90 q 107 247 110 207 q 104 350 104 286 q 106 454 104 415 q 117 524 108 493 q 207 658 139 607 q 371 708 275 708 q 537 658 468 708 q 625 524 606 607 q 634 456 632 493 q 636 350 636 418 q 634 242 636 279 q 625 175 632 206 q 536 40 604 90 q 371 -11 468 -11 m 371 38 q 506 81 451 38 q 575 196 560 125 q 581 259 579 217 q 582 349 582 301 q 581 441 582 400 q 575 501 579 482 q 506 616 561 572 q 369 660 450 660 q 236 616 290 660 q 167 501 182 572 q 158 349 158 465 q 167 196 158 231 q 236 81 182 124 q 371 38 290 38 m 381 832 q 383 824 383 826 q 371 815 383 815 l 351 815 q 335 825 342 815 l 243 979 q 240 988 240 985 q 253 996 240 996 l 279 996 q 296 986 292 996 l 381 832 z "},"ő":{"ha":742,"x_min":104,"x_max":636,"o":"m 371 -11 q 207 40 274 -11 q 118 175 140 90 q 107 247 110 207 q 104 350 104 286 q 106 454 104 415 q 117 524 108 493 q 207 658 139 607 q 371 708 275 708 q 537 658 468 708 q 625 524 606 607 q 634 456 632 493 q 636 350 636 418 q 634 242 636 279 q 625 175 632 206 q 536 40 604 90 q 371 -11 468 -11 m 371 38 q 506 81 451 38 q 575 196 560 125 q 581 259 579 217 q 582 349 582 301 q 581 441 582 400 q 575 501 579 482 q 506 616 561 572 q 369 660 450 660 q 236 616 290 660 q 167 501 182 572 q 158 349 158 465 q 167 196 158 231 q 236 81 182 124 q 371 38 290 38 m 244 813 q 233 817 236 813 q 233 829 229 822 l 317 983 q 333 993 321 993 l 357 993 q 368 988 365 993 q 367 976 371 983 l 281 822 q 264 813 274 813 l 244 813 m 460 813 q 449 817 451 813 q 450 829 446 822 l 535 983 q 551 993 539 993 l 574 993 q 585 988 582 993 q 583 976 588 983 l 496 822 q 479 813 489 813 l 460 813 z "},"ō":{"ha":742,"x_min":104,"x_max":636,"o":"m 371 -11 q 207 40 274 -11 q 118 175 140 90 q 107 247 110 207 q 104 350 104 286 q 106 454 104 415 q 117 524 108 493 q 207 658 139 607 q 371 708 275 708 q 537 658 468 708 q 625 524 606 607 q 634 456 632 493 q 636 350 636 418 q 634 242 636 279 q 625 175 632 206 q 536 40 604 90 q 371 -11 468 -11 m 371 38 q 506 81 451 38 q 575 196 560 125 q 581 259 579 217 q 582 349 582 301 q 581 441 582 400 q 575 501 579 482 q 506 616 561 572 q 369 660 450 660 q 236 616 290 660 q 167 501 182 572 q 158 349 158 465 q 167 196 158 231 q 236 81 182 124 q 371 38 290 38 m 206 846 q 192 860 192 846 l 192 876 q 206 890 192 890 l 535 890 q 549 876 549 890 l 549 860 q 535 846 549 846 l 206 846 z "},"ø":{"ha":746,"x_min":104,"x_max":642,"o":"m 631 524 q 640 456 638 493 q 642 350 642 418 q 640 242 642 279 q 631 175 638 206 q 542 40 610 90 q 376 -11 474 -11 q 204 46 274 -11 q 197 44 200 50 l 151 -25 q 143 -32 149 -31 q 132 -29 138 -33 l 115 -18 q 111 1 104 -10 l 164 82 q 164 90 167 86 q 124 175 136 126 q 113 247 115 207 q 110 350 110 286 q 112 454 110 415 q 122 524 114 493 q 213 658 144 607 q 376 708 281 708 q 535 663 465 708 q 542 664 540 660 l 581 724 q 599 728 588 736 l 617 717 q 621 697 628 708 l 578 632 q 578 624 576 628 q 631 524 617 581 m 172 196 q 192 139 178 165 q 196 136 193 136 q 200 139 199 136 l 507 613 q 506 619 510 618 q 375 660 453 660 q 242 616 296 660 q 172 501 188 572 q 164 349 164 465 q 172 196 164 231 m 581 196 q 586 259 585 217 q 588 349 588 301 q 586 441 588 400 q 581 501 585 482 q 550 576 572 540 q 546 578 549 578 q 542 576 543 579 l 231 97 q 232 90 228 92 q 376 38 288 38 q 511 81 457 38 q 581 196 565 125 z "},"õ":{"ha":742,"x_min":104,"x_max":636,"o":"m 371 -11 q 207 40 274 -11 q 118 175 140 90 q 107 247 110 207 q 104 350 104 286 q 106 454 104 415 q 117 524 108 493 q 207 658 139 607 q 371 708 275 708 q 537 658 468 708 q 625 524 606 607 q 634 456 632 493 q 636 350 636 418 q 634 242 636 279 q 625 175 632 206 q 536 40 604 90 q 371 -11 468 -11 m 371 38 q 506 81 451 38 q 575 196 560 125 q 581 259 579 217 q 582 349 582 301 q 581 441 582 400 q 575 501 579 482 q 506 616 561 572 q 369 660 450 660 q 236 616 290 660 q 167 501 182 572 q 158 349 158 465 q 167 196 158 231 q 236 81 182 124 q 371 38 290 38 m 457 844 q 415 853 433 844 q 375 878 396 863 q 340 901 353 894 q 308 907 326 907 q 269 899 285 907 q 235 868 253 892 q 215 864 226 857 l 206 871 q 201 890 196 879 q 307 951 242 951 q 345 944 329 951 q 389 919 361 936 q 426 897 411 904 q 457 889 442 889 q 497 898 479 889 q 532 932 514 907 q 550 936 539 943 l 558 932 q 565 919 565 928 q 560 904 565 911 q 511 859 539 874 q 457 844 483 844 z "},"œ":{"ha":1182,"x_min":104,"x_max":1083,"o":"m 829 38 q 948 71 897 38 q 1021 160 999 104 q 1038 168 1025 172 l 1056 163 q 1065 144 1069 158 q 974 31 1038 74 q 825 -11 911 -11 q 688 26 746 -11 q 599 125 629 63 q 590 125 594 132 q 499 26 560 63 q 361 -11 439 -11 q 201 40 267 -11 q 115 175 136 90 q 106 243 108 206 q 104 350 104 281 q 106 458 104 422 q 115 524 108 493 q 201 658 135 607 q 361 708 268 708 q 498 672 438 708 q 589 572 558 635 q 597 572 593 567 q 688 672 628 635 q 824 708 747 708 q 985 657 918 708 q 1072 524 1053 606 q 1081 465 1079 496 q 1083 353 1083 435 q 1069 338 1083 338 l 626 338 q 621 332 621 338 q 622 249 621 286 q 628 196 624 213 q 695 81 642 124 q 829 38 749 38 m 558 196 q 564 293 564 217 l 564 349 l 564 407 q 558 501 564 482 q 492 615 546 571 q 361 660 439 660 q 231 616 283 660 q 165 501 179 572 q 158 349 158 465 q 165 196 158 232 q 231 81 179 125 q 361 38 283 38 q 492 82 439 38 q 558 196 546 126 m 824 660 q 693 616 746 660 q 628 501 640 572 q 621 383 621 472 q 626 378 621 378 l 1024 378 q 1029 383 1029 378 q 1022 501 1029 463 q 954 616 1007 572 q 824 660 901 660 z "},"p":{"ha":754,"x_min":140,"x_max":651,"o":"m 639 525 q 649 458 647 494 q 651 350 651 421 q 649 242 651 281 q 640 174 647 204 q 555 40 619 90 q 394 -11 490 -11 q 281 16 331 -11 q 201 90 231 43 q 197 93 199 93 q 194 89 194 93 l 194 -261 q 181 -275 194 -275 l 154 -275 q 140 -261 140 -275 l 140 683 q 154 697 140 697 l 181 697 q 194 683 194 697 l 194 608 q 197 604 194 604 q 201 607 199 604 q 281 682 232 656 q 394 708 331 708 q 553 658 489 708 q 639 525 618 608 m 583 183 q 594 239 592 208 q 597 347 597 269 q 594 453 597 424 q 585 511 592 483 q 519 618 572 576 q 390 660 465 660 q 267 617 315 660 q 206 511 219 575 q 197 458 199 488 q 194 350 194 429 q 197 240 194 269 q 207 185 199 210 q 268 79 219 121 q 389 38 317 38 q 515 78 463 38 q 583 183 568 119 z "},"þ":{"ha":740,"x_min":129,"x_max":638,"o":"m 626 524 q 635 456 633 493 q 638 347 638 418 q 635 240 638 276 q 625 172 633 203 q 540 39 604 89 q 381 -11 475 -11 q 269 15 318 -11 q 190 86 219 40 q 186 90 189 90 q 183 85 183 89 l 183 -264 q 169 -278 183 -278 l 143 -278 q 129 -264 129 -278 l 129 958 q 143 972 129 972 l 169 972 q 183 958 183 972 l 183 613 q 186 608 183 608 q 190 611 189 607 q 269 683 219 657 q 381 708 318 708 q 541 658 476 708 q 626 524 606 607 m 571 186 q 581 244 578 214 q 583 350 583 274 q 581 458 583 428 q 569 514 578 489 q 501 619 554 578 q 375 660 449 660 q 254 618 303 660 q 193 513 206 576 q 183 463 185 481 l 183 232 q 192 186 185 208 q 253 80 206 122 q 376 38 301 38 q 505 79 451 38 q 571 186 558 121 z "},"q":{"ha":754,"x_min":103,"x_max":614,"o":"m 560 683 q 574 697 560 697 l 600 697 q 614 683 614 697 l 614 -261 q 600 -275 614 -275 l 574 -275 q 560 -261 560 -275 l 560 89 q 558 93 560 93 q 553 90 556 93 q 474 16 524 43 q 360 -11 424 -11 q 199 40 264 -11 q 114 174 135 90 q 105 242 107 204 q 103 350 103 281 q 105 458 103 421 q 115 525 107 494 q 201 658 136 608 q 360 708 265 708 q 473 682 424 708 q 553 607 522 656 q 558 604 556 604 q 560 608 560 604 l 560 683 m 547 185 q 558 240 556 210 q 560 350 560 269 q 558 458 560 429 q 549 511 556 488 q 487 617 535 575 q 364 660 439 660 q 235 618 289 660 q 169 511 182 576 q 160 453 163 483 q 157 347 157 424 q 160 239 157 269 q 171 183 163 208 q 239 78 186 119 q 365 38 292 38 q 486 79 438 38 q 547 185 535 121 z "},"r":{"ha":494,"x_min":128,"x_max":471,"o":"m 378 703 q 460 688 426 703 q 467 669 471 683 l 457 642 q 440 635 453 628 q 371 644 410 646 q 274 615 317 644 q 206 538 231 586 q 182 431 182 489 l 182 14 q 168 0 182 0 l 142 0 q 128 14 128 0 l 128 683 q 142 697 128 697 l 168 697 q 182 683 182 697 l 182 579 q 184 574 182 575 q 188 578 186 574 q 265 669 217 636 q 378 703 314 703 z "},"ŕ":{"ha":494,"x_min":128,"x_max":468,"o":"m 378 703 q 460 688 426 703 q 467 669 471 683 l 457 642 q 440 635 453 628 q 371 644 410 646 q 274 615 317 644 q 206 538 231 586 q 182 431 182 489 l 182 14 q 168 0 182 0 l 142 0 q 128 14 128 0 l 128 683 q 142 697 128 697 l 168 697 q 182 683 182 697 l 182 579 q 184 574 182 575 q 188 578 186 574 q 265 669 217 636 q 378 703 314 703 m 272 817 q 261 822 264 817 q 263 833 258 826 l 347 988 q 364 997 351 997 l 390 997 q 401 992 399 997 q 400 981 404 988 l 308 826 q 292 817 301 817 l 272 817 z "},"ř":{"ha":494,"x_min":128,"x_max":468,"o":"m 378 703 q 460 688 426 703 q 467 669 471 683 l 457 642 q 440 635 453 628 q 371 644 410 646 q 274 615 317 644 q 206 538 231 586 q 182 431 182 489 l 182 14 q 168 0 182 0 l 142 0 q 128 14 128 0 l 128 683 q 142 697 128 697 l 168 697 q 182 683 182 697 l 182 579 q 184 574 182 575 q 188 578 186 574 q 265 669 217 636 q 378 703 314 703 m 286 799 q 268 807 274 799 l 154 957 q 151 965 151 960 q 154 971 151 968 q 163 974 157 974 l 183 974 q 201 965 196 974 l 299 839 q 303 836 300 836 q 307 839 306 836 l 401 965 q 419 974 407 974 l 440 974 q 451 969 449 974 q 449 957 454 964 l 333 807 q 315 799 328 799 l 286 799 z "},"s":{"ha":658,"x_min":90,"x_max":576,"o":"m 336 -6 q 208 18 264 -6 q 122 83 153 42 q 90 172 90 124 l 90 192 q 104 206 90 206 l 129 206 q 143 192 143 206 l 143 174 q 167 108 143 139 q 235 59 192 78 q 335 40 279 40 q 470 80 418 40 q 522 182 522 119 q 496 251 522 225 q 435 291 469 278 q 325 329 401 304 q 203 374 250 353 q 126 431 157 394 q 94 522 94 467 q 160 653 94 604 q 332 703 225 703 q 506 652 440 703 q 572 524 572 601 l 572 519 q 558 506 572 506 l 535 506 q 521 515 521 506 l 521 524 q 469 619 521 581 q 331 657 417 657 q 197 620 247 657 q 147 525 147 583 q 172 459 147 485 q 233 417 196 433 q 336 381 271 401 q 464 337 418 356 q 543 281 510 318 q 576 185 576 244 q 510 47 576 100 q 336 -6 444 -6 z "},"ś":{"ha":658,"x_min":90,"x_max":576,"o":"m 336 -6 q 208 18 264 -6 q 122 83 153 42 q 90 172 90 124 l 90 192 q 104 206 90 206 l 129 206 q 143 192 143 206 l 143 174 q 167 108 143 139 q 235 59 192 78 q 335 40 279 40 q 470 80 418 40 q 522 182 522 119 q 496 251 522 225 q 435 291 469 278 q 325 329 401 304 q 203 374 250 353 q 126 431 157 394 q 94 522 94 467 q 160 653 94 604 q 332 703 225 703 q 506 652 440 703 q 572 524 572 601 l 572 519 q 558 506 572 506 l 535 506 q 521 515 521 506 l 521 524 q 469 619 521 581 q 331 657 417 657 q 197 620 247 657 q 147 525 147 583 q 172 459 147 485 q 233 417 196 433 q 336 381 271 401 q 464 337 418 356 q 543 281 510 318 q 576 185 576 244 q 510 47 576 100 q 336 -6 444 -6 m 303 810 q 292 815 294 810 q 293 826 289 819 l 378 981 q 394 990 382 990 l 421 990 q 432 985 429 990 q 431 974 435 981 l 339 819 q 322 810 332 810 l 303 810 z "},"š":{"ha":658,"x_min":90,"x_max":576,"o":"m 336 -6 q 208 18 264 -6 q 122 83 153 42 q 90 172 90 124 l 90 192 q 104 206 90 206 l 129 206 q 143 192 143 206 l 143 174 q 167 108 143 139 q 235 59 192 78 q 335 40 279 40 q 470 80 418 40 q 522 182 522 119 q 496 251 522 225 q 435 291 469 278 q 325 329 401 304 q 203 374 250 353 q 126 431 157 394 q 94 522 94 467 q 160 653 94 604 q 332 703 225 703 q 506 652 440 703 q 572 524 572 601 l 572 519 q 558 506 572 506 l 535 506 q 521 515 521 506 l 521 524 q 469 619 521 581 q 331 657 417 657 q 197 620 247 657 q 147 525 147 583 q 172 459 147 485 q 233 417 196 433 q 336 381 271 401 q 464 337 418 356 q 543 281 510 318 q 576 185 576 244 q 510 47 576 100 q 336 -6 444 -6 m 317 792 q 299 800 304 792 l 185 950 q 182 958 182 953 q 185 964 182 961 q 193 967 188 967 l 214 967 q 232 958 226 967 l 329 832 q 333 829 331 829 q 338 832 336 829 l 432 958 q 450 967 438 967 l 471 967 q 482 962 479 967 q 479 950 485 957 l 364 800 q 346 792 358 792 l 317 792 z "},"ş":{"ha":658,"x_min":90,"x_max":576,"o":"m 576 185 q 519 55 576 107 q 365 -6 461 3 q 361 -8 361 -6 q 364 -11 361 -10 q 439 -143 439 -72 q 436 -172 439 -153 q 395 -234 426 -215 q 321 -253 364 -253 q 276 -249 297 -253 q 265 -232 263 -247 l 268 -221 q 286 -210 272 -208 q 318 -214 303 -214 q 372 -195 351 -214 q 393 -139 393 -176 q 313 -7 393 -78 q 306 -4 311 -4 q 150 53 210 3 q 90 172 90 103 l 90 192 q 104 206 90 206 l 129 206 q 143 192 143 206 l 143 174 q 167 108 143 139 q 235 59 192 78 q 335 40 279 40 q 470 80 418 40 q 522 182 522 119 q 496 251 522 225 q 435 291 469 278 q 325 329 401 304 q 203 374 250 353 q 126 431 157 394 q 94 522 94 467 q 160 653 94 604 q 332 703 225 703 q 506 652 440 703 q 572 524 572 601 l 572 519 q 558 506 572 506 l 535 506 q 521 515 521 506 l 521 524 q 469 619 521 581 q 331 657 417 657 q 197 620 247 657 q 147 525 147 583 q 172 459 147 485 q 233 417 196 433 q 336 381 271 401 q 464 337 418 356 q 543 281 510 318 q 576 185 576 244 z "},"ß":{"ha":806,"x_min":129,"x_max":701,"o":"m 143 0 q 129 14 129 0 l 129 725 q 165 863 129 804 q 262 953 200 922 q 403 985 324 985 q 617 918 542 985 q 693 731 693 851 q 658 597 693 651 q 561 518 624 542 q 558 515 558 517 q 561 513 558 514 q 664 422 626 486 q 701 264 701 357 q 622 69 701 139 q 388 0 543 0 l 272 0 q 258 14 258 0 l 258 33 q 272 47 258 47 l 392 47 q 583 104 519 47 q 647 267 647 161 q 426 492 647 488 l 315 492 q 301 506 301 492 l 301 524 q 315 538 301 538 l 429 538 q 587 587 535 538 q 639 728 639 636 q 580 883 639 829 q 404 938 521 938 q 247 881 310 938 q 183 728 183 825 l 183 14 q 169 0 183 0 l 143 0 z "},"t":{"ha":494,"x_min":58,"x_max":403,"o":"m 403 664 q 389 650 403 650 l 221 650 q 215 644 215 650 l 215 183 q 250 79 215 108 q 358 50 285 50 l 389 50 q 403 36 403 50 l 403 15 q 389 0 403 1 l 354 0 q 212 38 261 0 q 163 174 163 75 l 163 644 q 157 650 163 650 l 72 650 q 58 664 58 650 l 58 683 q 72 697 58 697 l 157 697 q 163 703 163 697 l 163 860 q 176 874 163 874 l 201 874 q 215 860 215 874 l 215 703 q 221 697 215 697 l 389 697 q 403 683 403 697 l 403 664 z "},"ŧ":{"ha":833,"x_min":58,"x_max":403,"o":"m 403 664 q 389 650 403 650 l 221 650 q 215 644 215 650 l 215 490 q 221 485 215 485 l 385 485 q 399 471 399 485 l 399 456 q 385 442 399 442 l 221 442 q 215 436 215 442 l 215 183 q 250 79 215 108 q 358 50 285 50 l 389 50 q 403 36 403 50 l 403 15 q 389 0 403 1 l 354 0 q 212 38 261 0 q 163 174 163 75 l 163 436 q 157 442 163 442 l 82 442 q 68 456 68 442 l 68 471 q 82 485 68 485 l 157 485 q 163 490 163 485 l 163 644 q 157 650 163 650 l 72 650 q 58 664 58 650 l 58 683 q 72 697 58 697 l 157 697 q 163 703 163 697 l 163 860 q 176 874 163 874 l 201 874 q 215 860 215 874 l 215 703 q 221 697 215 697 l 389 697 q 403 683 403 697 l 403 664 z "},"ť":{"ha":494,"x_min":39,"x_max":403,"o":"m 403 664 q 389 650 403 650 l 221 650 q 215 644 215 650 l 215 183 q 250 79 215 108 q 358 50 285 50 l 389 50 q 403 36 403 50 l 403 15 q 389 0 403 1 l 354 0 q 212 38 261 0 q 163 174 163 75 l 163 644 q 157 650 163 650 l 72 650 q 58 664 58 650 l 58 683 q 72 697 58 697 l 157 697 q 163 703 163 697 l 163 860 q 176 874 163 874 l 201 874 q 215 860 215 874 l 215 703 q 221 697 215 697 l 389 697 q 403 683 403 697 l 403 664 m 174 951 q 156 960 161 951 l 42 1108 q 39 1117 39 1111 q 42 1122 39 1119 q 50 1125 44 1125 l 71 1125 q 89 1117 83 1125 l 186 990 q 190 988 188 988 q 194 990 193 988 l 289 1117 q 307 1125 294 1125 l 328 1125 q 339 1119 336 1125 q 336 1108 342 1114 l 221 960 q 203 951 215 951 l 174 951 z "},"u":{"ha":742,"x_min":117,"x_max":614,"o":"m 560 683 q 574 697 560 697 l 600 697 q 614 683 614 697 l 614 14 q 600 0 614 0 l 574 0 q 560 14 560 0 l 560 88 q 558 92 560 92 q 553 89 556 92 q 471 15 522 40 q 351 -10 419 -10 q 183 52 249 -10 q 117 219 117 114 l 117 683 q 131 697 117 697 l 157 697 q 171 683 171 697 l 171 232 q 223 91 171 143 q 361 39 275 39 q 506 92 451 39 q 560 232 560 146 l 560 683 z "},"ú":{"ha":742,"x_min":117,"x_max":614,"o":"m 560 683 q 574 697 560 697 l 600 697 q 614 683 614 697 l 614 14 q 600 0 614 0 l 574 0 q 560 14 560 0 l 560 88 q 558 92 560 92 q 553 89 556 92 q 471 15 522 40 q 351 -10 419 -10 q 183 52 249 -10 q 117 219 117 114 l 117 683 q 131 697 117 697 l 157 697 q 171 683 171 697 l 171 232 q 223 91 171 143 q 361 39 275 39 q 506 92 451 39 q 560 232 560 146 l 560 683 m 340 804 q 329 809 332 804 q 331 821 326 814 l 415 975 q 432 985 419 985 l 458 985 q 469 980 467 985 q 468 968 472 975 l 376 814 q 360 804 369 804 l 340 804 z "},"û":{"ha":742,"x_min":117,"x_max":614,"o":"m 560 683 q 574 697 560 697 l 600 697 q 614 683 614 697 l 614 14 q 600 0 614 0 l 574 0 q 560 14 560 0 l 560 88 q 558 92 560 92 q 553 89 556 92 q 471 15 522 40 q 351 -10 419 -10 q 183 52 249 -10 q 117 219 117 114 l 117 683 q 131 697 117 697 l 157 697 q 171 683 171 697 l 171 232 q 223 91 171 143 q 361 39 275 39 q 506 92 451 39 q 560 232 560 146 l 560 683 m 231 792 q 219 797 222 792 q 222 808 217 803 l 338 958 q 356 967 343 967 l 385 967 q 403 958 397 967 l 518 808 q 521 800 521 806 q 518 794 521 797 q 510 792 515 792 l 489 792 q 471 800 476 792 l 375 926 q 371 929 374 929 q 367 926 368 929 l 269 800 q 251 792 264 792 l 231 792 z "},"ü":{"ha":742,"x_min":117,"x_max":614,"o":"m 560 683 q 574 697 560 697 l 600 697 q 614 683 614 697 l 614 14 q 600 0 614 0 l 574 0 q 560 14 560 0 l 560 88 q 558 92 560 92 q 553 89 556 92 q 471 15 522 40 q 351 -10 419 -10 q 183 52 249 -10 q 117 219 117 114 l 117 683 q 131 697 117 697 l 157 697 q 171 683 171 697 l 171 232 q 223 91 171 143 q 361 39 275 39 q 506 92 451 39 q 560 232 560 146 l 560 683 m 264 851 q 226 865 240 851 q 211 901 211 879 q 226 935 211 921 q 264 950 242 950 q 299 935 285 950 q 313 901 313 921 q 299 865 313 879 q 264 851 285 851 m 482 851 q 445 865 460 851 q 431 901 431 879 q 445 935 431 921 q 482 950 460 950 q 517 936 503 950 q 532 901 532 922 q 518 865 532 879 q 482 851 504 851 z "},"ù":{"ha":742,"x_min":117,"x_max":614,"o":"m 560 683 q 574 697 560 697 l 600 697 q 614 683 614 697 l 614 14 q 600 0 614 0 l 574 0 q 560 14 560 0 l 560 88 q 558 92 560 92 q 553 89 556 92 q 471 15 522 40 q 351 -10 419 -10 q 183 52 249 -10 q 117 219 117 114 l 117 683 q 131 697 117 697 l 157 697 q 171 683 171 697 l 171 232 q 223 91 171 143 q 361 39 275 39 q 506 92 451 39 q 560 232 560 146 l 560 683 m 382 821 q 385 813 385 815 q 372 804 385 804 l 353 804 q 336 814 343 804 l 244 968 q 242 976 242 974 q 254 985 242 985 l 281 985 q 297 975 293 985 l 382 821 z "},"ű":{"ha":742,"x_min":117,"x_max":614,"o":"m 560 683 q 574 697 560 697 l 600 697 q 614 683 614 697 l 614 14 q 600 0 614 0 l 574 0 q 560 14 560 0 l 560 88 q 558 92 560 92 q 553 89 556 92 q 471 15 522 40 q 351 -10 419 -10 q 183 52 249 -10 q 117 219 117 114 l 117 683 q 131 697 117 697 l 157 697 q 171 683 171 697 l 171 232 q 223 91 171 143 q 361 39 275 39 q 506 92 451 39 q 560 232 560 146 l 560 683 m 246 801 q 234 806 238 801 q 235 818 231 811 l 318 972 q 335 982 322 982 l 358 982 q 369 977 367 982 q 368 965 372 972 l 282 811 q 265 801 275 801 l 246 801 m 461 801 q 450 806 453 801 q 451 818 447 811 l 536 972 q 553 982 540 982 l 575 982 q 586 977 583 982 q 585 965 589 972 l 497 811 q 481 801 490 801 l 461 801 z "},"ū":{"ha":742,"x_min":117,"x_max":614,"o":"m 560 683 q 574 697 560 697 l 600 697 q 614 683 614 697 l 614 14 q 600 0 614 0 l 574 0 q 560 14 560 0 l 560 88 q 558 92 560 92 q 553 89 556 92 q 471 15 522 40 q 351 -10 419 -10 q 183 52 249 -10 q 117 219 117 114 l 117 683 q 131 697 117 697 l 157 697 q 171 683 171 697 l 171 232 q 223 91 171 143 q 361 39 275 39 q 506 92 451 39 q 560 232 560 146 l 560 683 m 207 835 q 193 849 193 835 l 193 865 q 207 879 193 879 l 536 879 q 550 865 550 879 l 550 849 q 536 835 550 835 l 207 835 z "},"ģ":{"ha":731,"x_min":99,"x_max":615,"o":"m 438 972 q 449 967 446 972 q 447 956 451 963 l 363 801 q 346 792 358 792 l 319 792 q 308 797 311 792 q 310 808 306 801 l 401 963 q 418 972 408 972 l 438 972 m 561 683 q 575 697 561 697 l 601 697 q 615 683 615 697 l 615 8 q 528 -211 615 -140 q 272 -276 440 -282 q 258 -262 258 -276 l 260 -239 q 274 -225 260 -225 q 492 -171 422 -229 q 561 10 561 -112 l 561 93 q 559 97 561 97 q 554 94 557 97 q 476 19 525 46 q 358 -8 426 -8 q 201 41 267 -8 q 114 175 136 90 q 99 347 99 231 q 114 526 99 464 q 201 658 136 608 q 357 708 265 708 q 474 681 424 708 q 554 607 524 654 q 558 603 556 603 q 561 608 561 604 l 561 683 m 556 196 q 560 249 558 218 q 561 349 561 281 q 560 448 561 417 q 556 503 558 479 q 494 615 544 571 q 365 660 443 660 q 237 615 289 660 q 165 503 185 571 q 154 350 154 458 q 165 197 154 236 q 235 83 182 128 q 365 39 289 39 q 494 84 444 39 q 556 196 544 129 z "},"ķ":{"ha":675,"x_min":128,"x_max":626,"o":"m 142 0 q 128 14 128 0 l 128 958 q 142 972 128 972 l 168 972 q 182 958 182 972 l 182 347 q 184 343 182 344 q 189 344 186 342 l 531 690 q 547 697 538 697 l 582 697 q 592 692 590 697 q 589 681 594 688 l 414 499 q 413 492 411 496 l 625 17 l 626 11 q 614 0 626 0 l 586 0 q 571 11 575 0 l 375 453 q 368 454 372 458 l 185 271 q 182 264 182 268 l 182 14 q 168 0 182 0 l 142 0 z "},"ņ":{"ha":744,"x_min":128,"x_max":626,"o":"m 392 707 q 561 642 496 707 q 626 472 626 578 l 626 14 q 613 0 626 0 l 586 0 q 572 14 572 0 l 572 463 q 519 603 572 549 q 382 658 465 658 q 237 605 292 658 q 182 465 182 551 l 182 14 q 168 0 182 0 l 142 0 q 128 14 128 0 l 128 683 q 142 697 128 697 l 168 697 q 182 683 182 697 l 182 608 q 184 603 182 604 q 188 606 186 603 q 270 681 218 654 q 392 707 322 707 z "},"ŗ":{"ha":497,"x_min":33,"x_max":468,"o":"m 378 703 q 460 688 426 703 q 467 669 471 683 l 457 642 q 440 635 453 628 q 371 644 410 646 q 274 615 317 644 q 206 538 231 586 q 182 431 182 489 l 182 14 q 168 0 182 0 l 142 0 q 128 14 128 0 l 128 683 q 142 697 128 697 l 168 697 q 182 683 182 697 l 182 579 q 184 574 182 575 q 188 578 186 574 q 265 669 217 636 q 378 703 314 703 z "},"ţ":{"ha":494,"x_min":58,"x_max":417,"o":"m 346 0 q 342 -3 343 0 q 344 -7 342 -6 q 417 -136 417 -68 q 414 -165 417 -156 q 373 -227 404 -208 q 299 -246 342 -246 q 254 -242 275 -246 q 243 -225 240 -240 l 246 -214 q 264 -203 250 -201 q 296 -207 281 -207 q 350 -189 329 -207 q 371 -132 371 -171 q 286 3 371 -68 q 279 7 286 4 q 192 57 222 18 q 163 174 163 96 l 163 644 q 157 650 163 650 l 72 650 q 58 664 58 650 l 58 683 q 72 697 58 697 l 157 697 q 163 703 163 697 l 163 860 q 176 874 163 874 l 201 874 q 215 860 215 874 l 215 703 q 221 697 215 697 l 389 697 q 403 683 403 697 l 403 664 q 389 650 403 650 l 221 650 q 215 644 215 650 l 215 183 q 250 79 215 108 q 358 50 285 50 l 389 50 q 403 36 403 50 l 403 15 q 389 0 403 1 l 354 0 l 346 0 z "},"ș":{"ha":658,"x_min":90,"x_max":576,"o":"m 336 -6 q 208 18 264 -6 q 122 83 153 42 q 90 172 90 124 l 90 192 q 104 206 90 206 l 129 206 q 143 192 143 206 l 143 174 q 167 108 143 139 q 235 59 192 78 q 335 40 279 40 q 470 80 418 40 q 522 182 522 119 q 496 251 522 225 q 435 291 469 278 q 325 329 401 304 q 203 374 250 353 q 126 431 157 394 q 94 522 94 467 q 160 653 94 604 q 332 703 225 703 q 506 652 440 703 q 572 524 572 601 l 572 519 q 558 506 572 506 l 535 506 q 521 515 521 506 l 521 524 q 469 619 521 581 q 331 657 417 657 q 197 620 247 657 q 147 525 147 583 q 172 459 147 485 q 233 417 196 433 q 336 381 271 401 q 464 337 418 356 q 543 281 510 318 q 576 185 576 244 q 510 47 576 100 q 336 -6 444 -6 z "},"ț":{"ha":494,"x_min":58,"x_max":403,"o":"m 403 664 q 389 650 403 650 l 221 650 q 215 644 215 650 l 215 183 q 250 79 215 108 q 358 50 285 50 l 389 50 q 403 36 403 50 l 403 15 q 389 0 403 1 l 354 0 q 212 38 261 0 q 163 174 163 75 l 163 644 q 157 650 163 650 l 72 650 q 58 664 58 650 l 58 683 q 72 697 58 697 l 157 697 q 163 703 163 697 l 163 860 q 176 874 163 874 l 201 874 q 215 860 215 874 l 215 703 q 221 697 215 697 l 389 697 q 403 683 403 697 l 403 664 z "},"ų":{"ha":743,"x_min":117,"x_max":651,"o":"m 635 -211 q 647 -222 644 -211 l 650 -233 l 651 -240 q 640 -250 651 -247 q 596 -254 619 -254 q 522 -235 553 -254 q 481 -174 490 -217 q 478 -144 478 -154 q 565 -3 478 -69 q 564 1 569 -1 q 560 14 560 6 l 560 88 q 558 92 560 92 q 553 89 556 92 q 471 15 522 40 q 351 -10 419 -10 q 183 52 249 -10 q 117 219 117 114 l 117 683 q 131 697 117 697 l 157 697 q 171 683 171 697 l 171 232 q 223 91 171 143 q 361 39 275 39 q 506 92 451 39 q 560 232 560 146 l 560 683 q 574 697 560 697 l 600 697 q 614 683 614 697 l 614 11 q 606 -7 614 1 q 547 -72 569 -37 q 524 -140 524 -107 q 544 -197 524 -178 q 599 -215 565 -215 q 631 -211 614 -215 l 635 -211 z "},"ů":{"ha":742,"x_min":117,"x_max":614,"o":"m 560 683 q 574 697 560 697 l 600 697 q 614 683 614 697 l 614 14 q 600 0 614 0 l 574 0 q 560 14 560 0 l 560 88 q 558 92 560 92 q 553 89 556 92 q 471 15 522 40 q 351 -10 419 -10 q 183 52 249 -10 q 117 219 117 114 l 117 683 q 131 697 117 697 l 157 697 q 171 683 171 697 l 171 232 q 223 91 171 143 q 361 39 275 39 q 506 92 451 39 q 560 232 560 146 l 560 683 m 371 796 q 272 836 313 796 q 231 933 231 876 q 272 1031 231 990 q 371 1071 313 1071 q 470 1031 429 1071 q 511 933 511 990 q 470 836 511 876 q 371 796 429 796 m 371 833 q 442 863 413 833 q 472 933 472 892 q 442 1004 472 975 q 371 1033 413 1033 q 299 1004 329 1033 q 269 933 269 975 q 299 863 269 892 q 371 833 329 833 z "},"v":{"ha":632,"x_min":51,"x_max":583,"o":"m 300 0 q 283 11 288 0 l 53 682 l 51 688 q 64 697 51 697 l 94 697 q 111 686 107 697 l 311 88 q 315 85 313 85 q 319 88 318 85 l 521 686 q 538 697 525 697 l 568 697 q 579 682 583 697 l 349 11 q 332 0 344 0 l 300 0 z "},"w":{"ha":961,"x_min":50,"x_max":913,"o":"m 261 0 q 246 11 250 0 l 51 682 l 50 686 q 64 697 50 697 l 89 697 q 104 686 101 697 l 272 82 q 276 79 274 79 q 281 82 279 79 l 450 686 q 465 697 453 697 l 493 697 q 508 686 504 697 l 679 83 q 683 81 681 81 q 688 83 686 81 l 857 686 q 872 697 861 697 l 899 697 q 909 693 906 697 q 911 682 913 689 l 714 11 q 699 0 710 0 l 669 0 q 654 11 658 0 l 483 594 q 479 597 482 597 q 475 594 476 597 l 307 11 q 292 0 303 0 l 261 0 z "},"ẃ":{"ha":961,"x_min":50,"x_max":913,"o":"m 261 0 q 246 11 250 0 l 51 682 l 50 686 q 64 697 50 697 l 89 697 q 104 686 101 697 l 272 82 q 276 79 274 79 q 281 82 279 79 l 450 686 q 465 697 453 697 l 493 697 q 508 686 504 697 l 679 83 q 683 81 681 81 q 688 83 686 81 l 857 686 q 872 697 861 697 l 899 697 q 909 693 906 697 q 911 682 913 689 l 714 11 q 699 0 710 0 l 669 0 q 654 11 658 0 l 483 594 q 479 597 482 597 q 475 594 476 597 l 307 11 q 292 0 303 0 l 261 0 m 447 804 q 436 809 439 804 q 438 821 433 814 l 522 975 q 539 985 526 985 l 565 985 q 576 980 574 985 q 575 968 579 975 l 483 814 q 467 804 476 804 l 447 804 z "},"ŵ":{"ha":961,"x_min":50,"x_max":913,"o":"m 261 0 q 246 11 250 0 l 51 682 l 50 686 q 64 697 50 697 l 89 697 q 104 686 101 697 l 272 82 q 276 79 274 79 q 281 82 279 79 l 450 686 q 465 697 453 697 l 493 697 q 508 686 504 697 l 679 83 q 683 81 681 81 q 688 83 686 81 l 857 686 q 872 697 861 697 l 899 697 q 909 693 906 697 q 911 682 913 689 l 714 11 q 699 0 710 0 l 669 0 q 654 11 658 0 l 483 594 q 479 597 482 597 q 475 594 476 597 l 307 11 q 292 0 303 0 l 261 0 m 338 792 q 326 797 329 792 q 329 808 324 803 l 444 958 q 463 967 450 967 l 492 967 q 510 958 504 967 l 625 808 q 628 800 628 806 q 625 794 628 797 q 617 792 622 792 l 596 792 q 578 800 583 792 l 482 926 q 478 929 481 929 q 474 926 475 929 l 376 800 q 358 792 371 792 l 338 792 z "},"ẅ":{"ha":961,"x_min":50,"x_max":913,"o":"m 261 0 q 246 11 250 0 l 51 682 l 50 686 q 64 697 50 697 l 89 697 q 104 686 101 697 l 272 82 q 276 79 274 79 q 281 82 279 79 l 450 686 q 465 697 453 697 l 493 697 q 508 686 504 697 l 679 83 q 683 81 681 81 q 688 83 686 81 l 857 686 q 872 697 861 697 l 899 697 q 909 693 906 697 q 911 682 913 689 l 714 11 q 699 0 710 0 l 669 0 q 654 11 658 0 l 483 594 q 479 597 482 597 q 475 594 476 597 l 307 11 q 292 0 303 0 l 261 0 m 371 851 q 333 865 347 851 q 318 901 318 879 q 333 935 318 921 q 371 950 349 950 q 406 935 392 950 q 419 901 419 921 q 406 865 419 879 q 371 851 392 851 m 589 851 q 552 865 567 851 q 538 901 538 879 q 552 935 538 921 q 589 950 567 950 q 624 936 610 950 q 639 901 639 922 q 625 865 639 879 q 589 851 611 851 z "},"ẁ":{"ha":961,"x_min":50,"x_max":913,"o":"m 261 0 q 246 11 250 0 l 51 682 l 50 686 q 64 697 50 697 l 89 697 q 104 686 101 697 l 272 82 q 276 79 274 79 q 281 82 279 79 l 450 686 q 465 697 453 697 l 493 697 q 508 686 504 697 l 679 83 q 683 81 681 81 q 688 83 686 81 l 857 686 q 872 697 861 697 l 899 697 q 909 693 906 697 q 911 682 913 689 l 714 11 q 699 0 710 0 l 669 0 q 654 11 658 0 l 483 594 q 479 597 482 597 q 475 594 476 597 l 307 11 q 292 0 303 0 l 261 0 m 489 821 q 492 813 492 815 q 479 804 492 804 l 460 804 q 443 814 450 804 l 351 968 q 349 976 349 974 q 361 985 349 985 l 388 985 q 404 975 400 985 l 489 821 z "},"x":{"ha":625,"x_min":42,"x_max":582,"o":"m 56 0 q 44 6 47 0 q 47 17 42 11 l 281 344 q 281 353 283 349 l 47 681 q 44 689 44 683 q 47 694 44 692 q 56 697 50 697 l 83 697 q 100 689 94 697 l 308 396 q 313 394 310 394 q 317 396 315 394 l 521 689 q 538 697 526 697 l 568 697 q 579 692 576 697 q 576 681 582 686 l 344 353 q 344 344 343 349 l 576 17 q 579 8 579 14 q 576 3 579 6 q 568 0 574 0 l 539 0 q 522 8 528 0 l 318 301 q 314 304 317 304 q 310 301 311 304 l 103 8 q 86 0 97 0 l 56 0 z "},"y":{"ha":613,"x_min":39,"x_max":575,"o":"m 85 -278 q 75 -264 75 -278 l 75 -243 q 85 -229 75 -229 l 94 -229 q 176 -210 147 -228 q 226 -149 204 -193 q 281 -4 247 -104 q 281 4 283 1 l 40 682 l 39 688 q 51 697 39 697 l 78 697 q 94 686 90 697 l 304 81 q 308 78 306 78 q 313 81 311 78 l 517 686 q 533 697 521 697 l 560 697 q 571 682 575 697 l 306 -78 q 249 -207 275 -165 q 188 -263 222 -249 q 94 -278 154 -278 l 85 -278 z "},"ý":{"ha":613,"x_min":39,"x_max":572,"o":"m 85 -278 q 75 -264 75 -278 l 75 -243 q 85 -229 75 -229 l 94 -229 q 176 -210 147 -228 q 226 -149 204 -193 q 281 -4 247 -104 q 281 4 283 1 l 40 682 l 39 688 q 51 697 39 697 l 78 697 q 94 686 90 697 l 304 81 q 308 78 306 78 q 313 81 311 78 l 517 686 q 533 697 521 697 l 560 697 q 571 682 575 697 l 306 -78 q 249 -207 275 -165 q 188 -263 222 -249 q 94 -278 154 -278 l 85 -278 m 275 806 q 264 810 267 806 q 265 822 261 815 l 350 976 q 367 986 354 986 l 393 986 q 404 981 401 986 q 403 969 407 976 l 311 815 q 294 806 304 806 l 275 806 z "},"ŷ":{"ha":613,"x_min":39,"x_max":572,"o":"m 85 -278 q 75 -264 75 -278 l 75 -243 q 85 -229 75 -229 l 94 -229 q 176 -210 147 -228 q 226 -149 204 -193 q 281 -4 247 -104 q 281 4 283 1 l 40 682 l 39 688 q 51 697 39 697 l 78 697 q 94 686 90 697 l 304 81 q 308 78 306 78 q 313 81 311 78 l 517 686 q 533 697 521 697 l 560 697 q 571 682 575 697 l 306 -78 q 249 -207 275 -165 q 188 -263 222 -249 q 94 -278 154 -278 l 85 -278 m 165 793 q 154 799 157 793 q 157 810 151 804 l 272 960 q 290 968 278 968 l 319 968 q 338 960 332 968 l 453 810 q 456 801 456 807 q 453 796 456 799 q 444 793 450 793 l 424 793 q 406 801 411 793 l 310 928 q 306 931 308 931 q 301 928 303 931 l 204 801 q 186 793 199 793 l 165 793 z "},"ÿ":{"ha":613,"x_min":39,"x_max":572,"o":"m 85 -278 q 75 -264 75 -278 l 75 -243 q 85 -229 75 -229 l 94 -229 q 176 -210 147 -228 q 226 -149 204 -193 q 281 -4 247 -104 q 281 4 283 1 l 40 682 l 39 688 q 51 697 39 697 l 78 697 q 94 686 90 697 l 304 81 q 308 78 306 78 q 313 81 311 78 l 517 686 q 533 697 521 697 l 560 697 q 571 682 575 697 l 306 -78 q 249 -207 275 -165 q 188 -263 222 -249 q 94 -278 154 -278 l 85 -278 m 199 853 q 160 867 175 853 q 146 903 146 881 q 161 937 146 922 q 199 951 176 951 q 233 937 219 951 q 247 903 247 922 q 233 867 247 881 q 199 853 219 853 m 417 853 q 380 867 394 853 q 365 903 365 881 q 380 937 365 922 q 417 951 394 951 q 452 938 438 951 q 467 903 467 924 q 453 867 467 881 q 417 853 439 853 z "},"ỳ":{"ha":613,"x_min":39,"x_max":572,"o":"m 85 -278 q 75 -264 75 -278 l 75 -243 q 85 -229 75 -229 l 94 -229 q 176 -210 147 -228 q 226 -149 204 -193 q 281 -4 247 -104 q 281 4 283 1 l 40 682 l 39 688 q 51 697 39 697 l 78 697 q 94 686 90 697 l 304 81 q 308 78 306 78 q 313 81 311 78 l 517 686 q 533 697 521 697 l 560 697 q 571 682 575 697 l 306 -78 q 249 -207 275 -165 q 188 -263 222 -249 q 94 -278 154 -278 l 85 -278 m 317 822 q 319 814 319 817 q 307 806 319 806 l 288 806 q 271 815 278 806 l 179 969 q 176 978 176 975 q 189 986 176 986 l 215 986 q 232 976 228 986 l 317 822 z "},"z":{"ha":610,"x_min":53,"x_max":556,"o":"m 67 0 q 53 14 53 0 l 53 40 q 58 58 53 51 l 488 640 q 489 645 490 643 q 485 647 488 647 l 71 647 q 57 661 57 647 l 57 683 q 71 697 57 697 l 542 697 q 556 683 556 697 l 556 657 q 550 639 556 646 l 118 57 q 117 52 115 54 q 121 50 118 50 l 539 50 q 553 36 553 50 l 553 14 q 539 0 553 0 l 67 0 z "},"ź":{"ha":610,"x_min":53,"x_max":556,"o":"m 67 0 q 53 14 53 0 l 53 40 q 58 58 53 51 l 488 640 q 489 645 490 643 q 485 647 488 647 l 71 647 q 57 661 57 647 l 57 683 q 71 697 57 697 l 542 697 q 556 683 556 697 l 556 657 q 550 639 556 646 l 118 57 q 117 52 115 54 q 121 50 118 50 l 539 50 q 553 36 553 50 l 553 14 q 539 0 553 0 l 67 0 m 271 817 q 260 822 263 817 q 261 833 257 826 l 346 988 q 363 997 350 997 l 389 997 q 400 992 397 997 q 399 981 403 988 l 307 826 q 290 817 300 817 l 271 817 z "},"ž":{"ha":610,"x_min":53,"x_max":556,"o":"m 67 0 q 53 14 53 0 l 53 40 q 58 58 53 51 l 488 640 q 489 645 490 643 q 485 647 488 647 l 71 647 q 57 661 57 647 l 57 683 q 71 697 57 697 l 542 697 q 556 683 556 697 l 556 657 q 550 639 556 646 l 118 57 q 117 52 115 54 q 121 50 118 50 l 539 50 q 553 36 553 50 l 553 14 q 539 0 553 0 l 67 0 m 285 799 q 267 807 272 799 l 153 957 q 150 965 150 960 q 153 971 150 968 q 161 974 156 974 l 182 974 q 200 965 194 974 l 297 839 q 301 836 299 836 q 306 839 304 836 l 400 965 q 418 974 406 974 l 439 974 q 450 969 447 974 q 447 957 453 964 l 332 807 q 314 799 326 799 l 285 799 z "},"ż":{"ha":610,"x_min":53,"x_max":556,"o":"m 67 0 q 53 14 53 0 l 53 40 q 58 58 53 51 l 488 640 q 489 645 490 643 q 485 647 488 647 l 71 647 q 57 661 57 647 l 57 683 q 71 697 57 697 l 542 697 q 556 683 556 697 l 556 657 q 550 639 556 646 l 118 57 q 117 52 115 54 q 121 50 118 50 l 539 50 q 553 36 553 50 l 553 14 q 539 0 553 0 l 67 0 m 301 839 q 265 853 279 839 q 250 888 250 867 q 265 921 250 907 q 301 935 279 935 q 336 921 322 935 q 350 888 350 907 q 336 853 350 867 q 301 839 322 839 z "},"ª":{"ha":447,"x_min":39,"x_max":394,"o":"m 335 781 q 340 786 340 781 l 340 828 q 310 913 340 881 q 218 946 279 946 q 141 927 172 946 q 101 875 110 908 q 85 864 97 863 l 71 867 q 60 882 56 869 q 113 956 69 928 q 221 983 157 983 q 341 942 299 983 q 383 831 383 900 l 383 529 q 369 515 383 515 l 354 515 q 340 529 340 515 l 340 564 q 338 567 340 567 q 333 565 336 568 q 274 523 311 538 q 190 508 236 508 q 82 540 125 508 q 39 635 39 571 q 90 742 39 703 q 228 781 140 781 l 335 781 m 194 544 q 297 574 254 544 q 340 657 340 603 l 340 738 q 335 743 340 743 l 229 743 q 120 716 161 743 q 79 638 79 689 q 111 567 79 590 q 194 544 143 544 m 39 389 q 53 403 39 403 l 381 403 q 394 389 394 403 l 394 372 q 381 358 394 358 l 53 358 q 39 372 39 358 l 39 389 z "},"º":{"ha":468,"x_min":53,"x_max":417,"o":"m 236 510 q 131 542 174 510 q 71 632 88 575 q 61 747 61 669 q 69 861 61 826 q 129 950 85 917 q 236 983 174 983 q 342 950 299 983 q 401 861 386 917 q 408 810 407 840 q 410 747 410 781 q 408 683 410 713 q 401 632 407 653 q 342 543 386 576 q 236 510 297 510 m 236 549 q 317 576 283 549 q 360 649 350 603 q 365 747 365 669 q 361 844 365 825 q 317 917 350 890 q 235 944 283 944 q 154 917 186 944 q 111 844 122 890 q 106 747 106 817 q 111 649 106 675 q 155 575 122 601 q 236 549 188 549 m 67 358 q 53 372 53 358 l 53 389 q 67 403 53 403 l 403 403 q 417 389 417 403 l 417 372 q 403 358 417 358 l 67 358 z "},"Δ":{"ha":872,"x_min":50,"x_max":822,"o":"m 64 0 q 50 14 50 0 l 50 40 q 53 57 50 50 l 407 961 q 422 972 411 972 l 449 972 q 464 961 460 972 l 819 56 q 822 39 822 49 l 822 14 q 808 0 822 0 l 64 0 m 106 56 q 106 51 104 53 q 110 49 107 49 l 761 49 q 765 51 764 49 q 765 56 767 53 l 440 894 q 436 899 439 899 q 432 894 433 899 l 106 56 z "},"Ω":{"ha":894,"x_min":117,"x_max":779,"o":"m 131 0 q 117 14 117 0 l 117 35 q 131 49 117 49 l 269 49 q 274 51 274 49 q 271 56 275 54 q 169 160 206 93 q 132 313 132 226 l 132 672 q 172 835 132 764 q 282 944 211 906 q 446 983 353 983 q 612 944 540 983 q 723 835 683 906 q 763 672 763 764 l 763 313 q 726 160 763 226 q 624 56 689 93 q 620 51 619 54 q 625 49 621 49 l 765 49 q 779 35 779 49 l 779 14 q 765 0 779 0 l 528 0 q 514 14 514 0 l 514 38 q 526 51 514 50 q 614 97 572 61 q 682 187 656 132 q 708 307 708 242 l 708 675 q 636 863 708 792 q 446 935 564 935 q 258 863 329 935 q 186 675 186 792 l 186 307 q 213 186 186 240 q 280 97 239 132 q 365 53 321 63 q 378 38 378 49 l 378 14 q 364 0 378 0 l 131 0 z "},"μ":{"ha":754,"x_min":128,"x_max":625,"o":"m 571 683 q 585 697 571 697 l 611 697 q 625 683 625 697 l 625 14 q 611 0 625 0 l 585 0 q 571 14 571 0 l 571 88 q 569 92 571 92 q 564 89 567 92 q 482 15 533 40 q 363 -10 431 -10 q 265 8 310 -10 q 189 57 221 25 q 182 54 182 61 l 182 -264 q 168 -278 182 -278 l 142 -278 q 128 -264 128 -278 l 128 683 q 142 697 128 697 l 168 697 q 182 683 182 697 l 182 232 q 234 91 182 143 q 372 39 286 39 q 517 92 463 39 q 571 232 571 146 l 571 683 z "},"π":{"ha":886,"x_min":61,"x_max":825,"o":"m 825 664 q 811 650 825 650 l 706 650 q 700 644 700 650 l 700 186 q 721 81 700 108 q 796 50 742 53 q 810 36 810 50 l 810 15 q 796 1 810 1 q 683 40 721 4 q 646 172 646 75 l 646 644 q 640 650 646 650 l 260 650 q 254 644 254 650 l 254 14 q 240 0 254 0 l 214 0 q 200 14 200 0 l 200 644 q 194 650 200 650 l 75 650 q 61 664 61 650 l 61 683 q 75 697 61 697 l 811 697 q 825 683 825 697 l 825 664 z "},"¹":{"ha":250,"x_min":58,"x_max":178,"o":"m 124 1210 q 140 1214 132 1214 l 164 1214 q 178 1200 178 1214 l 178 644 q 164 631 178 631 l 146 631 q 132 644 132 631 l 132 1160 q 130 1165 132 1163 q 126 1165 128 1167 l 74 1150 l 69 1149 q 58 1163 58 1149 l 58 1171 q 69 1186 58 1182 l 124 1210 z "},"²":{"ha":442,"x_min":51,"x_max":390,"o":"m 67 631 q 53 644 53 631 l 53 660 q 58 676 53 669 l 93 721 q 247 915 193 843 q 326 1076 326 1018 q 294 1152 326 1124 q 210 1181 263 1181 q 127 1151 158 1181 q 97 1075 96 1122 l 97 1053 q 83 1039 97 1039 l 65 1039 q 51 1053 51 1039 l 51 1081 q 97 1182 53 1143 q 210 1221 140 1221 q 326 1180 282 1221 q 371 1076 371 1139 q 292 901 371 1006 q 115 676 225 813 q 118 669 111 669 l 376 669 q 390 656 390 669 l 390 644 q 376 631 390 631 l 67 631 z "},"³":{"ha":446,"x_min":63,"x_max":383,"o":"m 360 917 q 383 804 383 869 q 363 701 383 743 q 307 642 343 663 q 221 621 271 621 q 126 651 164 621 q 71 733 88 682 q 63 789 63 756 q 76 803 63 803 l 94 803 q 108 789 108 803 q 111 749 108 771 q 148 686 118 710 q 221 663 178 663 q 319 718 290 663 q 338 804 338 757 q 317 900 338 863 q 221 956 289 956 q 200 953 207 956 l 194 953 q 182 958 186 953 l 175 967 q 171 976 171 971 q 175 986 171 982 l 319 1165 q 321 1170 322 1168 q 317 1172 319 1172 l 79 1172 q 65 1186 65 1172 l 65 1197 q 79 1211 65 1211 l 365 1211 q 379 1197 379 1211 l 379 1182 q 374 1165 379 1172 l 240 996 q 239 991 238 993 q 244 989 240 989 q 360 917 324 983 z "},"⁴":{"ha":449,"x_min":44,"x_max":394,"o":"m 381 835 q 394 821 394 835 l 394 807 q 381 793 394 793 l 354 793 q 349 788 349 793 l 349 644 q 335 631 349 631 l 317 631 q 303 644 303 631 l 303 788 q 297 793 303 793 l 58 793 q 44 807 44 793 l 44 821 q 49 838 44 828 l 221 1204 q 236 1214 225 1214 l 253 1214 q 263 1209 260 1214 q 263 1197 265 1204 l 96 842 q 96 837 94 839 q 100 835 97 835 l 297 835 q 303 840 303 835 l 303 974 q 317 988 303 988 l 335 988 q 349 974 349 988 l 349 840 q 354 835 349 835 l 381 835 z "},"⁵":{"ha":411,"x_min":53,"x_max":372,"o":"m 356 901 q 372 804 372 860 q 356 708 372 749 q 301 642 338 665 q 213 619 264 619 q 115 649 156 619 q 61 729 75 679 q 53 775 56 753 q 67 789 53 789 l 85 789 q 100 775 99 789 q 104 747 100 763 q 140 683 111 707 q 213 660 169 660 q 274 676 249 660 q 313 724 300 693 q 328 804 328 758 q 313 888 328 853 q 215 949 285 949 q 146 933 176 949 q 104 888 115 917 q 88 876 97 876 l 68 876 q 54 890 54 876 l 54 1196 q 68 1210 54 1210 l 335 1210 q 349 1196 349 1210 l 349 1185 q 335 1171 349 1171 l 104 1171 q 99 1165 99 1171 l 99 954 q 101 950 99 951 q 106 951 103 949 q 156 979 126 969 q 219 989 186 989 q 356 901 317 989 z "},"⁶":{"ha":424,"x_min":60,"x_max":379,"o":"m 372 879 q 379 804 379 851 q 372 729 379 756 q 317 650 358 681 q 218 619 275 619 q 123 649 161 619 q 68 729 85 679 q 60 778 60 754 q 60 806 60 803 l 60 1063 q 103 1176 60 1135 q 219 1217 146 1217 q 325 1177 283 1217 q 367 1075 367 1138 l 367 1072 q 353 1058 367 1058 l 335 1058 q 321 1065 321 1058 l 321 1072 q 292 1147 321 1118 q 219 1176 263 1176 q 135 1146 167 1176 q 104 1060 104 1115 l 104 939 q 106 935 104 936 q 111 936 108 933 q 160 974 131 960 q 224 988 190 988 q 318 958 278 988 q 372 879 358 928 m 329 744 q 335 804 335 768 q 329 861 335 839 q 292 924 322 900 q 218 947 263 947 q 147 924 176 947 q 110 861 118 900 q 106 827 106 847 q 106 804 106 807 q 108 744 106 761 q 145 683 115 707 q 218 660 175 660 q 290 683 261 660 q 329 744 319 707 z "},"⁷":{"ha":375,"x_min":19,"x_max":356,"o":"m 125 631 q 114 646 110 631 l 304 1168 q 304 1173 306 1171 q 300 1175 303 1175 l 64 1175 q 58 1169 58 1175 l 58 1128 q 44 1114 58 1114 l 33 1114 q 19 1128 19 1114 l 19 1200 q 33 1214 19 1214 l 342 1214 q 356 1200 356 1214 l 356 1183 q 353 1167 356 1178 l 161 642 q 144 631 157 631 l 125 631 z "},"⁸":{"ha":428,"x_min":51,"x_max":374,"o":"m 365 851 q 372 801 372 831 q 373 774 372 794 q 365 728 374 753 q 310 649 351 679 q 213 619 269 619 q 116 649 156 619 q 61 728 76 678 q 51 789 51 757 q 61 850 51 813 q 129 933 78 908 q 129 942 136 938 q 61 1019 79 968 q 53 1068 53 1044 q 61 1119 53 1096 q 117 1192 79 1167 q 213 1217 156 1217 q 310 1191 271 1217 q 365 1119 350 1165 q 374 1068 374 1090 q 365 1021 374 1049 q 296 942 349 967 q 296 933 290 938 q 365 851 350 907 m 101 1036 q 138 978 108 1000 q 213 957 167 957 q 289 978 258 957 q 325 1036 319 1000 q 328 1067 328 1053 q 325 1099 328 1088 q 285 1157 315 1136 q 213 1178 256 1178 q 140 1156 168 1178 q 101 1099 111 1135 q 96 1067 96 1076 q 101 1036 96 1051 m 324 747 q 326 774 326 760 q 326 792 326 788 l 326 811 q 294 889 326 857 q 213 921 263 921 q 140 897 168 921 q 101 832 111 872 q 97 790 97 815 q 101 747 97 772 q 138 684 108 708 q 213 660 168 660 q 286 685 256 660 q 324 747 317 710 z "},"⁹":{"ha":424,"x_min":44,"x_max":364,"o":"m 356 1107 q 364 1058 364 1082 q 364 1031 364 1033 l 364 774 q 321 660 364 701 q 204 619 278 619 q 99 659 140 619 q 57 761 57 699 l 57 764 q 71 778 57 778 l 89 778 q 103 771 103 778 l 103 764 q 132 689 103 718 q 204 660 161 660 q 288 690 257 660 q 319 776 319 721 l 319 897 q 317 901 319 900 q 313 900 315 903 q 263 863 293 876 q 200 849 233 849 q 106 878 146 849 q 51 957 65 908 q 44 1032 44 985 q 51 1107 44 1081 q 107 1186 65 1156 q 206 1217 149 1217 q 301 1187 263 1217 q 356 1107 339 1157 m 314 975 q 318 1009 318 989 q 318 1032 318 1029 q 315 1092 318 1075 q 278 1153 308 1129 q 206 1176 249 1176 q 133 1153 163 1176 q 94 1092 104 1129 q 89 1032 89 1068 q 94 975 89 997 q 131 913 101 936 q 206 889 161 889 q 276 913 247 889 q 314 975 306 936 z "},"⁄":{"ha":336,"x_min":-158,"x_max":503,"o":"m -146 0 q -156 5 -154 0 q -154 17 -158 10 l 454 963 q 471 972 461 972 l 490 972 q 501 967 499 972 q 499 956 503 963 l -111 10 q -128 0 -118 0 l -146 0 z "},"½":{"ha":1081,"x_min":58,"x_max":1029,"o":"m 124 968 q 140 972 132 972 l 164 972 q 178 958 178 972 l 178 403 q 164 389 178 389 l 146 389 q 132 403 132 389 l 132 918 q 130 923 132 921 q 126 924 128 925 l 74 908 l 69 907 q 58 921 58 907 l 58 929 q 69 944 58 940 l 124 968 m 157 0 q 147 5 149 0 q 149 17 144 10 l 757 963 q 774 972 764 972 l 793 972 q 803 967 801 972 q 801 956 806 963 l 192 10 q 175 0 185 0 l 157 0 m 706 0 q 692 14 692 0 l 692 29 q 697 46 692 39 l 732 90 q 886 285 832 213 q 965 446 965 388 q 933 522 965 493 q 849 550 901 550 q 766 521 797 550 q 736 444 735 492 l 736 422 q 722 408 736 408 l 704 408 q 690 422 690 408 l 690 450 q 735 551 692 513 q 849 590 779 590 q 965 549 921 590 q 1010 446 1010 508 q 931 271 1010 375 q 754 46 864 182 q 757 39 750 39 l 1015 39 q 1029 25 1029 39 l 1029 14 q 1015 0 1029 0 l 706 0 z "},"¼":{"ha":1088,"x_min":58,"x_max":1033,"o":"m 124 968 q 140 972 132 972 l 164 972 q 178 958 178 972 l 178 403 q 164 389 178 389 l 146 389 q 132 403 132 389 l 132 918 q 130 923 132 921 q 126 924 128 925 l 74 908 l 69 907 q 58 921 58 907 l 58 929 q 69 944 58 940 l 124 968 m 157 0 q 147 5 149 0 q 149 17 144 10 l 757 963 q 774 972 764 972 l 793 972 q 803 967 801 972 q 801 956 806 963 l 192 10 q 175 0 185 0 l 157 0 m 1019 204 q 1033 190 1033 204 l 1033 176 q 1019 163 1033 163 l 993 163 q 988 157 988 163 l 988 14 q 974 0 988 0 l 956 0 q 942 14 942 0 l 942 157 q 936 163 942 163 l 697 163 q 683 176 683 163 l 683 190 q 688 207 683 197 l 860 574 q 875 583 864 583 l 892 583 q 901 578 899 583 q 901 567 904 574 l 735 211 q 735 206 733 208 q 739 204 736 204 l 936 204 q 942 210 942 204 l 942 343 q 956 357 942 357 l 974 357 q 988 343 988 357 l 988 210 q 993 204 988 204 l 1019 204 z "},"¾":{"ha":1231,"x_min":63,"x_max":1176,"o":"m 360 689 q 383 576 383 642 q 363 474 383 515 q 307 414 343 435 q 221 393 271 393 q 126 424 164 393 q 71 506 88 454 q 63 561 63 528 q 76 575 63 575 l 94 575 q 108 561 108 575 q 111 521 108 543 q 148 458 118 482 q 221 435 178 435 q 319 490 290 435 q 338 576 338 529 q 317 672 338 635 q 221 728 289 728 q 200 725 207 728 l 194 725 q 182 731 186 725 l 175 739 q 171 749 171 743 q 175 758 171 754 l 319 938 q 321 942 322 940 q 317 944 319 944 l 79 944 q 65 958 65 944 l 65 969 q 79 983 65 983 l 365 983 q 379 969 379 983 l 379 954 q 374 938 379 944 l 240 768 q 239 763 238 765 q 244 761 240 761 q 360 689 324 756 m 300 0 q 290 5 292 0 q 292 17 288 10 l 900 963 q 917 972 907 972 l 936 972 q 947 967 944 972 q 944 956 949 963 l 335 10 q 318 0 328 0 l 300 0 m 1163 204 q 1176 190 1176 204 l 1176 176 q 1163 163 1176 163 l 1136 163 q 1131 157 1131 163 l 1131 14 q 1117 0 1131 0 l 1099 0 q 1085 14 1085 0 l 1085 157 q 1079 163 1085 163 l 840 163 q 826 176 826 163 l 826 190 q 831 207 826 197 l 1003 574 q 1018 583 1007 583 l 1035 583 q 1044 578 1042 583 q 1044 567 1047 574 l 878 211 q 878 206 876 208 q 882 204 879 204 l 1079 204 q 1085 210 1085 204 l 1085 343 q 1099 357 1085 357 l 1117 357 q 1131 343 1131 357 l 1131 210 q 1136 204 1131 204 l 1163 204 z "},"⅛":{"ha":1083,"x_min":58,"x_max":1029,"o":"m 124 968 q 140 972 132 972 l 164 972 q 178 958 178 972 l 178 403 q 164 389 178 389 l 146 389 q 132 403 132 389 l 132 918 q 130 923 132 921 q 126 924 128 925 l 74 908 l 69 907 q 58 921 58 907 l 58 929 q 69 944 58 940 l 124 968 m 157 0 q 147 5 149 0 q 149 17 144 10 l 757 963 q 774 972 764 972 l 793 972 q 803 967 801 972 q 801 956 806 963 l 192 10 q 175 0 185 0 l 157 0 m 1021 221 q 1028 171 1028 200 q 1028 143 1028 164 q 1021 97 1029 122 q 966 19 1007 49 q 868 -11 925 -11 q 772 18 811 -11 q 717 97 732 47 q 707 158 707 126 q 717 219 707 182 q 785 303 733 278 q 785 311 792 307 q 717 389 735 338 q 708 438 708 414 q 717 489 708 465 q 773 561 735 536 q 868 586 811 586 q 966 560 926 586 q 1021 489 1006 535 q 1029 438 1029 460 q 1021 390 1029 418 q 951 311 1004 336 q 951 303 946 307 q 1021 221 1006 276 m 757 406 q 793 348 764 369 q 868 326 822 326 q 944 348 914 326 q 981 406 975 369 q 983 436 983 422 q 981 468 983 457 q 941 526 971 506 q 868 547 911 547 q 795 526 824 547 q 757 468 767 504 q 751 436 751 446 q 757 406 751 421 m 979 117 q 982 143 982 129 q 982 161 982 157 l 982 181 q 950 258 982 226 q 868 290 918 290 q 795 266 824 290 q 757 201 767 242 q 753 160 753 185 q 757 117 753 142 q 794 53 764 78 q 868 29 824 29 q 942 54 911 29 q 979 117 972 79 z "},"⅜":{"ha":1226,"x_min":63,"x_max":1172,"o":"m 360 689 q 383 576 383 642 q 363 474 383 515 q 307 414 343 435 q 221 393 271 393 q 126 424 164 393 q 71 506 88 454 q 63 561 63 528 q 76 575 63 575 l 94 575 q 108 561 108 575 q 111 521 108 543 q 148 458 118 482 q 221 435 178 435 q 319 490 290 435 q 338 576 338 529 q 317 672 338 635 q 221 728 289 728 q 200 725 207 728 l 194 725 q 182 731 186 725 l 175 739 q 171 749 171 743 q 175 758 171 754 l 319 938 q 321 942 322 940 q 317 944 319 944 l 79 944 q 65 958 65 944 l 65 969 q 79 983 65 983 l 365 983 q 379 969 379 983 l 379 954 q 374 938 379 944 l 240 768 q 239 763 238 765 q 244 761 240 761 q 360 689 324 756 m 300 0 q 290 5 292 0 q 292 17 288 10 l 900 963 q 917 972 907 972 l 936 972 q 947 967 944 972 q 944 956 949 963 l 335 10 q 318 0 328 0 l 300 0 m 1164 221 q 1171 171 1171 200 q 1172 143 1171 164 q 1164 97 1172 122 q 1109 19 1150 49 q 1011 -11 1068 -11 q 915 18 954 -11 q 860 97 875 47 q 850 158 850 126 q 860 219 850 182 q 928 303 876 278 q 928 311 935 307 q 860 389 878 338 q 851 438 851 414 q 860 489 851 465 q 916 561 878 536 q 1011 586 954 586 q 1109 560 1069 586 q 1164 489 1149 535 q 1172 438 1172 460 q 1164 390 1172 418 q 1094 311 1147 336 q 1094 303 1089 307 q 1164 221 1149 276 m 900 406 q 936 348 907 369 q 1011 326 965 326 q 1088 348 1057 326 q 1124 406 1118 369 q 1126 436 1126 422 q 1124 468 1126 457 q 1084 526 1114 506 q 1011 547 1054 547 q 938 526 967 547 q 900 468 910 504 q 894 436 894 446 q 900 406 894 421 m 1122 117 q 1125 143 1125 129 q 1125 161 1125 157 l 1125 181 q 1093 258 1125 226 q 1011 290 1061 290 q 938 266 967 290 q 900 201 910 242 q 896 160 896 185 q 900 117 896 142 q 937 53 907 78 q 1011 29 967 29 q 1085 54 1054 29 q 1122 117 1115 79 z "},"⅝":{"ha":1179,"x_min":53,"x_max":1125,"o":"m 356 664 q 372 567 372 622 q 356 471 372 511 q 301 405 338 428 q 213 382 264 382 q 115 412 156 382 q 61 492 75 442 q 53 538 56 515 q 67 551 53 551 l 85 551 q 100 538 99 551 q 104 510 100 525 q 140 446 111 469 q 213 422 169 422 q 274 439 249 422 q 313 486 300 456 q 328 567 328 521 q 313 650 328 615 q 215 711 285 711 q 146 695 176 711 q 104 650 115 679 q 88 639 97 639 l 68 639 q 54 653 54 639 l 54 958 q 68 972 54 972 l 335 972 q 349 958 349 972 l 349 947 q 335 933 349 933 l 104 933 q 99 928 99 933 l 99 717 q 101 713 99 714 q 106 714 103 711 q 156 742 126 732 q 219 751 186 751 q 356 664 317 751 m 253 0 q 242 5 244 0 q 244 17 240 10 l 853 963 q 869 972 860 972 l 889 972 q 899 967 897 972 q 897 956 901 963 l 288 10 q 271 0 281 0 l 253 0 m 1117 221 q 1124 171 1124 200 q 1124 143 1124 164 q 1117 97 1125 122 q 1062 19 1103 49 q 964 -11 1021 -11 q 867 18 907 -11 q 813 97 828 47 q 803 158 803 126 q 813 219 803 182 q 881 303 829 278 q 881 311 888 307 q 813 389 831 338 q 804 438 804 414 q 813 489 804 465 q 869 561 831 536 q 964 586 907 586 q 1062 560 1022 586 q 1117 489 1101 535 q 1125 438 1125 460 q 1117 390 1125 418 q 1047 311 1100 336 q 1047 303 1042 307 q 1117 221 1101 276 m 853 406 q 889 348 860 369 q 964 326 918 326 q 1040 348 1010 326 q 1076 406 1071 369 q 1079 436 1079 422 q 1076 468 1079 457 q 1037 526 1067 506 q 964 547 1007 547 q 891 526 919 547 q 853 468 863 504 q 847 436 847 446 q 853 406 847 421 m 1075 117 q 1078 143 1078 129 q 1078 161 1078 157 l 1078 181 q 1046 258 1078 226 q 964 290 1014 290 q 891 266 919 290 q 853 201 863 242 q 849 160 849 185 q 853 117 849 142 q 890 53 860 78 q 964 29 919 29 q 1038 54 1007 29 q 1075 117 1068 79 z "},"⅞":{"ha":1086,"x_min":19,"x_max":1032,"o":"m 125 389 q 114 404 110 389 l 304 926 q 304 931 306 929 q 300 933 303 933 l 64 933 q 58 928 58 933 l 58 886 q 44 872 58 872 l 33 872 q 19 886 19 872 l 19 958 q 33 972 19 972 l 342 972 q 356 958 356 972 l 356 942 q 353 925 356 936 l 161 400 q 144 389 157 389 l 125 389 m 160 0 q 149 5 151 0 q 151 17 147 10 l 760 963 q 776 972 767 972 l 796 972 q 806 967 804 972 q 804 956 808 963 l 194 10 q 178 0 188 0 l 160 0 m 1024 221 q 1031 171 1031 200 q 1031 143 1031 164 q 1024 97 1032 122 q 969 19 1010 49 q 871 -11 928 -11 q 774 18 814 -11 q 719 97 735 47 q 710 158 710 126 q 719 219 710 182 q 788 303 736 278 q 788 311 794 307 q 719 389 738 338 q 711 438 711 414 q 719 489 711 465 q 776 561 738 536 q 871 586 814 586 q 969 560 929 586 q 1024 489 1008 535 q 1032 438 1032 460 q 1024 390 1032 418 q 954 311 1007 336 q 954 303 949 307 q 1024 221 1008 276 m 760 406 q 796 348 767 369 q 871 326 825 326 q 947 348 917 326 q 983 406 978 369 q 986 436 986 422 q 983 468 986 457 q 944 526 974 506 q 871 547 914 547 q 798 526 826 547 q 760 468 769 504 q 754 436 754 446 q 760 406 754 421 m 982 117 q 985 143 985 129 q 985 161 985 157 l 985 181 q 953 258 985 226 q 871 290 921 290 q 798 266 826 290 q 760 201 769 242 q 756 160 756 185 q 760 117 756 142 q 797 53 767 78 q 871 29 826 29 q 944 54 914 29 q 982 117 975 79 z "},".":{"ha":383,"x_min":121,"x_max":257,"o":"m 188 7 q 140 26 160 7 q 121 74 121 46 q 141 119 121 100 q 188 139 161 139 q 236 119 215 139 q 257 74 257 100 q 236 26 257 46 q 188 7 215 7 z "},",":{"ha":367,"x_min":108,"x_max":229,"o":"m 122 -99 q 112 -94 115 -99 q 111 -83 108 -90 l 178 201 q 193 214 181 214 l 215 214 q 226 210 222 214 q 228 199 229 206 l 154 -86 q 139 -99 153 -99 l 122 -99 z "},":":{"ha":454,"x_min":160,"x_max":294,"o":"m 226 499 q 179 517 199 499 q 160 564 160 536 q 180 610 160 590 q 226 629 200 629 q 274 610 254 629 q 294 564 294 590 q 274 518 294 538 q 226 499 254 499 m 226 25 q 179 44 199 25 q 160 92 160 64 q 180 137 160 118 q 226 156 200 156 q 274 137 254 156 q 294 92 294 118 q 274 44 294 64 q 226 25 254 25 z "},";":{"ha":428,"x_min":151,"x_max":286,"o":"m 218 503 q 171 522 190 503 q 151 568 151 540 q 172 614 151 594 q 218 633 192 633 q 266 614 246 633 q 286 568 286 594 q 266 522 286 542 q 218 503 246 503 m 168 -90 q 158 -86 163 -90 q 156 -75 154 -82 l 196 193 q 210 206 197 206 l 236 206 q 247 201 243 206 q 249 190 250 197 l 199 -78 q 183 -90 197 -90 l 168 -90 z "},"…":{"ha":1061,"x_min":121,"x_max":935,"o":"m 188 7 q 140 26 160 7 q 121 74 121 46 q 141 119 121 100 q 188 139 161 139 q 236 119 215 139 q 257 74 257 100 q 236 26 257 46 q 188 7 215 7 m 531 7 q 483 26 503 7 q 464 74 464 46 q 484 119 464 100 q 531 139 504 139 q 579 119 558 139 q 600 74 600 100 q 579 26 600 46 q 531 7 558 7 m 865 7 q 818 26 838 7 q 799 74 799 46 q 819 119 799 100 q 865 139 839 139 q 914 119 893 139 q 935 74 935 100 q 914 26 935 46 q 865 7 893 7 z "},"!":{"ha":433,"x_min":146,"x_max":281,"o":"m 206 310 q 192 324 192 310 l 189 958 q 203 972 189 972 l 229 972 q 243 958 243 972 l 240 324 q 226 310 240 310 l 206 310 m 213 6 q 165 25 185 6 q 146 72 146 44 q 165 118 146 99 q 213 138 185 138 q 260 118 240 138 q 281 72 281 99 q 260 25 281 44 q 213 6 240 6 z "},"¡":{"ha":433,"x_min":146,"x_max":281,"o":"m 213 983 q 260 964 240 983 q 281 917 281 944 q 260 871 281 890 q 213 851 240 851 q 165 871 185 851 q 146 917 146 890 q 165 964 146 944 q 213 983 185 983 m 192 665 q 206 679 192 679 l 226 679 q 240 665 240 679 l 243 31 q 229 17 243 17 l 203 17 q 189 31 189 17 l 192 665 z "},"?":{"ha":601,"x_min":63,"x_max":535,"o":"m 261 264 q 247 278 247 264 l 247 375 q 274 467 247 432 q 357 549 301 503 q 423 607 399 582 q 464 669 447 632 q 481 754 481 706 q 431 885 481 836 q 300 935 381 935 q 167 885 218 935 q 117 756 117 836 l 117 704 q 103 690 117 690 l 76 692 q 63 706 63 692 l 63 756 q 128 921 63 857 q 300 985 194 985 q 470 922 406 985 q 535 753 535 858 q 515 647 535 692 q 468 574 496 603 q 397 510 440 544 q 326 443 349 471 q 304 374 304 415 l 304 278 q 290 264 304 264 l 261 264 m 279 6 q 233 25 253 6 q 214 71 214 44 q 233 115 214 97 q 279 133 253 133 q 326 115 306 133 q 346 71 346 96 q 326 25 346 44 q 279 6 306 6 z "},"¿":{"ha":601,"x_min":67,"x_max":539,"o":"m 322 689 q 369 670 350 689 q 388 624 388 651 q 368 579 388 597 q 322 561 349 561 q 276 580 296 561 q 256 624 256 599 q 276 669 256 650 q 322 689 296 689 m 340 431 q 354 417 354 431 l 354 319 q 327 227 354 263 q 244 146 300 192 q 178 88 203 113 q 138 26 154 63 q 121 -60 121 -11 q 171 -191 121 -142 q 301 -240 221 -240 q 434 -191 383 -240 q 485 -61 485 -142 l 485 -10 q 499 4 485 4 l 525 3 q 539 -11 539 3 l 539 -61 q 473 -226 539 -162 q 301 -290 407 -290 q 131 -227 196 -290 q 67 -58 67 -164 q 86 47 67 3 q 133 121 106 92 q 204 185 161 150 q 275 251 253 224 q 297 321 297 279 l 297 417 q 311 431 297 431 l 340 431 z "},"·":{"ha":135,"x_min":-31,"x_max":106,"o":"m 36 7 q -11 26 8 7 q -31 74 -31 46 q -10 119 -31 100 q 36 139 10 139 q 85 119 64 139 q 106 74 106 100 q 85 26 106 46 q 36 7 64 7 z "},"•":{"ha":424,"x_min":61,"x_max":363,"o":"m 213 214 q 106 258 150 214 q 61 365 61 303 q 106 472 61 428 q 213 515 150 515 q 318 472 274 515 q 363 365 363 428 q 318 258 363 303 q 213 214 274 214 z "},"*":{"ha":550,"x_min":51,"x_max":500,"o":"m 268 546 q 254 560 254 546 l 254 749 q 252 753 254 751 q 247 753 250 754 l 79 656 q 72 654 76 654 q 60 661 64 654 l 54 672 q 53 679 53 675 q 60 692 53 688 l 226 788 q 229 792 229 789 q 226 796 229 794 l 60 892 q 53 900 54 894 q 54 911 51 906 l 60 922 q 68 929 63 928 q 79 928 74 931 l 247 831 q 252 831 250 829 q 254 835 254 832 l 254 1024 q 268 1038 254 1038 l 282 1038 q 296 1024 296 1038 l 296 835 q 298 831 296 832 q 303 831 300 829 l 472 928 q 479 929 475 929 q 492 922 488 929 l 497 911 q 499 904 499 908 q 492 892 499 896 l 324 796 q 322 792 322 794 q 324 788 322 789 l 492 692 q 499 683 497 689 q 497 672 500 678 l 492 661 q 483 654 489 656 q 472 656 478 653 l 303 753 q 298 753 300 754 q 296 749 296 751 l 296 560 q 282 546 296 546 l 268 546 z "},"#":{"ha":899,"x_min":117,"x_max":782,"o":"m 781 626 q 767 613 781 613 l 663 613 q 656 607 656 613 l 615 347 q 619 342 615 342 l 718 342 q 732 328 732 342 l 731 307 q 717 293 731 293 l 613 293 q 606 288 606 293 l 565 29 q 551 17 564 17 l 525 18 q 515 22 519 18 q 513 33 511 26 l 551 288 q 547 293 551 293 l 289 293 q 282 288 282 293 l 242 29 q 228 17 240 17 l 201 18 q 192 22 196 18 q 189 33 188 26 l 228 288 q 224 293 228 293 l 131 293 q 117 307 117 293 l 118 328 q 132 342 118 342 l 231 342 q 238 347 238 342 l 276 607 q 272 613 276 613 l 181 613 q 167 626 167 613 l 168 647 q 182 661 168 661 l 281 661 q 288 667 288 661 l 328 926 q 342 939 329 939 l 368 938 q 378 933 374 938 q 381 922 382 929 l 342 667 q 346 661 342 661 l 604 661 q 611 667 611 661 l 651 926 q 665 939 653 939 l 692 938 q 701 933 697 938 q 704 922 706 929 l 665 667 q 669 661 665 661 l 768 661 q 782 647 782 661 l 781 626 m 554 342 q 561 347 561 342 l 600 607 q 596 613 600 613 l 339 613 q 332 607 332 613 l 292 347 q 296 342 292 342 l 554 342 z "},"/":{"ha":440,"x_min":50,"x_max":392,"o":"m 64 0 q 53 4 57 0 q 51 15 50 8 l 336 961 q 353 972 340 972 l 378 972 q 388 968 385 972 q 390 957 392 964 l 106 11 q 89 0 101 0 l 64 0 z "},"\\":{"ha":440,"x_min":49,"x_max":390,"o":"m 390 11 q 376 0 390 0 l 351 0 q 335 11 339 0 l 50 957 l 49 961 q 63 972 49 972 l 88 972 q 104 961 100 972 l 389 15 l 390 11 z "},"(":{"ha":307,"x_min":-8,"x_max":185,"o":"m 144 -153 q 128 -143 133 -153 q 29 119 67 -40 q -8 447 -8 279 q 30 785 -8 621 q 132 1053 68 949 q 149 1063 138 1063 l 171 1063 q 182 1058 179 1063 q 181 1046 185 1053 q 89 779 124 940 q 54 450 54 618 q 89 126 54 285 q 181 -136 124 -33 q 183 -144 183 -142 q 171 -153 183 -153 l 144 -153 z "},")":{"ha":307,"x_min":122,"x_max":315,"o":"m 179 -143 q 163 -153 174 -153 l 136 -153 q 125 -148 128 -153 q 126 -136 122 -143 q 218 126 183 -33 q 253 450 253 285 q 218 779 253 618 q 126 1046 183 940 q 124 1054 124 1051 q 136 1063 124 1063 l 158 1063 q 175 1053 169 1063 q 277 785 239 949 q 315 447 315 621 q 278 119 315 279 q 179 -143 240 -40 z "},"{":{"ha":374,"x_min":44,"x_max":329,"o":"m 247 -151 q 151 -116 181 -151 q 122 0 122 -81 l 122 308 q 106 397 122 367 q 57 433 90 426 q 44 447 44 436 l 44 469 q 57 483 44 482 q 106 522 90 492 q 122 608 122 551 l 122 907 q 151 1023 122 988 q 247 1058 181 1058 l 315 1058 q 329 1044 329 1058 l 329 1024 q 315 1010 329 1010 l 257 1010 q 196 984 215 1010 q 176 900 176 958 l 176 611 q 162 513 176 549 q 115 463 147 478 q 115 456 108 460 q 162 402 147 438 q 176 306 176 367 l 176 7 q 196 -77 176 -51 q 257 -103 215 -103 l 315 -103 q 329 -117 329 -103 l 329 -137 q 315 -151 329 -151 l 247 -151 z "},"}":{"ha":374,"x_min":44,"x_max":329,"o":"m 58 -151 q 44 -137 44 -151 l 44 -117 q 58 -103 44 -103 l 117 -103 q 178 -77 158 -103 q 197 7 197 -51 l 197 306 q 212 402 197 367 q 258 456 226 438 q 258 463 265 460 q 212 513 226 478 q 197 611 197 549 l 197 900 q 178 984 197 958 q 117 1010 158 1010 l 58 1010 q 44 1024 44 1010 l 44 1044 q 58 1058 44 1058 l 126 1058 q 222 1023 193 1058 q 251 907 251 988 l 251 608 q 267 522 251 551 q 317 483 283 492 q 329 469 329 482 l 329 447 q 317 433 329 436 q 267 397 283 426 q 251 308 251 367 l 251 0 q 222 -116 251 -81 q 126 -151 193 -151 l 58 -151 z "},"[":{"ha":504,"x_min":44,"x_max":308,"o":"m 58 -151 q 44 -137 44 -151 l 44 1044 q 58 1058 44 1058 l 293 1058 q 307 1044 307 1058 l 307 1024 q 293 1010 307 1010 l 104 1010 q 99 1004 99 1010 l 99 -97 q 104 -103 99 -103 l 294 -103 q 308 -117 308 -103 l 308 -137 q 294 -151 308 -151 l 58 -151 z "},"]":{"ha":504,"x_min":196,"x_max":460,"o":"m 460 -137 q 446 -151 460 -151 l 210 -151 q 196 -137 196 -151 l 196 -117 q 210 -103 196 -103 l 400 -103 q 406 -97 406 -103 l 406 1004 q 400 1010 406 1010 l 211 1010 q 197 1024 197 1010 l 197 1044 q 211 1058 197 1058 l 446 1058 q 460 1044 460 1058 l 460 -137 z "},"-":{"ha":539,"x_min":61,"x_max":478,"o":"m 75 417 q 61 431 61 417 l 61 451 q 75 465 61 465 l 464 465 q 478 451 478 465 l 478 431 q 464 417 478 417 l 75 417 z "},"­":{"ha":539,"x_min":61,"x_max":478,"o":"m 75 417 q 61 431 61 417 l 61 451 q 75 465 61 465 l 464 465 q 478 451 478 465 l 478 431 q 464 417 478 417 l 75 417 z "},"–":{"ha":608,"x_min":61,"x_max":549,"o":"m 75 367 q 61 381 61 367 l 61 401 q 75 415 61 415 l 535 415 q 549 401 549 415 l 549 381 q 535 367 549 367 l 75 367 z "},"—":{"ha":969,"x_min":61,"x_max":908,"o":"m 75 367 q 61 381 61 367 l 61 401 q 75 415 61 415 l 894 415 q 908 401 908 415 l 908 381 q 894 367 908 367 l 75 367 z "},"_":{"ha":647,"x_min":47,"x_max":601,"o":"m 61 0 q 47 14 47 0 l 47 33 q 61 47 47 47 l 588 47 q 601 33 601 47 l 601 14 q 588 0 601 0 l 61 0 z "},"‚":{"ha":833,"x_min":110,"x_max":229,"o":"m 122 -99 q 112 -94 115 -99 q 111 -83 108 -90 l 178 201 q 193 214 181 214 l 215 214 q 226 210 222 214 q 228 199 229 206 l 154 -86 q 139 -99 153 -99 l 122 -99 z "},"„":{"ha":313,"x_min":4,"x_max":303,"o":"m 133 176 q 143 172 140 176 q 143 160 146 167 l 49 -83 q 33 -94 44 -94 l 17 -94 q 6 -79 1 -94 l 89 165 q 106 176 93 176 l 133 176 m 292 176 q 301 172 299 176 q 301 160 304 167 l 206 -83 q 190 -94 201 -94 l 174 -94 q 163 -79 158 -94 l 246 165 q 263 176 250 176 l 292 176 z "},"“":{"ha":308,"x_min":4,"x_max":307,"o":"m 17 701 q 7 706 10 701 q 7 718 4 711 l 103 961 q 118 972 107 972 l 135 972 q 146 957 150 972 l 63 713 q 46 701 58 701 l 17 701 m 175 701 q 165 706 168 701 q 165 718 163 711 l 260 961 q 275 972 264 972 l 292 972 q 303 957 307 972 l 219 713 q 203 701 215 701 l 175 701 z "},"”":{"ha":308,"x_min":1,"x_max":304,"o":"m 133 972 q 143 967 140 972 q 143 956 146 963 l 49 713 q 33 701 44 701 l 17 701 q 6 717 1 701 l 89 961 q 106 972 93 972 l 133 972 m 292 972 q 301 967 299 972 q 301 956 304 963 l 206 713 q 190 701 201 701 l 174 701 q 163 717 158 701 l 246 961 q 263 972 250 972 l 292 972 z "},"‘":{"ha":154,"x_min":4,"x_max":153,"o":"m 17 701 q 7 706 10 701 q 7 718 4 711 l 104 961 q 119 972 108 972 l 138 972 q 149 957 153 972 l 64 713 q 47 701 60 701 l 17 701 z "},"’":{"ha":154,"x_min":1,"x_max":150,"o":"m 138 972 q 147 967 144 972 q 147 956 150 963 l 50 713 q 35 701 46 701 l 17 701 q 6 717 1 701 l 90 961 q 107 972 94 972 l 138 972 z "},"«":{"ha":769,"x_min":150,"x_max":610,"o":"m 393 165 q 397 157 397 161 q 386 149 397 149 l 363 149 q 346 157 353 149 l 154 381 q 150 390 150 385 q 154 400 150 396 l 346 624 q 363 632 353 632 l 386 632 q 397 627 394 632 q 393 615 399 622 l 204 394 q 204 386 203 390 l 393 165 m 604 165 q 608 157 608 161 q 597 149 608 149 l 574 149 q 557 157 564 149 l 365 381 q 361 390 361 385 q 365 400 361 396 l 557 624 q 574 632 564 632 l 597 632 q 608 627 606 632 q 604 615 610 622 l 415 394 q 415 386 414 390 l 604 165 z "},"»":{"ha":769,"x_min":163,"x_max":621,"o":"m 174 149 q 163 153 165 149 q 167 165 161 158 l 356 386 q 356 394 358 390 l 167 615 q 163 624 163 619 q 174 632 163 632 l 197 632 q 214 624 207 632 l 406 400 q 410 390 410 396 q 406 381 410 385 l 214 157 q 197 149 208 149 l 174 149 m 385 149 q 374 153 376 149 q 378 165 372 158 l 567 386 q 567 394 569 390 l 378 615 q 374 624 374 619 q 385 632 374 632 l 408 632 q 425 624 418 632 l 617 400 q 621 390 621 396 q 617 381 621 385 l 425 157 q 408 149 419 149 l 385 149 z "},"‹":{"ha":522,"x_min":113,"x_max":361,"o":"m 356 165 q 360 157 360 161 q 349 149 360 149 l 325 149 q 308 157 315 149 l 117 381 q 113 390 113 385 q 117 400 113 396 l 308 624 q 325 632 315 632 l 349 632 q 359 627 357 632 q 356 615 361 622 l 167 394 q 167 386 165 390 l 356 165 z "},"›":{"ha":564,"x_min":161,"x_max":410,"o":"m 174 149 q 163 153 165 149 q 167 165 161 158 l 356 386 q 356 394 358 390 l 167 615 q 163 624 163 619 q 174 632 163 632 l 197 632 q 214 624 207 632 l 406 400 q 410 390 410 396 q 406 381 410 385 l 214 157 q 197 149 208 149 l 174 149 z "},"\"":{"ha":304,"x_min":50,"x_max":254,"o":"m 71 689 q 57 703 57 689 l 50 949 q 64 963 50 963 l 94 963 q 108 949 108 963 l 101 703 q 88 689 101 689 l 71 689 m 217 689 q 203 703 203 689 l 197 949 q 211 963 197 963 l 240 963 q 254 949 254 963 l 249 703 q 235 689 249 689 l 217 689 z "},"'":{"ha":160,"x_min":50,"x_max":110,"o":"m 71 697 q 57 711 57 697 l 50 954 q 64 968 50 968 l 96 968 q 110 954 110 968 l 103 711 q 89 697 103 697 l 71 697 z "}," ":{"ha":278,"x_min":0,"x_max":0,"o":""},"¢":{"ha":711,"x_min":104,"x_max":635,"o":"m 579 317 q 596 328 581 331 l 619 324 q 632 308 633 321 q 631 300 631 306 q 628 286 631 294 q 544 166 611 214 q 385 114 478 118 q 379 108 379 114 l 379 14 q 365 0 379 0 l 343 0 q 329 14 329 0 l 331 111 q 325 118 331 117 q 194 178 247 131 q 121 300 140 226 q 104 475 104 361 q 121 649 104 582 q 193 769 140 721 q 325 829 246 817 q 331 836 331 831 l 329 933 q 343 947 329 947 l 365 947 q 379 933 379 947 l 379 839 q 385 833 379 833 q 543 781 478 829 q 628 661 608 733 q 635 625 632 650 l 635 622 q 622 610 635 613 l 597 607 l 594 607 q 582 619 585 607 l 578 639 q 509 743 565 701 q 372 785 453 785 q 238 742 292 785 q 171 628 183 699 q 158 474 158 572 q 169 321 158 379 q 238 206 185 250 q 372 163 292 163 q 510 205 453 163 q 578 310 567 247 l 579 317 z "},"¤":{"ha":690,"x_min":40,"x_max":656,"o":"m 603 418 q 546 256 603 325 q 547 247 543 251 l 636 158 q 640 150 640 154 q 635 139 640 144 l 618 125 q 608 121 614 121 q 599 126 604 121 l 511 213 q 503 214 507 217 q 340 157 433 157 q 183 210 251 157 q 175 208 179 213 l 92 126 q 72 125 82 117 l 56 139 q 54 158 46 150 l 139 242 q 139 250 143 246 q 76 418 76 324 q 135 581 76 508 q 133 589 138 585 l 44 678 q 40 686 40 682 q 46 697 40 692 l 63 711 q 72 715 67 715 q 82 710 76 715 l 168 624 q 176 622 172 619 q 340 679 246 679 q 508 618 433 679 q 517 618 513 614 l 608 710 q 628 711 618 719 l 644 697 q 646 678 656 688 l 550 583 q 549 575 546 581 q 603 418 603 508 m 126 418 q 155 311 126 360 q 233 234 183 263 q 340 206 282 206 q 447 234 397 206 q 524 311 496 263 q 553 418 553 360 q 524 524 553 475 q 447 602 496 574 q 340 631 397 631 q 233 602 282 631 q 155 524 183 574 q 126 418 126 475 z "},"$":{"ha":754,"x_min":92,"x_max":668,"o":"m 668 233 q 598 60 668 126 q 397 -11 528 -7 q 392 -17 392 -11 l 392 -106 q 378 -119 392 -119 l 361 -119 q 347 -106 347 -119 l 349 -15 q 343 -10 349 -10 q 158 65 225 0 q 92 231 92 129 l 92 283 q 106 297 92 297 l 129 297 q 143 283 143 297 l 143 239 q 208 93 143 149 q 388 38 274 38 q 555 89 496 38 q 614 229 614 140 q 585 326 614 285 q 501 403 557 367 q 342 490 446 439 q 204 566 251 535 q 131 640 157 597 q 106 751 106 683 q 165 915 106 856 q 335 982 224 974 q 340 988 340 982 l 340 1085 q 354 1099 340 1099 l 369 1099 q 383 1085 383 1099 l 383 989 q 389 983 383 983 q 590 914 519 979 q 660 739 660 849 l 660 701 q 646 688 660 688 l 619 688 q 606 701 606 688 l 606 731 q 544 879 606 824 q 369 935 482 935 q 214 888 268 935 q 160 754 160 842 q 187 659 160 696 q 258 597 214 622 q 404 525 301 572 q 606 395 543 460 q 668 233 668 331 z "},"€":{"ha":885,"x_min":117,"x_max":779,"o":"m 507 36 q 656 85 597 36 q 724 218 714 135 q 739 229 726 232 l 765 225 q 778 210 779 222 q 690 48 763 108 q 507 -12 618 -12 q 309 61 385 -12 q 233 254 233 135 l 233 379 q 228 385 233 385 l 131 385 q 117 399 117 385 l 117 410 q 131 424 117 424 l 228 424 q 233 429 233 424 l 233 539 q 228 544 233 544 l 131 544 q 117 558 117 544 l 117 569 q 131 583 117 583 l 228 583 q 233 589 233 583 l 233 719 q 308 910 233 838 q 507 983 383 983 q 693 922 619 983 q 778 757 767 860 l 778 754 q 765 742 778 744 l 739 738 l 736 738 q 724 750 726 738 q 657 885 715 835 q 507 935 599 935 q 348 876 408 935 q 288 721 288 817 l 288 589 q 293 583 288 583 l 654 583 q 665 578 661 583 q 665 567 668 574 l 660 556 q 644 544 656 544 l 293 544 q 288 539 288 544 l 288 429 q 293 424 288 424 l 607 424 q 617 419 614 424 q 618 407 621 414 l 613 396 q 597 385 608 385 l 293 385 q 288 379 288 385 l 288 251 q 349 96 288 156 q 507 36 410 36 z "},"ƒ":{"ha":756,"x_min":53,"x_max":690,"o":"m 408 747 q 451 886 422 839 q 531 952 479 933 q 676 972 583 971 q 690 958 690 972 l 690 938 q 676 924 690 924 l 639 924 q 514 881 551 924 q 461 746 476 839 l 428 536 q 432 531 428 531 l 574 531 q 588 517 588 531 l 588 494 q 574 481 588 481 l 425 481 q 418 475 418 481 l 335 -53 q 291 -192 319 -144 q 211 -258 263 -239 q 67 -278 160 -276 q 53 -264 53 -278 l 53 -243 q 67 -229 53 -229 l 104 -229 q 229 -187 192 -229 q 282 -51 267 -144 l 365 475 q 361 481 365 481 l 250 481 q 236 494 236 481 l 236 517 q 250 531 236 531 l 368 531 q 375 536 375 531 l 408 747 z "},"₣":{"ha":915,"x_min":151,"x_max":881,"o":"m 881 938 q 867 924 881 924 l 332 924 q 326 918 326 924 l 326 518 q 332 513 326 513 l 714 513 q 728 499 728 513 l 728 476 q 714 463 728 463 l 332 463 q 326 457 326 463 l 326 257 q 332 251 326 251 l 556 251 q 569 238 569 251 l 569 222 q 556 208 569 208 l 332 208 q 326 203 326 208 l 326 14 q 313 0 326 0 l 286 0 q 272 14 272 0 l 272 203 q 267 208 272 208 l 165 208 q 151 222 151 208 l 151 238 q 165 251 151 251 l 267 251 q 272 257 272 251 l 272 958 q 286 972 272 972 l 867 972 q 881 958 881 972 l 881 938 z "},"£":{"ha":839,"x_min":151,"x_max":788,"o":"m 268 54 q 271 47 264 47 l 774 47 q 788 33 788 47 l 788 14 q 774 0 788 0 l 206 0 q 192 14 192 0 l 192 36 q 201 53 192 47 q 258 123 236 72 q 281 238 281 174 l 281 436 q 275 442 281 442 l 165 442 q 151 456 151 442 l 151 474 q 165 488 151 488 l 275 488 q 281 493 281 488 l 281 725 q 351 915 281 847 q 547 983 422 983 q 771 817 713 983 l 772 813 q 761 800 772 804 l 735 793 l 731 792 q 718 803 722 792 q 542 936 676 936 q 389 881 443 936 q 335 725 335 825 l 335 493 q 340 488 335 488 l 611 488 q 625 474 625 488 l 625 456 q 611 442 625 442 l 340 442 q 335 436 335 442 l 335 240 q 317 133 335 182 q 268 54 299 85 z "},"₺":{"ha":879,"x_min":119,"x_max":774,"o":"m 719 350 q 733 364 719 364 l 760 364 q 774 350 774 364 q 728 194 769 267 q 610 73 686 122 q 433 8 535 24 q 311 0 375 0 q 297 14 297 0 l 297 457 q 295 462 297 460 q 292 463 293 464 l 142 419 l 136 418 q 124 429 128 418 l 121 442 l 119 447 q 131 460 119 456 l 293 504 q 297 511 297 507 l 297 603 q 295 608 297 606 q 292 608 293 610 l 142 567 l 136 565 q 124 576 128 565 l 121 588 l 119 593 q 131 606 119 601 l 293 650 q 297 657 297 653 l 297 958 q 311 972 297 972 l 338 972 q 351 958 351 972 l 351 674 q 353 669 351 671 q 357 668 356 667 l 544 721 l 550 722 q 563 711 558 722 l 565 700 l 567 694 q 556 682 567 686 l 356 626 q 351 619 351 625 l 351 528 q 353 523 351 525 q 357 522 356 521 l 544 575 l 550 576 q 563 565 558 576 l 565 554 l 567 549 q 556 536 567 540 l 356 481 q 351 474 351 479 l 351 53 q 360 47 351 47 q 544 94 464 53 q 670 203 625 136 q 719 350 715 269 z "},"₽":{"ha":969,"x_min":151,"x_max":913,"o":"m 351 460 q 346 454 346 460 l 346 318 q 351 313 346 313 l 715 313 q 729 299 729 313 l 729 286 q 715 272 729 272 l 351 272 q 346 267 346 272 l 346 14 q 332 0 346 0 l 306 0 q 292 14 292 0 l 292 267 q 286 272 292 272 l 165 272 q 151 286 151 272 l 151 299 q 165 313 151 313 l 286 313 q 292 318 292 313 l 292 454 q 286 460 292 460 l 165 460 q 151 474 151 460 l 151 494 q 165 508 151 508 l 286 508 q 292 514 292 508 l 292 961 q 306 975 292 975 l 657 975 q 842 903 772 975 q 913 715 913 832 q 842 530 913 600 q 656 460 771 460 l 351 460 m 351 925 q 346 919 346 925 l 346 514 q 351 508 346 508 l 656 508 q 803 565 747 508 q 858 715 858 622 q 803 868 858 811 q 656 925 747 925 l 351 925 z "},"¥":{"ha":957,"x_min":158,"x_max":801,"o":"m 788 972 q 799 967 796 972 q 797 956 801 963 l 521 482 q 521 477 519 479 q 525 475 522 475 l 704 475 q 718 461 718 475 l 718 449 q 704 435 718 435 l 511 435 q 506 429 506 435 l 506 299 q 511 293 506 293 l 704 293 q 718 279 718 293 l 718 267 q 704 253 718 253 l 511 253 q 506 247 506 253 l 506 14 q 492 0 506 0 l 467 0 q 453 14 453 0 l 453 247 q 447 253 453 253 l 247 253 q 233 267 233 253 l 233 279 q 247 293 233 293 l 447 293 q 453 299 453 293 l 453 429 q 447 435 453 435 l 247 435 q 233 449 233 435 l 233 461 q 247 475 233 475 l 433 475 q 438 477 436 475 q 438 482 439 479 l 161 956 q 158 964 158 961 q 171 972 158 972 l 197 972 q 214 963 207 972 l 475 517 q 479 515 476 515 q 483 517 482 515 l 744 963 q 761 972 751 972 l 788 972 z "},"∙":{"ha":424,"x_min":61,"x_max":363,"o":"m 213 289 q 106 334 150 289 q 61 442 61 379 q 106 547 61 504 q 213 590 150 590 q 319 547 275 590 q 363 442 363 504 q 318 334 363 379 q 213 289 274 289 z "},"∕":{"ha":644,"x_min":53,"x_max":593,"o":"m 65 0 q 56 5 58 0 q 56 17 53 10 l 542 963 q 558 972 546 972 l 581 972 q 590 967 588 972 q 590 956 593 963 l 106 10 q 89 0 101 0 l 65 0 z "},"+":{"ha":704,"x_min":61,"x_max":643,"o":"m 629 467 q 643 453 643 467 l 643 433 q 629 419 643 419 l 381 419 q 375 414 375 419 l 375 172 q 361 158 375 158 l 342 158 q 328 172 328 158 l 328 414 q 322 419 328 419 l 75 419 q 61 433 61 419 l 61 453 q 75 467 61 467 l 322 467 q 328 472 328 467 l 328 726 q 342 740 328 740 l 361 740 q 375 726 375 740 l 375 472 q 381 467 375 467 l 629 467 z "},"−":{"ha":704,"x_min":61,"x_max":643,"o":"m 75 419 q 61 433 61 419 l 61 453 q 75 467 61 467 l 629 467 q 643 453 643 467 l 643 433 q 629 419 643 419 l 75 419 z "},"×":{"ha":571,"x_min":67,"x_max":506,"o":"m 501 644 q 506 635 506 640 q 501 625 506 629 l 326 450 q 326 442 322 446 l 496 271 q 496 251 504 263 l 482 236 q 472 232 478 232 q 463 236 467 232 l 292 407 q 283 407 288 411 l 110 233 q 100 229 106 229 q 90 233 94 229 l 76 247 q 72 257 72 251 q 76 267 72 263 l 250 440 q 250 449 254 444 l 71 629 q 67 639 67 633 q 71 649 67 644 l 85 663 q 94 667 89 667 q 104 663 100 667 l 285 483 q 293 483 289 479 l 468 658 q 478 663 472 663 q 488 658 483 663 l 501 644 z "},"÷":{"ha":704,"x_min":61,"x_max":643,"o":"m 350 625 q 306 643 324 625 q 288 688 288 661 q 306 731 288 713 q 350 749 325 749 q 395 731 376 749 q 414 688 414 714 q 395 643 414 661 q 350 625 376 625 m 75 438 q 61 451 61 438 l 61 471 q 75 485 61 485 l 629 485 q 643 471 643 485 l 643 451 q 629 438 643 438 l 75 438 m 350 199 q 306 217 324 199 q 288 261 288 235 q 306 304 288 286 q 350 322 325 322 q 395 304 376 322 q 414 261 414 286 q 395 217 414 235 q 350 199 376 199 z "},"=":{"ha":704,"x_min":61,"x_max":643,"o":"m 75 578 q 61 592 61 578 l 61 611 q 75 625 61 625 l 629 625 q 643 611 643 625 l 643 592 q 629 578 643 578 l 75 578 m 75 278 q 61 292 61 278 l 61 311 q 75 325 61 325 l 629 325 q 643 311 643 325 l 643 292 q 629 278 643 278 l 75 278 z "},"≠":{"ha":704,"x_min":61,"x_max":643,"o":"m 643 594 q 629 581 643 581 l 417 581 q 411 576 414 581 l 290 335 q 294 328 288 328 l 629 328 q 643 314 643 328 l 643 294 q 629 281 643 281 l 269 281 q 264 276 267 281 l 208 164 q 192 154 204 154 l 178 154 q 168 159 171 154 q 168 171 165 164 l 219 274 q 215 281 222 281 l 75 281 q 61 294 61 281 l 61 314 q 75 328 61 328 l 240 328 q 246 332 244 328 l 367 574 q 363 581 369 581 l 75 581 q 61 594 61 581 l 61 614 q 75 628 61 628 l 388 628 q 393 632 392 628 l 463 772 q 479 782 467 782 l 493 782 q 503 777 500 782 q 503 765 506 772 l 438 635 q 442 628 435 628 l 629 628 q 643 614 643 628 l 643 594 z "},">":{"ha":704,"x_min":61,"x_max":643,"o":"m 78 78 q 71 76 75 76 q 61 88 61 76 l 61 114 q 71 129 61 124 l 582 368 q 582 376 588 372 l 71 615 q 61 631 61 621 l 61 657 q 66 667 61 664 q 78 667 71 669 l 633 404 q 643 388 643 399 l 643 357 q 633 340 643 346 l 78 78 z "},"<":{"ha":704,"x_min":61,"x_max":643,"o":"m 643 88 q 638 78 643 81 q 626 78 633 75 l 71 340 q 61 357 61 346 l 61 388 q 71 404 61 399 l 626 667 q 633 668 629 668 q 643 657 643 668 l 643 631 q 633 615 643 621 l 122 376 q 122 368 117 372 l 633 129 q 643 114 643 124 l 643 88 z "},"≥":{"ha":704,"x_min":61,"x_max":643,"o":"m 75 0 q 61 14 61 0 l 61 33 q 75 47 61 47 l 629 47 q 643 33 643 47 l 643 14 q 629 0 643 0 l 75 0 m 78 139 q 71 138 75 138 q 61 149 61 138 l 61 175 q 71 190 61 185 l 582 429 q 582 438 588 433 l 71 676 q 61 692 61 682 l 61 718 q 66 728 61 725 q 78 728 71 731 l 633 465 q 643 449 643 460 l 643 418 q 633 401 643 407 l 78 139 z "},"≤":{"ha":704,"x_min":61,"x_max":643,"o":"m 643 149 q 638 139 643 142 q 626 139 633 136 l 71 401 q 61 418 61 407 l 61 449 q 71 465 61 460 l 626 728 q 633 729 629 729 q 643 718 643 729 l 643 692 q 633 676 643 682 l 122 438 q 122 429 117 433 l 633 190 q 643 175 643 185 l 643 149 m 643 14 q 629 0 643 0 l 75 0 q 61 14 61 0 l 61 33 q 75 47 61 47 l 629 47 q 643 33 643 47 l 643 14 z "},"±":{"ha":704,"x_min":61,"x_max":643,"o":"m 629 486 q 643 472 643 486 l 643 453 q 629 439 643 439 l 381 439 q 375 433 375 439 l 375 192 q 361 178 375 178 l 342 178 q 328 192 328 178 l 328 433 q 322 439 328 439 l 75 439 q 61 453 61 439 l 61 472 q 75 486 61 486 l 322 486 q 328 492 328 486 l 328 746 q 342 760 328 760 l 361 760 q 375 746 375 760 l 375 492 q 381 486 375 486 l 629 486 m 75 0 q 61 14 61 0 l 61 33 q 75 47 61 47 l 629 47 q 643 33 643 47 l 643 14 q 629 0 643 0 l 75 0 z "},"≈":{"ha":674,"x_min":64,"x_max":610,"o":"m 472 535 q 399 547 429 535 q 321 585 369 558 q 267 609 292 600 q 214 618 243 618 q 103 560 143 618 q 85 556 96 546 l 72 564 q 67 582 61 572 q 126 645 88 622 q 213 668 164 668 q 275 658 249 668 q 335 631 301 649 q 367 613 342 626 q 418 592 392 600 q 472 585 444 585 q 524 599 503 585 q 568 642 544 613 q 588 644 576 651 l 603 635 q 607 615 614 626 q 550 556 582 576 q 472 535 518 535 m 472 231 q 399 242 429 231 q 321 281 369 254 q 267 305 292 296 q 214 314 243 314 q 103 256 143 314 q 85 251 96 242 l 72 260 q 67 278 61 268 q 126 341 88 318 q 213 364 164 364 q 275 354 249 364 q 335 326 301 344 q 367 309 342 322 q 418 288 392 296 q 472 281 444 281 q 524 294 503 281 q 568 338 544 308 q 588 340 576 347 l 603 331 q 607 311 614 322 q 550 251 582 272 q 472 231 518 231 z "},"~":{"ha":674,"x_min":61,"x_max":614,"o":"m 472 342 q 399 353 429 342 q 321 392 369 365 q 267 416 292 407 q 214 425 243 425 q 103 367 143 425 q 85 363 96 353 l 72 371 q 67 389 61 379 q 126 452 88 429 q 213 475 164 475 q 275 465 249 475 q 335 438 301 456 q 367 420 342 433 q 418 399 392 407 q 472 392 444 392 q 524 406 503 392 q 568 449 544 419 q 588 451 576 458 l 603 442 q 607 422 614 433 q 550 363 582 383 q 472 342 518 342 z "},"¬":{"ha":704,"x_min":61,"x_max":643,"o":"m 61 453 q 75 467 61 467 l 629 467 q 643 453 643 467 l 643 261 q 629 247 643 247 l 607 247 q 593 261 593 247 l 593 414 q 588 419 593 419 l 75 419 q 61 433 61 419 l 61 453 z "},"∞":{"ha":1003,"x_min":61,"x_max":942,"o":"m 738 646 q 884 588 826 646 q 942 442 942 529 q 884 297 942 354 q 733 239 826 239 q 603 279 657 239 q 497 396 550 319 q 489 396 493 400 q 381 280 433 321 q 261 239 329 239 q 160 266 206 239 q 88 340 114 293 q 61 444 61 388 q 119 588 61 531 q 265 646 176 646 q 386 606 336 646 q 489 490 436 567 q 500 493 494 485 q 616 610 560 575 q 738 646 672 646 m 260 283 q 365 324 322 283 q 461 440 408 364 q 461 449 464 444 q 367 564 410 526 q 264 601 325 601 q 152 557 196 601 q 108 444 108 513 q 152 330 108 376 q 260 283 196 283 m 735 283 q 851 328 807 283 q 894 442 894 372 q 851 556 894 511 q 739 601 807 601 q 628 563 676 601 q 525 446 581 524 q 525 438 524 442 q 622 322 576 361 q 735 283 667 283 z "},"∫":{"ha":565,"x_min":53,"x_max":500,"o":"m 68 -278 q 54 -264 54 -278 l 53 -243 q 67 -229 53 -229 l 99 -229 q 217 -187 186 -229 q 247 -51 247 -144 l 250 747 q 272 887 250 839 q 342 953 293 935 q 485 972 392 971 q 499 958 499 972 l 500 938 q 486 924 500 924 l 454 924 q 335 881 367 924 q 304 746 304 839 l 301 -53 q 279 -192 300 -144 q 210 -258 258 -240 q 68 -278 161 -276 z "},"Ω":{"ha":894,"x_min":117,"x_max":779,"o":"m 131 0 q 117 14 117 0 l 117 35 q 131 49 117 49 l 269 49 q 274 51 274 49 q 271 56 275 54 q 169 160 206 93 q 132 313 132 226 l 132 672 q 172 835 132 764 q 282 944 211 906 q 446 983 353 983 q 612 944 540 983 q 723 835 683 906 q 763 672 763 764 l 763 313 q 726 160 763 226 q 624 56 689 93 q 620 51 619 54 q 625 49 621 49 l 765 49 q 779 35 779 49 l 779 14 q 765 0 779 0 l 528 0 q 514 14 514 0 l 514 38 q 526 51 514 50 q 614 97 572 61 q 682 187 656 132 q 708 307 708 242 l 708 675 q 636 863 708 792 q 446 935 564 935 q 258 863 329 935 q 186 675 186 792 l 186 307 q 213 186 186 240 q 280 97 239 132 q 365 53 321 63 q 378 38 378 49 l 378 14 q 364 0 378 0 l 131 0 z "},"∆":{"ha":872,"x_min":50,"x_max":822,"o":"m 64 0 q 50 14 50 0 l 50 40 q 53 57 50 50 l 407 961 q 422 972 411 972 l 449 972 q 464 961 460 972 l 819 56 q 822 39 822 49 l 822 14 q 808 0 822 0 l 64 0 m 106 54 q 106 49 104 51 q 110 47 107 47 l 761 47 q 765 49 764 47 q 765 54 767 51 l 440 894 q 436 899 439 899 q 432 894 433 899 l 106 54 z "},"∏":{"ha":921,"x_min":151,"x_max":771,"o":"m 757 1111 q 771 1097 771 1111 l 771 -264 q 757 -278 771 -278 l 731 -278 q 717 -264 717 -278 l 717 1057 q 711 1063 717 1063 l 211 1063 q 206 1057 206 1063 l 206 -264 q 192 -278 206 -278 l 165 -278 q 151 -264 151 -278 l 151 1097 q 165 1111 151 1111 l 757 1111 z "},"∑":{"ha":861,"x_min":151,"x_max":768,"o":"m 165 -276 q 151 -262 151 -276 l 151 -239 q 156 -221 151 -232 l 496 404 q 496 413 499 408 l 158 929 q 153 947 153 940 l 153 971 q 167 985 153 985 l 754 985 q 768 971 768 985 l 768 951 q 754 938 768 938 l 219 938 q 215 935 217 938 q 215 931 214 932 l 554 418 q 557 410 557 413 q 554 399 557 407 l 215 -222 q 215 -227 214 -225 q 218 -229 215 -229 l 754 -229 q 768 -243 768 -229 l 768 -262 q 754 -276 768 -276 l 165 -276 z "},"√":{"ha":978,"x_min":51,"x_max":849,"o":"m 239 -278 q 222 -267 226 -278 l 53 201 l 51 208 q 61 219 51 217 l 85 226 l 90 228 q 101 218 100 228 l 246 -182 q 249 -185 247 -185 q 253 -182 251 -185 l 596 1082 q 611 1094 599 1094 l 835 1094 q 849 1081 849 1094 l 849 1061 q 835 1047 849 1047 l 647 1047 q 640 1043 642 1047 l 285 -265 q 269 -278 282 -278 l 239 -278 z "},"µ":{"ha":754,"x_min":128,"x_max":625,"o":"m 571 683 q 585 697 571 697 l 611 697 q 625 683 625 697 l 625 14 q 611 0 625 0 l 585 0 q 571 14 571 0 l 571 88 q 569 92 571 92 q 564 89 567 92 q 482 15 533 40 q 363 -10 431 -10 q 265 8 310 -10 q 189 57 221 25 q 182 54 182 61 l 182 -264 q 168 -278 182 -278 l 142 -278 q 128 -264 128 -278 l 128 683 q 142 697 128 697 l 168 697 q 182 683 182 697 l 182 232 q 234 91 182 143 q 372 39 286 39 q 517 92 463 39 q 571 232 571 146 l 571 683 z "},"∂":{"ha":808,"x_min":101,"x_max":681,"o":"m 679 463 q 617 124 681 260 q 374 -11 554 -11 q 176 69 250 -11 q 101 285 101 150 q 140 445 101 375 q 244 553 178 515 q 388 592 310 592 q 519 559 460 590 q 619 478 579 528 q 624 474 622 475 q 626 475 626 474 l 626 479 q 539 836 621 719 q 460 908 506 885 q 354 932 415 932 q 221 890 281 932 q 211 888 218 888 q 201 896 204 888 l 194 917 q 193 924 193 919 q 200 935 193 931 q 358 983 271 983 q 579 869 497 983 q 656 689 633 796 q 679 463 679 582 m 376 38 q 558 126 499 38 q 626 383 618 214 q 625 390 626 389 q 533 499 594 456 q 393 542 471 542 q 274 510 328 542 q 188 419 219 478 q 156 286 156 361 q 217 106 156 174 q 376 38 278 38 z "},"%":{"ha":1192,"x_min":151,"x_max":1042,"o":"m 342 610 q 247 635 290 610 q 177 704 203 661 q 151 799 151 747 q 177 893 151 850 q 247 961 203 936 q 342 986 290 986 q 436 960 393 986 q 505 892 479 935 q 531 799 531 849 q 505 704 531 747 q 436 635 479 661 q 342 610 393 610 m 321 0 q 310 5 313 0 q 311 17 307 10 l 838 963 q 854 972 844 972 l 869 972 q 881 967 878 972 q 879 956 883 963 l 354 10 q 338 0 350 0 l 321 0 m 342 650 q 446 694 403 650 q 489 799 489 738 q 446 903 489 860 q 342 946 403 946 q 236 903 279 946 q 193 799 193 860 q 236 693 193 736 q 342 650 279 650 m 853 -14 q 758 12 801 -14 q 689 81 714 38 q 664 175 664 124 q 689 269 664 226 q 758 338 714 313 q 853 363 801 363 q 948 338 904 363 q 1017 269 992 313 q 1042 175 1042 225 q 1017 81 1042 124 q 948 12 992 38 q 853 -14 904 -14 m 853 26 q 958 70 914 26 q 1001 175 1001 114 q 958 279 1001 236 q 853 322 914 322 q 748 279 792 322 q 704 175 704 236 q 748 69 704 113 q 853 26 792 26 z "}}}
